<?xml version="1.0" standalone="no"?>
<!DOCTYPE svg PUBLIC "-//W3C//DTD SVG 1.1//EN" "http://www.w3.org/Graphics/SVG/1.1/DTD/svg11.dtd" >
<svg xmlns="http://www.w3.org/2000/svg" xmlns:xlink="http://www.w3.org/1999/xlink" version="1.1">
<metadata></metadata>
<defs>
<font id="blackcurrantcameo" horiz-adv-x="1318" >
<font-face units-per-em="2048" ascent="1638" descent="-410" />
<missing-glyph horiz-adv-x="534" />
<glyph horiz-adv-x="0" />
<glyph horiz-adv-x="682" />
<glyph unicode=" "  horiz-adv-x="534" />
<glyph unicode="&#x09;" horiz-adv-x="534" />
<glyph unicode="&#xa0;" horiz-adv-x="534" />
<glyph unicode="!" horiz-adv-x="1003" d="M82.5 792.5q2.5 81.5 12.5 152.5t40.5 129.5t78.5 100t126.5 64.5t183.5 23t183.5 -23t126 -64.5t77.5 -100t39.5 -129.5t11 -152.5t-7.5 -169.5q-6 -84 -14 -147t-23 -133t-35.5 -120t-53 -97.5t-75 -77t-102 -47t-133.5 -17.5t-133.5 17.5t-102 47t-74.5 77t-52 97.5 t-34 120t-21.5 133t-12.5 147q-8 88 -5.5 169.5zM321 428.5q9 -20.5 35 -25.5q17 -3 46 2t46 5.5t19 -13.5q1 -15 -20.5 -16.5t-52.5 3t-42 1.5q-60 -16 -16 -76q23 -31 50 -34.5t40 12.5q13 10 22.5 34t19 36t26.5 3q9 -5 9.5 -12.5t-6.5 -16t-15.5 -17.5t-17.5 -19.5 t-13 -18.5q-10 -21 7.5 -37t61.5 -16t60.5 15t11.5 38q-2 8 -11 18.5t-18.5 19.5t-17 17.5t-7 16t10.5 12.5q17 10 28.5 -5t22.5 -41t21 -33q48 -35 90 26q20 36 12 52.5t-35 21.5q-18 4 -42 0.5t-45 -1.5t-21 15q0 15 19.5 15.5t49.5 -3.5t43 -1q27 5 35.5 25t-12.5 54 q-45 55 -97 19q-10 -8 -20.5 -31.5t-20.5 -36.5t-24 -4q-10 7 -11 14.5t5.5 15.5t15.5 16t19 19.5t14 22.5q8 21 -9 36t-61 15q-46 0 -62 -15t-9 -36q3 -9 11 -20t16 -19t15 -18t7 -15.5t-8 -11.5q-18 -11 -29.5 0t-22.5 36t-20 34q-13 17 -41.5 12.5t-50.5 -35.5 q-20 -34 -11 -54.5zM326 870q5 -31 19 -51.5t32 -29t38 -19.5t36.5 -23t28 -40.5t12.5 -71.5q11 -3 28 -4t28 -1l11 1q-1 55 15 88.5t39.5 47t47.5 23t43 28.5t23 52q3 35 -3.5 64.5t-26 57t-63.5 43.5t-108 16q-65 0 -109 -16t-64 -43.5t-26 -57t-1 -64.5z" />
<glyph unicode="&#x22;" horiz-adv-x="1107" d="M82 773.5q3 82.5 14.5 154.5t46 131t88 101.5t141.5 65.5t206 23t205.5 -23t140.5 -65.5t86.5 -101.5t44 -131t12.5 -154.5t-8 -171.5q-7 -85 -15.5 -149.5t-25.5 -135t-40.5 -121t-60 -98.5t-84.5 -78t-114.5 -47.5t-149.5 -17.5t-149.5 17.5t-113.5 47t-83 78t-59 99 t-38.5 121.5t-23.5 135t-14 149q-9 89 -6 171.5zM326 905q5 -37 19.5 -63.5t28.5 -41.5t26.5 -52t15.5 -93q9 -3 22 -3.5t22 0.5l9 1q1 59 12.5 95t25 48.5t29.5 40t23 68.5q12 69 -16 117.5t-101 48.5t-99.5 -48t-16.5 -118zM604 885q5 -35 20 -61t29 -40.5t26.5 -49.5 t14.5 -89q9 -3 23 -4t23 -1l10 1q1 47 8.5 77.5t18.5 46.5t22.5 29t23.5 35.5t19 55.5q12 65 -16.5 111t-102.5 46q-75 0 -102 -45t-17 -112z" />
<glyph unicode="#" horiz-adv-x="1781" d="M82 738q-2 51 3 107.5t20.5 100t45 88.5t73.5 78t108.5 62.5t147.5 48t193.5 29t244.5 10.5q133 0 243 -10.5t193 -29t146.5 -48t106.5 -62.5t71.5 -78t43 -88.5t18.5 -100t1 -107.5t-12 -115q-12 -84 -27 -147t-43 -133t-67 -120t-101 -97.5t-142.5 -77t-193.5 -47 t-252 -17.5q-109 0 -201 10.5t-163.5 29t-130.5 48t-101.5 62.5t-76.5 78t-56 88.5t-38.5 100t-26 107.5t-17.5 115t-10 115zM373 977q3 -17 7 -47t10 -120.5t5 -178.5l-14 -348q31 4 77 4t76 -2l31 -2q-3 31 -7 80.5t-10 150.5t-5 143q0 9 1 33t1.5 32.5t2 28t4 27t7 21.5 t11.5 19.5t16 13.5t22 11.5t29 4.5q27 3 45 -4t27.5 -16.5t14 -35.5t5 -42t0.5 -55v-23q0 -334 41 -386l6 -5q69 8 130.5 7.5t103.5 -4.5l41 -5q-2 10 -5 33.5t-7 112t3 206.5q5 96 -6.5 159.5t-46 109t-100 63t-166.5 8.5q-247 -16 -350 6zM1101.5 877.5 q-5.5 -36.5 0.5 -78.5q3 -46 11.5 -77.5t26.5 -61t53 -44t87 -14.5t87 14.5t53.5 44t27.5 60.5t14 78q6 42 1 78.5t-21 63.5t-56 42.5t-104 15.5q-63 0 -103 -15.5t-56 -42.5t-21.5 -63.5zM1137.5 359.5q-4.5 -14.5 13.5 -42.5q17 -25 38.5 -29t31.5 9q10 9 17 29.5 t13.5 30.5t20.5 3q7 -5 7 -11t-5 -13.5t-11.5 -14.5t-13.5 -16t-10 -16q-8 -17 5.5 -30t49.5 -13q34 0 46.5 13t7.5 30q-2 7 -8.5 16t-14 16t-13 14.5t-5.5 14t8 10.5q14 8 22.5 -5t17 -34.5t17.5 -27.5q37 -28 68 22q32 50 -17 62q-14 3 -33 0t-35 -1t-16 13q0 12 15.5 12 t39 -3.5t33.5 -0.5q21 3 28 20.5t-11 45.5q-34 47 -74 16q-7 -6 -15.5 -25t-16.5 -30t-19 -4q-12 6 -9 15.5t10 16t17.5 18.5t14.5 22q7 19 -6.5 32t-49.5 13q-34 0 -47 -13t-6 -32q2 -7 8.5 -16t12.5 -16t11.5 -15t5 -13t-6.5 -10q-15 -9 -23.5 0t-16.5 30t-15 29 q-11 14 -33.5 11t-38.5 -29q-16 -30 -9 -46.5t27 -21.5q11 -2 22.5 -0.5t22.5 3.5t20 3.5t14.5 -1t6.5 -9.5q1 -14 -15 -15t-40 2.5t-33 0.5q-21 -5 -25.5 -19.5zM1257 768q-2 45 9.5 67.5t50.5 22.5t50 -22.5t9 -69.5t-13 -68.5t-46 -21.5t-46.5 22t-13.5 70z" />
<glyph unicode="$" horiz-adv-x="1007" d="M82.5 752.5q2.5 83.5 12.5 156t40.5 132.5t78.5 102.5t127 66t185 23.5q127 0 215.5 -33.5t134 -93t69.5 -141.5t23 -180t-7 -207q-6 -75 -12.5 -132.5t-18 -122t-28 -112.5t-39.5 -96t-55 -81.5t-73.5 -59.5t-95.5 -39t-119 -13q-74 0 -134 18t-102.5 48t-75 79 t-52.5 100t-34 123t-21.5 136.5t-12.5 151.5q-8 91 -5.5 174.5zM322 518q1 -41 17 -70t44 -43.5t58 -20.5t65 -5q8 0 10 -11.5t-4 -23.5q-4 -9 -31.5 -32t-34.5 -46q-6 -14 -3 -31.5t10.5 -32.5t29 -25.5t54.5 -10.5q104 0 88 100q-3 18 -15.5 34t-27.5 29t-19 19 q-6 9 -3 19t9 12q59 2 104 31.5t48 85.5q4 62 -29.5 84t-95.5 22q-59 0 -88 4t-34 8.5t-5 14.5q-4 16 5 26.5t40 10.5q46 0 43 -31q42 4 86 -3t67 -16l23 -8q11 93 -35.5 144t-130.5 59q-9 0 -13 11.5t1 25.5q5 13 33.5 36t34.5 54q10 45 -12 78t-79 33t-78 -32.5t-14 -78.5 q6 -28 34.5 -53.5t33.5 -36.5q6 -14 2.5 -25.5t-12.5 -13.5q-34 0 -63 -7.5t-56 -25t-41 -53.5t-10 -86q4 -35 20 -57t47.5 -33.5t62 -15.5t81.5 -7t63.5 -8.5t13.5 -26.5q2 -15 -7 -27.5t-34 -12.5q-39 0 -36 45q-44 -7 -109 0.5t-108 23.5z" />
<glyph unicode="%" horiz-adv-x="1617" d="M82 743.5q-1 63.5 12 133.5t42.5 120t85.5 97.5t137.5 76.5t201 46.5t273.5 17.5q120 0 219.5 -10.5t174 -29t132 -48t96 -62t64 -77.5t39 -88.5t17 -100.5t0.5 -107.5t-11 -115.5q-8 -64 -17.5 -115t-25.5 -107.5t-37 -100t-52 -88.5t-70.5 -78t-93 -62.5t-118.5 -48 t-148.5 -29t-181.5 -10.5t-181 10.5t-147.5 29t-117.5 48t-91.5 62.5t-68.5 78t-50 88.5t-35 100t-23 107.5t-15 115q-9 84 -10 147.5zM353.5 861q-5.5 -37 0.5 -79q3 -46 11 -77.5t26 -60.5t53.5 -43.5t87.5 -14.5q100 0 140 45.5t43 128.5q0 16 -4 90q-2 24 23 28 q27 5 40 -14q5 -8 4 -18q-9 -125 -44.5 -275.5t-67.5 -238.5l-31 -88q24 4 65 5t70 0l29 -1q98 481 186 719q-47 -10 -112.5 -9t-112.5 6.5t-112.5 12t-112.5 6.5q-63 0 -103 -15.5t-56.5 -42.5t-22 -64zM450.5 831.5q-4.5 11.5 4.5 32.5q10 19 24 21.5t21 -8.5 q4 -5 9.5 -19.5t11 -21t14.5 -0.5q4 8 1 13.5t-11.5 17.5t-10.5 20q-3 12 5 20t30 8t30 -8t3 -20q-3 -10 -13 -22t-12.5 -16t4.5 -13q7 -5 12 2t10.5 20.5t10.5 18.5q23 23 45 -13q10 -19 6 -31.5t-16 -15.5q-6 -1 -20.5 1.5t-24 2.5t-9.5 -8q0 -7 10.5 -8.5t22 0.5t19.5 0 q28 -8 10 -43q-18 -38 -43 -17q-4 4 -9.5 19.5t-11.5 24.5t-14 4q-7 -9 -3.5 -15t13.5 -18t11 -19q3 -12 -4.5 -21t-28.5 -9q-22 0 -31 9t-4 21q2 6 11.5 18.5t12 18.5t-3.5 15q-8 5 -12 -2.5t-9 -22t-11 -20.5q-22 -22 -43 14q-20 33 8 45q4 1 14 -0.5t18.5 -3t15.5 1 t7 10.5q-1 4 -4.5 5.5t-9 0.5t-12.5 -2l-14 -2t-13 0q-12 3 -16.5 14.5zM904.5 511q-5.5 -37 0.5 -79q3 -46 11.5 -77.5t26.5 -60.5t53 -43.5t87 -14.5t87 14.5t54 43.5t28 60.5t14 77.5q6 42 0.5 79t-21.5 64t-56 42.5t-104 15.5q-63 0 -103 -15.5t-56 -42.5t-21.5 -64z M1025.5 423.5q-4.5 11.5 4.5 33.5q11 19 25.5 21t19.5 -9q5 -5 10 -19.5t10.5 -21t14.5 -0.5q5 8 2.5 13.5t-10.5 17t-10 18.5q-4 12 3.5 21.5t28.5 9.5t29.5 -9.5t5.5 -21.5q-3 -9 -13 -20.5t-12 -16t5 -14.5q6 -5 11 2.5t9.5 21t9.5 17.5q28 23 48 -10q10 -21 5.5 -32 t-16.5 -15q-6 -1 -20.5 1t-24.5 1.5t-10 -9.5q0 -7 10 -8t22 1t21 -1q28 -8 10 -43q-10 -19 -23 -22t-20 6q-5 5 -10.5 20t-10.5 24t-13 3q-7 -7 -3.5 -13t12.5 -17.5t11 -18.5q4 -31 -35 -31q-21 0 -29.5 9.5t-5.5 21.5q3 6 12.5 18.5t12.5 17.5t-2 13q-9 5 -13.5 -2 t-9 -21t-10.5 -20q-7 -10 -20 -7.5t-23 21.5q-22 35 6 43q5 1 12 0.5t15 -1t14.5 -1t11 2t3.5 8.5q0 5 -3.5 6.5t-9 0.5t-12.5 -2t-14.5 -2t-14.5 1q-12 2 -16.5 13.5z" />
<glyph unicode="&#x26;" horiz-adv-x="1392" d="M81.5 761.5q-0.5 62.5 10.5 131.5t36.5 118.5t72.5 96.5t116.5 75.5t171 46t232.5 17.5t232.5 -17.5t170 -46t115 -75.5t71 -96.5t34 -118.5t8 -131.5t-10.5 -145.5t-20.5 -145t-33 -131.5t-51 -118.5t-76.5 -96t-108.5 -75.5t-147.5 -46t-193 -17.5t-192.5 17.5t-147 46 t-108 75.5t-75.5 96t-49.5 118.5t-30.5 131.5t-18 145t-8.5 145.5zM362 446q6 -111 71 -162.5t229 -50.5q168 2 242 45.5t91 153.5q5 29 22 43.5t44 14t46 -4.5t48 -12q6 64 -2 113q-87 -12 -121 4t-28 72q-13 -1 -34.5 -1.5t-86 -1.5t-113.5 0q-1 -18 -2.5 -24t-12.5 -18 t-39.5 -16.5t-76.5 -4.5q-53 0 -72.5 20t-21.5 56q-3 55 17.5 81.5t72.5 26.5q17 0 31 -2t23.5 -5t16.5 -8.5t10.5 -9.5t6 -10.5t3 -10t1 -9t0.5 -6.5q73 5 120 4t69 -5l22 -3q14 99 2.5 165.5t-73.5 100.5t-189 37q-85 2 -139 -4t-96 -27t-59 -62t-15 -106q3 -92 31 -136 t85 -44q15 0 14.5 -16.5t-14.5 -16.5q-63 0 -94.5 -43t-28.5 -117zM638.5 449.5q-5.5 10.5 4.5 31.5q13 19 30 21t25 -8q5 -5 10.5 -19t12.5 -20t18 0q6 7 2.5 12.5t-14 16.5t-12.5 18q-3 13 6 21.5t35 8.5t36 -9t5 -21q-3 -6 -9 -12.5t-11 -11t-9 -9t-3.5 -8.5t7.5 -8 q8 -4 14 3t12 20.5t11 17.5q31 22 55 -11q13 -21 8.5 -32.5t-20.5 -14.5q-7 -1 -24 1.5t-28.5 2.5t-11.5 -8q0 -7 12 -8.5t26 0.5t24 0q35 -8 12 -43q-21 -35 -51 -14q-6 4 -12 18.5t-12.5 23t-16.5 3.5q-6 -3 -6.5 -7.5t4 -9.5t9.5 -10.5t10.5 -11.5t7.5 -11q3 -12 -6 -20 t-35 -8t-36 8t-5 20q2 5 7 11t10 11.5t8.5 10.5t3.5 9.5t-5 7.5q-10 5 -15.5 -1.5t-11 -21t-12.5 -20.5q-27 -22 -51 14q-25 31 8 43q7 1 25 -1t30 -1.5t11 8.5q0 8 -9.5 8t-26 -3t-26.5 -1q-15 3 -20.5 13.5z" />
<glyph unicode="'" horiz-adv-x="882" d="M82 788.5q3 79.5 11.5 149t35.5 126.5t68 97.5t109 63t159 22.5q109 0 184 -32t114 -88.5t59.5 -135t19.5 -171.5t-6 -197q-5 -82 -12 -143.5t-20 -130t-30.5 -117t-46 -95t-65.5 -75t-88 -45.5t-115 -17t-115 17t-88 45.5t-65 75t-45.5 95.5t-30 117t-18.5 129.5 t-11 143.5q-7 86 -4 165.5zM338 893q5 -37 20 -64t29 -42t26.5 -51.5t14.5 -92.5q9 -3 22 -4t22 -1l9 1q2 49 9.5 81t18.5 48.5t22 30t22.5 37t17.5 57.5q13 69 -14.5 117.5t-101.5 48.5q-73 0 -100 -48t-17 -118z" />
<glyph unicode="(" horiz-adv-x="837" d="M81.5 740.5q2.5 81.5 10.5 152.5t33 129.5t64 100t103 64.5t150 23q73 0 130.5 -17.5t96 -47t65 -77t40.5 -97.5t19 -120t4 -133.5t-6 -146.5t-11 -147t-18 -133t-29 -119.5t-44 -98t-61.5 -77t-83 -47t-108.5 -17.5t-108.5 17.5t-83 47t-61 77t-42.5 97.5t-27.5 120 t-17.5 133t-10 147q-7 88 -4.5 169.5zM264 682.5q0 -61.5 4 -129.5q4 -53 7.5 -84.5t11.5 -73t19 -66t29.5 -51.5t43.5 -41t61 -23t82 -9q8 88 -2 143q-51 0 -75.5 39.5t-32.5 132.5q-7 74 17 121.5t85 44.5q19 170 21 289q-74 0 -127.5 -22.5t-82 -62t-45 -93t-16.5 -115z " />
<glyph unicode=")" horiz-adv-x="798" d="M83 778.5q0 97.5 19 180t54 142t102 93t164 33.5t164 -33.5t101.5 -93t52.5 -142t17 -180t-5 -207.5q-6 -101 -13.5 -175t-22.5 -154.5t-38.5 -135t-58.5 -100t-86 -68t-117 -22.5q-65 0 -116 22.5t-85 68t-57.5 100t-37.5 135t-21.5 154.5t-12.5 175q-3 110 -3 207.5z M305 975q1 -53 6 -128t10 -124l5 -49q61 1 85 -45.5t17 -118.5q-8 -90 -33 -129t-76 -39q-4 -24 -4.5 -58t1.5 -56l1 -23q46 0 82 9t61 23t43.5 41t29.5 51.5t19 66t11.5 73t7.5 84.5q4 68 4 129.5t-16 115t-44.5 93t-82 62t-127.5 22.5z" />
<glyph unicode="*" d="M82.5 785.5q3.5 81.5 17 152.5t55 129.5t106.5 100t171.5 64.5t249.5 23q96 0 176 -10.5t139.5 -29t105.5 -48t77 -62.5t51.5 -78t31 -88.5t13.5 -100t0.5 -107.5t-8.5 -115q-9 -84 -19.5 -147t-31 -133t-48.5 -120t-72.5 -97.5t-102.5 -77t-139 -47t-181 -17.5 t-181 17.5t-138 47t-101 77t-71.5 97.5t-46.5 120t-29 133t-17 147q-11 88 -7.5 169.5zM366.5 696q1.5 -28 24.5 -65t48 -52t45 -11t38 22q12 13 22.5 36t15.5 42t13.5 37t17.5 21.5t27 -5.5q13 -9 13.5 -22.5t-9.5 -29t-22.5 -31t-26 -34.5t-18.5 -33q-13 -36 12 -63 t90 -27q64 0 87.5 26t15.5 64q-3 15 -16 33.5t-26.5 34t-24.5 31.5t-10.5 29.5t15.5 23.5q25 16 41.5 -10.5t32.5 -72.5t31 -60q19 -17 39 -20t44.5 13.5t45.5 55.5q20 38 20 66t-14 42t-37 21q-27 7 -62 1t-65.5 -2.5t-30.5 25.5q0 25 28.5 26t72 -6.5t61.5 -2.5 q24 6 39.5 23.5t15.5 48t-22 67.5q-23 37 -50 49.5t-48.5 6.5t-40.5 -23q-15 -13 -30 -53.5t-29 -62.5t-35 -7q-15 12 -16.5 24.5t8 26.5t22 28.5t26.5 34.5t21 39q13 36 -12.5 63.5t-89.5 27.5q-63 0 -87 -27.5t-14 -63.5q4 -15 15.5 -34.5t23 -34t21.5 -31.5t10 -27.5 t-12 -21.5q-26 -19 -42.5 0.5t-31.5 63t-29 59.5q-15 19 -37.5 24t-49 -10t-46.5 -53q-29 -61 -15.5 -95.5t52.5 -43.5q24 -5 65 3.5t65.5 8.5t27.5 -23q2 -27 -28.5 -29.5t-75.5 4t-60 1.5q-24 -8 -37.5 -23t-12 -43z" />
<glyph unicode="+" horiz-adv-x="1138" d="M81.5 737.5q-0.5 63.5 8 133.5t28.5 120t58 97.5t93.5 76.5t136.5 46.5t186 17.5t186 -17.5t136 -46.5t92 -76.5t57 -97.5t28 -120t7 -133.5t-8 -147.5t-16 -147t-26.5 -133t-41.5 -120t-62 -97.5t-87.5 -77t-118.5 -47t-154 -17.5t-153.5 17.5t-117.5 47t-86 77 t-60 97.5t-39.5 120t-25 133t-14.5 147t-6.5 147.5zM292.5 595q1.5 -61 5.5 -105l3 -44q49 15 91.5 12.5t74 -21t49.5 -70t19 -134.5q12 -2 29 0t32 5l16 4q0 97 12.5 154.5t45.5 88.5t79 39.5t125 5.5l5 172q-73 -24 -119 -6.5t-69.5 62.5t-33 92.5t-9.5 83.5l-1 37 q-88 -12 -143 6q2 -70 -8.5 -121.5t-29 -79t-41.5 -44t-46 -19t-42.5 -1.5t-31.5 5l-12 4q-2 -65 -0.5 -126z" />
<glyph unicode="," horiz-adv-x="1062" d="M82 741q3 93 13.5 174.5t43.5 148t84.5 114.5t135 74t196.5 26t196.5 -26t134 -74t82.5 -114.5t42 -148t12 -174.5t-8 -194q-6 -95 -14.5 -167t-24 -152t-37.5 -137t-57.5 -111.5t-81 -88t-109.5 -53.5t-143 -20q-62 0 -114 12t-92.5 33t-73.5 55t-57.5 71.5t-43.5 89 t-31.5 101t-22 114t-14.5 122.5t-10 131q-9 101 -6 194zM322 375q1 -36 6.5 -60t20.5 -47.5t48 -35t84 -11.5q33 0 53.5 -19.5t23 -61t-27.5 -105.5q16 3 42 3.5t44 -0.5l19 -1q10 14 24.5 38.5t39 92t24.5 125.5q0 59 -6.5 97t-26 72.5t-61.5 51t-107 16.5 q-66 0 -108 -11.5t-61.5 -34.5t-25.5 -47.5t-5 -61.5z" />
<glyph unicode="-" horiz-adv-x="884" d="M82 753.5q3 81.5 11.5 152.5t35.5 129.5t68 100t109 64.5t159 23q109 0 185 -32.5t115 -91t59.5 -138.5t19.5 -175.5t-6 -201.5q-5 -84 -12 -147t-20 -133t-31 -120t-46 -97.5t-65 -77t-89 -47t-116 -17.5t-115 17.5t-88 47t-65 77t-45.5 97.5t-30 120t-18.5 133t-11 147 q-7 88 -4 169.5zM260 582q1 -36 8.5 -61t27.5 -47.5t61 -34t104 -11.5t104 11.5t61 34t27.5 47.5t8.5 61q0 37 -6.5 61.5t-26 47.5t-61.5 34.5t-107 11.5q-66 0 -108 -11.5t-61.5 -34.5t-26 -47.5t-5.5 -61.5z" />
<glyph unicode="." horiz-adv-x="1024" d="M81.5 731.5q2.5 81.5 13 152.5t42 129.5t80.5 99.5t129.5 64t188.5 23q129 0 218 -32.5t135.5 -90.5t70.5 -138t23 -175.5t-7 -202.5q-6 -84 -14 -147t-23.5 -133t-37 -120t-55 -97.5t-77 -77t-104.5 -47t-136 -17.5q-76 0 -136.5 17.5t-104 47t-76.5 77t-53.5 97.5 t-35 120t-22 133t-12.5 147q-9 89 -6.5 170.5zM337.5 222q-6.5 -17 16.5 -52q23 -31 49 -36t41 11q12 11 21 36t18.5 37t26.5 3q9 -5 9.5 -12.5t-6.5 -16t-15.5 -17.5t-17.5 -19.5t-13 -18.5q-8 -21 10 -37t62 -16t60 15t9 38q-2 8 -11 18.5t-18.5 19.5t-17 17.5t-7 16 t10.5 12.5q17 10 29 -5t23 -41.5t22 -33.5q16 -16 41 -10.5t47 37.5q20 34 12.5 51.5t-32.5 22.5q-19 4 -43 0.5t-45 -1.5t-21 15q0 15 19.5 15.5t49.5 -4.5t42 -3q28 7 36 27t-14 53q-41 56 -96 21q-10 -8 -20.5 -31.5t-21 -36.5t-24.5 -4q-10 7 -11 14.5t5.5 15.5t15.5 16 t19 19.5t14 22.5q10 21 -7.5 36t-61.5 15t-61.5 -15t-10.5 -36q3 -9 11.5 -20t16.5 -19t14.5 -18t6.5 -15.5t-8 -11.5q-18 -11 -29.5 -0.5t-22 36t-18.5 34.5q-15 16 -44 12t-50 -35q-20 -36 -10 -55.5t37 -24.5q17 -3 45 2t44.5 5.5t18.5 -13.5q1 -10 -7 -14t-21.5 -3 t-29.5 2.5t-30 3.5t-24 -1q-27 -7 -33.5 -24z" />
<glyph unicode="/" horiz-adv-x="827" d="M81.5 740.5q2.5 81.5 10.5 152.5t32.5 129.5t63 100t101.5 64.5t147 23q73 0 129 -17.5t94.5 -47t64.5 -77t39.5 -97.5t19 -120t4 -133.5t-6.5 -146.5q-6 -99 -13.5 -171t-23 -150.5t-40 -131.5t-61 -97.5t-90 -66.5t-122.5 -22t-122 22t-88.5 66.5t-60 97.5t-39 131.5 t-22 150.5t-12.5 171q-7 88 -4.5 169.5zM258 231q24 4 59.5 6.5t59.5 3.5l24 1q99 481 187 721q-40 -8 -90 -8t-80 4l-29 4q-11 -135 -44 -318t-60 -299z" />
<glyph unicode="0" d="M82.5 792.5q3.5 81.5 17 152.5t55 129.5t106.5 100t171.5 64.5t249.5 23q96 0 176 -10.5t139.5 -29t105.5 -48t77 -62.5t51.5 -78t31 -88.5t13.5 -100t0.5 -107.5t-8.5 -115q-9 -84 -19.5 -147t-31 -133t-48.5 -120t-72.5 -97.5t-102.5 -77t-139 -47t-181 -17.5 t-181 17.5t-138 47t-101 77t-71.5 97.5t-46.5 120t-29 133t-17 147q-11 88 -7.5 169.5zM319.5 759q-2.5 -49 4.5 -102q6 -72 15.5 -122t33 -103t59.5 -85t97 -52.5t145 -20.5t145 20.5t97.5 52.5t60.5 85.5t34.5 102.5t18.5 122q7 53 5.5 102t-9.5 91.5t-32.5 77.5t-63 60 t-102 38.5t-148.5 13.5q-86 0 -150 -13.5t-103 -38.5t-64 -60t-33 -77.5t-10.5 -91.5zM556.5 624.5q-8.5 23.5 8.5 67.5q14 27 31 38t31.5 7.5t25.5 -16.5q9 -11 19 -42t20.5 -45t26.5 -1q11 6 7 20.5t-12 25.5t-18.5 28.5t-13.5 29.5q-7 28 9 47t57 19q42 0 57.5 -19.5 t7.5 -46.5q-5 -15 -18 -33t-21.5 -27.5t-12 -23.5t10.5 -22q14 -12 23.5 3.5t19.5 44.5t19 38q52 45 90 -23q20 -42 12 -66.5t-33 -31.5q-12 -4 -40 2t-46 5t-18 -19q0 -15 19.5 -18t41.5 1t39 0q25 -7 32.5 -27.5t-11.5 -64.5q-14 -27 -30 -38.5t-28.5 -9.5t-23.5 13 q-10 10 -20.5 43t-22 51.5t-27.5 6.5q-14 -7 -9.5 -21.5t14 -26.5t21.5 -28.5t15 -28.5q5 -28 -10 -46.5t-56 -18.5q-42 0 -58.5 20t-6.5 45q4 12 15.5 29.5t20 29t12 26t-8.5 20.5q-16 12 -24.5 -3t-17 -45.5t-20.5 -43.5q-11 -12 -24 -15.5t-29 7t-31 36.5q-41 73 15 92 q10 4 39 -1t48.5 -2.5t18.5 22.5q-1 13 -12 15t-24.5 -2t-33 -7t-32.5 0q-25 7 -33.5 30.5z" />
<glyph unicode="1" horiz-adv-x="1048" d="M82 734.5q3 81.5 13.5 152.5t43 129.5t82.5 100t132.5 64.5t193.5 23q96 0 170 -17.5t124 -47t84 -77t52 -97.5t24.5 -120t5.5 -133t-8 -147q-7 -85 -15 -147.5t-24 -133t-37.5 -120t-55.5 -97.5t-78.5 -77t-107.5 -46.5t-140 -17.5q-78 0 -140.5 17.5t-107.5 46.5 t-79 76.5t-55 97.5t-36 120t-22.5 133.5t-12.5 147.5q-9 88 -6 169.5zM270 764l13 -227q45 7 78 10.5t65.5 4t54 -2.5t42 -11t33 -20.5t23.5 -32t16 -43.5t8 -58t2.5 -73t-3.5 -90q23 17 127 -6q-5 172 -0.5 402.5t12.5 349.5q-192 0 -268 -6q-4 -35 -12 -63t-16.5 -47 t-23.5 -33.5t-24.5 -22t-30 -14t-30 -8t-34 -5t-32.5 -4.5zM293.5 375.5q5.5 -13.5 21.5 -17.5q9 -2 18.5 -1t18.5 2.5t16 2.5t11.5 -0.5t5.5 -7.5q1 -11 -12 -12t-33 1.5t-27 0.5q-15 -3 -19 -15t9 -36q14 -23 31 -26t26 9q8 7 13.5 24t11 25.5t16.5 2.5q6 -3 6 -8.5 t-4 -11.5t-9.5 -12t-11 -14t-7.5 -14q-5 -14 6 -25.5t39 -11.5q27 0 37.5 11t5.5 26q-1 6 -6.5 14t-11.5 14t-10.5 12.5t-4.5 11t6 8.5q11 7 18.5 -3.5t14.5 -29t14 -23.5q29 -25 56 19q24 43 -15 51q-11 3 -26 0.5t-28 -1t-13 10.5q0 10 12.5 10.5t31 -2.5t25.5 -2 q17 5 22.5 19t-7.5 39q-14 21 -32.5 22t-27.5 -10q-6 -5 -12.5 -21t-13 -25t-15.5 -3q-7 5 -8 10t3.5 10.5t10.5 11t12 13.5t9 16q5 14 -6 24.5t-39 10.5q-27 0 -37.5 -10.5t-7.5 -24.5q2 -6 7.5 -14t10.5 -13.5t9 -12t4 -11t-5 -8.5q-12 -8 -19.5 0t-14 25.5t-11.5 23.5 q-8 12 -26.5 9.5t-30.5 -25.5q-13 -25 -7.5 -38.5z" />
<glyph unicode="2" d="M82.5 805.5q3.5 81.5 17 152.5t55 129.5t106.5 99.5t171.5 64t249.5 23q97 0 176 -10.5t139 -29t106 -48t77 -62t51.5 -77.5t31 -88.5t13.5 -100.5t0.5 -107.5t-8.5 -115.5q-9 -84 -19.5 -147t-31 -133t-48.5 -120t-72.5 -97.5t-102.5 -77t-139 -47t-181 -17.5t-181 17.5 t-138 47t-101 77t-71.5 97.5t-46.5 120t-29 133t-17 147q-11 89 -7.5 170.5zM338 653l15 6t42 14t63 15t79 10.5t90 -0.5q-3 15 -0.5 30.5t9.5 29t28.5 22t56.5 8.5q53 0 74.5 -18t19.5 -49q-5 -98 -242 -98q-47 0 -74.5 -2t-58.5 -9.5t-47 -22.5t-25.5 -42.5t-7.5 -67.5 q11 -137 -16 -205q37 0 145.5 1.5t165.5 1.5t139.5 -0.5t138 -4t91.5 -10.5q-2 10 -4 27.5t-6 71.5t0 96q-66 -9 -140 -13.5t-120 -4.5t-99 1.5t-57 1.5q-41 0 -61 6.5t-21 30.5q-1 27 15.5 33t80.5 8q39 1 64 2q74 3 120 8.5t94 19t75 36t46.5 61.5t24.5 94q9 88 -14.5 150 t-57.5 92t-98 46t-102.5 18t-104.5 2h-2q-77 0 -135 -15v-4q-3 -8 -10 -17t-13.5 -15t-11 -12.5t-4 -12t8.5 -10.5q10 -7 17 3.5t14.5 28.5t15.5 23q9 13 29 11.5t36 -25.5q15 -27 9 -43t-23 -21q-9 -2 -30.5 1.5t-35 3.5t-12.5 -11q0 -10 14.5 -12t31 0.5t28.5 -0.5 q43 -8 16 -58q-30 -49 -63 -20q-7 5 -14.5 25t-16 32.5t-21.5 5.5q-10 -11 -4.5 -19t19.5 -23.5t16 -24.5q5 -17 -6.5 -29t-42.5 -12q-32 0 -44 12t-5 29q3 7 9.5 15t12.5 14.5t11 13.5t4.5 12.5t-6.5 9.5q-13 7 -19.5 -2.5t-13 -28t-15.5 -26.5q-32 -28 -63 18 q-19 -82 -2 -213zM362 926q7 0 28.5 -3t31 -0.5t8.5 13.5q0 9 -7.5 10t-24.5 -2.5t-27 -3.5q-1 -3 -4.5 -8t-4.5 -6zM418 989q16 -37 33 -24q13 7 -8 35q-2 3 -3 4q-14 -7 -22 -15z" />
<glyph unicode="3" d="M82.5 779.5q3.5 81.5 17 152.5t55 129.5t106.5 100t171.5 64.5t249.5 23q96 0 176 -10.5t139.5 -29t105.5 -48t77 -62.5t51.5 -78t31 -88.5t13.5 -100t0.5 -107.5t-8.5 -115q-9 -84 -19.5 -147.5t-31 -133.5t-48.5 -120t-72.5 -97.5t-102.5 -76.5t-139 -46.5t-181 -17.5 t-181 17.5t-138.5 46.5t-101 76.5t-71 97.5t-46.5 120t-29 133.5t-17 147.5q-11 88 -7.5 169.5zM330 461q1 -57 18.5 -97.5t45 -64t75.5 -37t96 -17.5t121 -5q146 -2 217 44t78 160q2 54 -30 100t-91 46q-9 0 -13 9t-1 18.5t12 9.5q67 0 101.5 28t41.5 93q6 59 -2.5 105.5 t-25 77t-46.5 52t-58 33t-69 17.5t-69.5 7.5t-68.5 1.5q-97 0 -168 -22q23 -12 16 -37q-4 -10 -13.5 -22.5t-16 -19t-9 -16t7.5 -14.5q10 -7 17 3.5t14 29.5t14 25q37 32 66 -15q15 -29 9 -45.5t-24 -21.5q-9 -2 -29 2t-33 4t-13 -12q0 -11 14 -13t30 0.5t29 -0.5 q40 -12 15 -61q-14 -26 -32.5 -30.5t-29.5 7.5q-7 7 -14 29t-15 34.5t-20 4.5q-10 -4 -7 -14t10 -17.5t15.5 -19t10.5 -19.5q5 -19 -6 -31t-41 -12t-42 13t-7 30q3 8 11.5 19.5t14.5 19t9 17.5t-5 14q-12 7 -18.5 -2.5t-13 -29.5t-13.5 -29q-9 -11 -23.5 -11t-27.5 13 q-3 -52 8 -134q6 1 16.5 2.5t43 5t65.5 5.5t79.5 2t88.5 -4q0 3 -1.5 18.5t-1 22t1.5 20.5t5.5 21t11.5 15.5t20 12.5t30 4q52 -1 73 -19t19 -50q-1 -42 -16.5 -61.5t-61 -31t-143.5 -16.5q-31 -1 -44.5 -23t-0.5 -44t47 -23q54 0 86 -1.5t62.5 -7t45.5 -15.5t23.5 -27 t7.5 -43q-3 -62 -100 -62q-43 0 -67 27t-19 62q-53 -1 -126 2t-120 7zM354 872q6 0 17 -1.5t19 -2t16 0t12.5 4t3.5 10.5t-4.5 9.5t-10.5 2t-14.5 -2l-17.5 -3.5t-17 -2q0 -7 -4 -15zM399 961q2 -5 4.5 -12t4.5 -12t4.5 -11t5.5 -9.5t6 -5.5t7 -1.5t9 3.5q8 3 5.5 12.5 t-6.5 15.5t-12 17.5t-11 18.5q-14 -14 -17 -16z" />
<glyph unicode="4" d="M82.5 773.5q3.5 81.5 17 152.5t55 129.5t106.5 100t171.5 64.5t249.5 23q96 0 176 -10.5t139.5 -29t105.5 -48t77 -62.5t51.5 -78t31 -88.5t13.5 -100t0.5 -107.5t-8.5 -115q-9 -84 -19.5 -147.5t-31 -133.5t-48.5 -120t-72.5 -97.5t-102.5 -76.5t-139 -46.5t-181 -17.5 t-181 17.5t-138.5 46.5t-101 76.5t-71 97.5t-46.5 120t-29 133.5t-17 147.5q-11 88 -7.5 169.5zM305 338q209 25 273 22q108 -6 133 -72q15 -42 4 -114q35 4 56 3.5t31 -3.5l9 -2q-10 50 -1.5 85t30 52t51.5 26.5t65 7.5t70 -5q-11 40 -11 90t5 80l6 31q-61 -26 -79 -24 q-36 5 -36 83q0 118 3.5 220t6.5 145l3 43q-56 -13 -106.5 -13t-73.5 7l-23 6q-7 -11 -20.5 -29t-56.5 -70.5t-89 -99.5t-114.5 -103t-135.5 -94q7 -37 7 -105t-4 -117zM492.5 519.5q4.5 14.5 25.5 19.5q7 2 18 0.5t23.5 -3t22.5 -2t16.5 3t5.5 11.5q-1 11 -13.5 11 t-35 -3.5t-35.5 -1.5q-20 3 -27 19t9 44q16 26 38 29.5t33 -10.5q6 -7 14 -27t17 -29t23 -1q6 5 6.5 10t-5 12.5t-11.5 14t-12.5 15t-8.5 15.5q-5 17 7.5 30t45.5 13q34 0 48.5 -13t7.5 -30q-3 -8 -10.5 -17t-14.5 -15.5t-12.5 -13t-4.5 -12.5t9 -11q11 -7 18.5 3.5t15 29 t15.5 24.5q43 29 74 -17q18 -27 11 -42.5t-28 -20.5q-10 -2 -33 1.5t-38 3t-15 -12.5q0 -10 16 -11.5t35 1.5t33 0q47 -12 17 -60q-34 -50 -70 -22q-7 6 -15 26.5t-17 33t-23 5.5q-8 -4 -8.5 -10.5t5.5 -13.5t13 -14t13.5 -15.5t8.5 -15.5q5 -17 -7 -29t-46 -12t-48 13 t-7 28q3 7 10.5 16t13.5 15.5t11.5 13.5t5 12.5t-7.5 9.5q-13 8 -19.5 -1.5t-14.5 -29t-18 -28.5q-33 -29 -67 18q-18 28 -13.5 42.5z" />
<glyph unicode="5" d="M82.5 798.5q3.5 81.5 17 152.5t55 129.5t106.5 100t171.5 64.5t249.5 23q96 0 176 -10.5t139.5 -29t105.5 -48t77 -62.5t51.5 -78t31 -88.5t13.5 -100t0.5 -107.5t-8.5 -115q-9 -84 -19.5 -147t-31 -133t-48.5 -120t-72.5 -97.5t-102.5 -77t-139 -47t-181 -17.5 t-181 17.5t-138 47t-101 77t-71.5 97.5t-46.5 120t-29 133t-17 147q-11 88 -7.5 169.5zM339.5 450.5q-0.5 -24.5 3 -48.5t8.5 -46t16 -42t26.5 -37.5t40 -31.5t55.5 -23.5t73.5 -15t94.5 -5.5q157 0 225 17q157 40 156 194q-1 58 -15.5 96.5t-39 62.5t-72 37t-99 17.5 t-136.5 5.5h-43q-89 1 -104 10q-14 8 -13 33q3 24 22 30.5t60 6.5q4 0 57.5 1.5t99 1.5t119.5 -4.5t140 -13.5q-3 45 0 118t8 123l4 50q-57 -11 -180 -14q10 -24 2 -38t-27 -17q-10 -3 -33.5 0.5t-39 3t-15.5 -12.5q0 -11 16.5 -13t36 1t33.5 0q50 -12 17 -63 q-16 -27 -37 -32.5t-33 7.5q-9 7 -17.5 29.5t-17 35.5t-22.5 5q-8 -4 -8.5 -11t5.5 -14.5t13 -15t13.5 -16t8.5 -15.5q5 -20 -7.5 -32.5t-47.5 -12.5t-48.5 13t-6.5 32q3 7 10.5 16t14 16.5t12 15t5.5 13.5t-7 11q-14 8 -21.5 -2.5t-15 -31.5t-17.5 -30q-11 -14 -31.5 -10 t-39.5 31q-18 28 -12.5 43t26.5 20q7 3 18 1.5t24 -3t23.5 -2t17 3t5.5 12.5q-1 8 -6.5 10.5t-14.5 1t-20 -3.5t-22.5 -4t-22.5 0q-19 3 -27.5 19t0.5 39q-32 0 -94 1t-90 1q10 -26 15.5 -126t0.5 -175q-2 -34 2.5 -58t19 -39.5t30.5 -25t44.5 -13.5t52 -5t62.5 -1 q106 0 159 -10.5t68.5 -30t14.5 -57.5q0 -33 -20.5 -51t-73.5 -18q-35 0 -56 7.5t-28.5 23.5t-9 27.5t-0.5 31.5q-69 -6 -141 5t-109 26l-37 14q0 -25 -0.5 -49.5zM629 971q5 -13 8.5 -19t11.5 -11.5t17 3.5q15 8 0 27h-37zM711 971q-15 -19 2 -29q7 -2 10.5 -3.5t8.5 6 t7 12t6 14.5h-34z" />
<glyph unicode="6" d="M82.5 715.5q3.5 81.5 17 152.5t55 129.5t106.5 99.5t171.5 64t249.5 23q97 0 176 -10.5t139 -29t106 -48t77 -62t51.5 -77.5t31 -88.5t13.5 -100.5t0.5 -107.5t-8.5 -115.5q-9 -84 -19.5 -147t-31 -133t-48.5 -120t-72.5 -97.5t-102.5 -77t-139 -47t-181 -17.5t-181 17.5 t-138 47t-101 77t-71.5 97.5t-46.5 120t-29 133t-17 147q-11 89 -7.5 170.5zM305 641q-1 -54 0.5 -95t9.5 -87.5t23 -80t42 -66t66 -52.5t95.5 -32.5t128.5 -12.5q192 0 277 63.5t85 221.5q0 108 -73.5 147t-268.5 45q-102 3 -147 9.5t-59.5 18t-16.5 38.5q-3 41 19 58.5 t77 17.5q48 1 62.5 -20.5t11.5 -63.5q93 16 360 -17q1 144 -82 201t-284 57q-82 0 -141 -17.5t-94 -45.5t-55.5 -75t-27.5 -95t-8 -117zM430.5 539q-7.5 14 5.5 39q16 22 37.5 24t32.5 -10q6 -5 14 -22t16 -24.5t21 -0.5q6 3 6.5 8t-4.5 11t-11 11.5t-12 13t-8 13.5 q-5 15 7 25t45 10q22 0 36.5 -5.5t17 -13.5t-0.5 -16q-3 -7 -10.5 -14.5t-14 -13t-12 -11t-5 -10.5t8.5 -10q11 -6 18.5 3t15 24t15.5 20q38 28 70 -12q16 -24 9.5 -37.5t-26.5 -18.5q-9 -1 -31 2t-36 2.5t-14 -10.5q0 -8 13.5 -9t35 0.5t30.5 0.5q20 -3 26 -15t-9 -36 q-16 -22 -35.5 -26t-30.5 7q-7 5 -15 23t-17 28.5t-23 4.5q-7 -5 -7.5 -9.5t5.5 -11t13 -12.5t13.5 -13t8.5 -12q3 -16 -8.5 -26.5t-42.5 -10.5q-33 0 -47 11t-7 26q3 5 9.5 12.5t13 13t12 12.5t5 11.5t-6.5 8.5q-14 6 -20.5 -2.5t-13 -25.5t-15.5 -24q-34 -25 -68 17 q-32 39 13 51q8 2 31 -1t38.5 -2.5t14.5 11.5q-1 10 -13 10t-33.5 -4t-33.5 -2q-19 3 -26.5 17z" />
<glyph unicode="7" d="M82.5 792.5q3.5 81.5 17 152.5t55 129.5t106.5 100t171.5 64.5t249.5 23q96 0 176 -10.5t139.5 -29t105.5 -48t77 -62.5t51.5 -78t31 -88.5t13.5 -100t0.5 -107.5t-8.5 -115q-9 -84 -19.5 -147t-31 -133t-48.5 -120t-72.5 -97.5t-102.5 -77t-139 -47t-181 -17.5 t-181 17.5t-138 47t-101 77t-71.5 97.5t-46.5 120t-29 133t-17 147q-11 88 -7.5 169.5zM358 983q-6 -193 17 -369q123 15 221 15q74 0 103.5 -10t29.5 -39q0 -34 -25 -46.5t-110 -19.5q-81 -7 -120 -41.5t-43 -92.5t1 -140q28 2 67 3.5t139 4t120 -3.5q-2 116 -2 147 q2 57 17 79t69 26q27 2 46 5t37 9.5t29 15t21.5 23t16 32.5t10.5 45.5t7.5 58.5t4 75t2.5 93t2 113v5q-89 -6 -189 -6q17 -30 10.5 -47.5t-28.5 -22.5q-10 -2 -33.5 2t-39 3.5t-15.5 -13.5q0 -11 15.5 -12t38.5 1.5t32 0.5q49 -12 16 -64q-33 -53 -69 -25q-9 7 -17.5 29.5 t-17.5 35.5t-23 5q-9 -4 -9 -11t5.5 -14.5t13 -15t14.5 -17t9 -16.5q5 -20 -7.5 -32.5t-47.5 -12.5q-34 0 -48 14t-7 31q3 7 10 16.5t13.5 16.5t12 15.5t5.5 14t-7 11.5q-15 8 -22 -2t-14.5 -32t-16.5 -31q-10 -13 -31.5 -9.5t-40.5 29.5q-34 50 13 66q9 2 33.5 -1.5t41 -2 t15.5 15.5q-1 7 -6.5 9.5t-14.5 1t-20 -3.5t-22.5 -3.5t-22.5 0.5q-21 3 -28.5 20.5t7.5 47.5q2 4 6 8zM610 969q2 -5 5 -12t4.5 -12t4.5 -11t6 -9t6.5 -5.5t8 -1.5t10.5 4q14 9 -7 36q-1 1 -3 4l-4 5zM692 930q2 -5 8 -10q7 -2 11 -3t9 6t7.5 12t7 15t6.5 15h-26l-12 -12 t-8 -10.5t-3 -12.5z" />
<glyph unicode="8" d="M82.5 779.5q3.5 81.5 17 152.5t55 129.5t106.5 100t171.5 64.5t249.5 23q96 0 176 -10.5t139.5 -29t105.5 -48t77 -62.5t51.5 -78t31 -88.5t13.5 -100t0.5 -107.5t-8.5 -115q-9 -84 -19.5 -147.5t-31 -133.5t-48.5 -120t-72.5 -97.5t-102.5 -76.5t-139 -46.5t-181 -17.5 t-181 17.5t-138.5 46.5t-101 76.5t-71 97.5t-46.5 120t-29 133.5t-17 147.5q-11 88 -7.5 169.5zM315 760q3 -52 14.5 -89.5t25.5 -57.5t34.5 -31.5t36 -15t35.5 -6.5q7 -1 10 -1q18 -3 18 -20t-18 -17q-116 0 -109 -143q2 -30 13 -53t32 -37t43.5 -22.5t58.5 -12.5t64.5 -5 t73.5 -1q55 0 87.5 0.5t75.5 3t67.5 8t52 15t42 23t25 34t11.5 47.5q5 143 -109 143q-18 0 -18 17t18 20q55 8 76 19q71 39 80 182q9 148 -79.5 203t-311.5 55q-191 0 -274.5 -56.5t-74.5 -201.5zM452 728q-6 11 7 30q12 17 31 19t28 -7q5 -5 11.5 -18.5t14 -19.5t19.5 -1 q5 4 5 7t-4 8.5t-9 10t-10.5 10.5t-7.5 11q-2 7 1 12.5t14.5 10t29.5 4.5q19 0 31.5 -4.5t14.5 -10.5t-1 -12t-9 -12.5t-12 -11t-10.5 -9t-3.5 -8.5t8 -8q9 -4 15.5 3t13.5 19.5t14 16.5q32 23 59 -10q14 -19 9 -29t-21 -14q-8 -1 -27.5 1t-32 1.5t-12.5 -8.5q0 -6 13 -7 t28.5 0.5t26.5 -0.5q40 -8 14 -40q-25 -35 -57 -15q-6 4 -12.5 18t-14.5 22t-20 3q-9 -7 -4 -12.5t18 -16t15 -16.5q3 -12 -7 -20.5t-38 -8.5q-20 0 -32 4.5t-14 11t1 13.5q2 4 7.5 9.5t11 10.5t9.5 9.5t4 8.5t-6 7q-11 5 -16.5 -1.5t-11 -20t-13.5 -19.5q-27 -19 -59 15 q-26 30 10 38q12 3 28.5 1t31.5 -1t14 9q-1 7 -11.5 7t-29 -2.5t-29.5 -0.5q-17 2 -23 13zM591.5 482q-5.5 13 6.5 36q12 20 30 22.5t27 -8.5q5 -5 11 -21.5t13.5 -23.5t18.5 0q6 8 2.5 14t-14 19.5t-12.5 20.5q-5 13 5.5 23.5t37.5 10.5t37.5 -10.5t5.5 -23.5q-3 -7 -9 -14 t-11.5 -12.5t-10 -11t-4 -10t7.5 -8.5q9 -6 15 2t12 23t12 20q34 24 59 -12q13 -22 8 -35t-22 -16q-8 -2 -25.5 0.5t-29.5 2.5t-12 -9q0 -8 12 -9t29.5 0.5t23.5 0.5q36 -12 14 -50q-13 -20 -29 -23.5t-26 7.5q-6 4 -12.5 21t-14 26.5t-18.5 3.5q-6 -4 -6 -8t4.5 -10.5 t10.5 -12t11.5 -12.5t6.5 -12q3 -14 -6.5 -23.5t-36.5 -9.5t-37.5 10.5t-5.5 22.5q2 5 7.5 12t11 12.5t9.5 11.5t4 11t-6 8q-11 6 -16.5 -2t-11 -24t-13.5 -23q-8 -9 -24.5 -6t-30.5 23q-26 37 10 49q6 1 25.5 -1.5t32.5 -1.5t12 11q-1 6 -5.5 7.5t-11 0.5t-15 -2.5 t-17.5 -2.5t-17 1q-17 2 -22.5 15z" />
<glyph unicode="9" d="M82.5 785.5q3.5 81.5 17 152.5t55 129.5t106.5 100t171.5 64.5t249.5 23q96 0 176 -10.5t139.5 -29t105.5 -48t77 -62.5t51.5 -78t31 -88.5t13.5 -100t0.5 -107.5t-8.5 -115q-9 -84 -19.5 -147t-31 -133t-48.5 -120t-72.5 -97.5t-102.5 -77t-139 -47t-181 -17.5 t-181 17.5t-138 47t-101 77t-71.5 97.5t-46.5 120t-29 133t-17 147q-11 88 -7.5 169.5zM330 477q4 -54 17 -94t38 -67t55.5 -44t78.5 -26t96.5 -12t119.5 -3q82 0 141 16.5t94 43.5t55.5 72t27.5 91t8 111q1 52 -0.5 90.5t-9.5 83.5t-23 76.5t-42 63t-66 50.5t-95.5 30.5 t-128.5 11.5q-189 0 -270 -81t-55 -247q4 -30 9.5 -48t21 -33t31.5 -22t55.5 -12.5t77 -7.5t110.5 -4q104 -3 147.5 -8.5t58.5 -17t17 -37.5q3 -40 -18.5 -56t-77.5 -16q-49 0 -63 20t-11 62q-111 -21 -399 14zM670.5 668.5q4.5 10.5 21.5 13.5q12 3 29.5 0t33.5 -2t15 10 q-1 8 -12.5 8t-31.5 -3t-32 -1q-17 2 -23 14.5t7 32.5q14 19 34 21t29 -8q6 -5 13.5 -19.5t15.5 -21t21 -0.5q5 4 5 7.5t-5 9t-10 10.5l-11 11t-8 11q-5 14 6.5 23.5t42.5 9.5q30 0 42 -10t5 -23q-3 -6 -9.5 -12.5t-13 -11.5t-11 -9.5t-4 -9t8.5 -8.5q10 -5 17 2.5t14 22 t14 18.5q36 22 66 -13q15 -21 9.5 -32t-23.5 -15q-9 -1 -30 1.5t-34.5 2t-13.5 -9.5q0 -7 14.5 -8t31 1t28.5 -1q43 -9 14 -43q-14 -19 -32 -22t-27 6q-7 4 -15 20t-16 24.5t-21 2.5q-15 -6 6 -24q23 -19 25 -26q3 -13 -8 -21.5t-41 -8.5q-20 0 -33 4.5t-15 11.5t1 14 q2 5 8 11t12 11.5t10.5 10.5t4 9.5t-6.5 7.5q-12 5 -18 -2t-12 -21t-15 -20q-30 -22 -61 12q-16 21 -11.5 31.5z" />
<glyph unicode=":" horiz-adv-x="972" d="M82.5 734.5q2.5 81.5 12 152.5t39 129.5t76 100t122.5 64.5t178 23t177 -23t121 -64.5t75.5 -100t38.5 -129.5t11 -152.5t-7 -169.5q-6 -84 -14 -147.5t-22.5 -133.5t-34.5 -120t-51.5 -97.5t-72.5 -76.5t-98.5 -46.5t-128.5 -17.5q-63 0 -114.5 12.5t-91 38t-70 58 t-52.5 79t-37 93.5t-25.5 109.5t-16 119t-9.5 129.5q-8 88 -5.5 169.5zM310 357q-5 -17 14 -48q20 -29 41.5 -32.5t33.5 12.5q10 9 18 31.5t16.5 33.5t23.5 2q8 -5 8 -11.5t-6 -14.5t-13 -16t-15 -17.5t-11 -17.5q-8 -19 7 -34.5t52 -15.5t51 14.5t9 35.5q-2 8 -9.5 18 t-15 17.5t-14.5 16.5t-7 15t9 12q15 8 25 -6.5t19.5 -38t18.5 -30.5q12 -14 34.5 -9.5t39.5 33.5q18 33 11.5 49t-29.5 21q-10 2 -34.5 -0.5t-40.5 -1t-16 13.5q0 14 16.5 14.5t42 -4t36.5 -2.5q23 5 30 24t-12 52q-37 52 -82 16q-9 -7 -17.5 -28t-16.5 -33t-21 -4 q-12 6 -9 17t10.5 18.5t19.5 21t16 25.5q8 19 -7.5 33t-52.5 14t-51.5 -14t-7.5 -33q3 -10 12.5 -23.5t16.5 -22t10.5 -19.5t-6.5 -15q-15 -10 -24 1t-18.5 34t-17.5 31q-9 10 -22 12.5t-28.5 -5.5t-27.5 -28q-17 -33 -9 -51t30 -23q15 -3 39.5 1.5t38 5t14.5 -12.5 q1 -9 -6 -13t-18.5 -3t-24.5 2.5t-25 3t-20 -1.5q-23 -5 -28 -22zM333.5 833.5q7.5 -17.5 28.5 -20.5q14 -3 36.5 1t36 4.5t14.5 -11.5q1 -14 -16 -15t-41.5 2.5t-33.5 0.5q-48 -12 -12 -64t72 -20q9 9 16.5 30t14 31t20.5 2q8 -4 8 -10t-5 -13.5t-12 -15t-14 -17t-10 -16.5 q-8 -19 6 -32t50 -13q34 0 47 13t8 32q-2 7 -9 16t-14.5 16.5t-13.5 15.5t-6 14t8 12q14 8 23.5 -5.5t18 -35.5t17.5 -28q12 -14 32.5 -9.5t37.5 31.5q16 30 10 44.5t-26 19.5q-15 3 -34 0t-35.5 -1t-16.5 13q0 13 15.5 13.5t39 -3.5t33.5 -2q21 5 27.5 22.5t-11.5 47.5 q-17 25 -39.5 26.5t-34.5 -12.5q-9 -6 -17 -25.5t-16 -30.5t-20 -3q-8 6 -9 12t4.5 13t12.5 13.5t15 16t12 18.5q7 19 -6.5 32t-48.5 13q-36 0 -49.5 -13t-8.5 -32q3 -7 9.5 -16.5t13 -16.5t12 -15t5 -13t-6.5 -10q-15 -9 -23.5 1t-16.5 30.5t-15 27.5q-11 16 -34 12.5 t-40 -30.5q-16 -30 -8.5 -47.5z" />
<glyph unicode=";" horiz-adv-x="1017" d="M82.5 758q2.5 88 12.5 165t41.5 139.5t80 107.5t128.5 69.5t187 24.5t186.5 -24.5t128 -69.5t79.5 -107.5t40.5 -139.5t11.5 -165t-7 -183q-5 -69 -11 -123.5t-16 -115.5t-22.5 -107.5t-31 -95t-42 -83.5t-56 -67t-71 -51.5t-88.5 -31t-109 -11.5q-75 0 -135 19t-103 50 t-75.5 82t-53 105t-35 129t-22 143t-12.5 158q-8 95 -5.5 183zM319 416q1 -37 6.5 -61.5t21.5 -48t49 -35t85 -11.5q33 0 53 -19t22.5 -60.5t-28.5 -106.5q16 3 42.5 3.5t45.5 -0.5l19 -1q10 14 24 38.5t38 92t24 125.5q0 59 -6.5 97t-26 72.5t-61.5 51t-107 16.5 t-107 -11.5t-62 -34.5t-26.5 -47t-5.5 -60zM339 789q-6 -17 15 -50q21 -31 47 -35.5t39 11.5q12 11 21 36t18 36t25 1q9 -5 9 -11.5t-6 -15t-14.5 -17.5t-17 -19.5t-12.5 -19.5q-8 -21 8 -36.5t59 -15.5q41 0 57 15.5t11 36.5q-2 8 -11 19t-18 19t-16.5 18t-7.5 16.5 t10 13.5q17 9 28 -6t21.5 -41t20.5 -33q16 -16 41 -10.5t45 36.5q37 58 -21 74q-11 2 -38.5 -0.5t-45.5 -1t-18 13.5q-1 15 17.5 15.5t47.5 -3.5t41 -1q25 5 33 25t-12 54q-42 54 -92 19q-9 -7 -19 -30.5t-19.5 -36t-23.5 -3.5q-10 7 -11.5 14t5 15t15 16t18.5 19.5t14 21.5 q8 21 -8.5 36t-58.5 15t-58.5 -15t-9.5 -36q3 -9 10.5 -20t15 -19t14 -17.5t6.5 -15t-7 -12.5q-17 -11 -28 0.5t-21 36t-19 33.5q-13 17 -40.5 12.5t-47.5 -35.5q-19 -34 -10 -54t35 -23q16 -3 43 2t42.5 5t16.5 -14q1 -10 -7 -14t-20.5 -3.5t-27.5 2t-28.5 3t-22.5 -1.5 q-26 -7 -32 -24z" />
<glyph unicode="&#x3c;" horiz-adv-x="733" d="M82 734.5q2 81.5 9 152.5t28.5 129.5t54.5 100t87.5 64.5t127.5 23q87 0 147.5 -32.5t92 -91t48 -138.5t16 -175.5t-4.5 -201.5q-4 -84 -9.5 -147.5t-16 -133.5t-24.5 -120t-37 -97.5t-52.5 -76.5t-71 -46.5t-92.5 -17.5t-92.5 17.5t-71 46.5t-51.5 76.5t-36 97.5 t-24 120t-15 133.5t-9 147.5q-6 88 -4 169.5zM232 623q0 -42 4 -88q4 -36 7.5 -57.5t11.5 -49.5t18.5 -44.5t29 -35t43.5 -27.5t61 -15.5t82 -6.5q6 59 -2 96q-50 0 -75.5 27.5t-34.5 89.5q-7 50 17 82t87 31q17 114 19 194q-74 0 -127.5 -15t-81.5 -41t-43.5 -62t-15.5 -78 z" />
<glyph unicode="=" horiz-adv-x="1077" d="M82 753.5q3 81.5 14 152.5t44.5 129.5t85.5 100t137.5 64.5t199.5 23t199 -23t136.5 -64.5t84 -100t43 -129.5t12.5 -152.5t-8 -169.5q-7 -84 -15.5 -147t-25 -133t-39 -120t-58 -97.5t-82 -77t-111 -47t-144.5 -17.5t-144.5 17.5t-110.5 47t-81 77t-57 97.5t-37.5 120 t-23 133t-13.5 147q-9 88 -6 169.5zM289 397q2 -37 11 -61.5t34.5 -47.5t77 -34.5t129.5 -11.5q79 0 131 11.5t77 34.5t34 48t10 61q1 37 -7 61.5t-32.5 47.5t-77.5 34t-135 11t-135 -11t-77.5 -34t-32.5 -47.5t-7 -61.5zM289 815q2 -36 11 -60.5t34.5 -47.5t77 -34 t129.5 -11q79 0 131 11t77 34t34 47.5t10 60.5q1 37 -7 61.5t-32.5 48t-77.5 35t-135 11.5t-135 -11.5t-77.5 -35t-32.5 -48t-7 -61.5z" />
<glyph unicode="&#x3e;" horiz-adv-x="733" d="M82 734.5q2 81.5 9 152.5t28.5 129.5t54.5 100t87.5 64.5t127.5 23q87 0 147.5 -32.5t92 -91t48 -138.5t16 -175.5t-4.5 -201.5q-4 -84 -9.5 -147.5t-16 -133.5t-24.5 -120t-37 -97.5t-52.5 -76.5t-71 -46.5t-92.5 -17.5t-92.5 17.5t-71 46.5t-51.5 76.5t-36 97.5 t-24 120t-15 133.5t-9 147.5q-6 88 -4 169.5zM252 827q1 -36 6 -86t10 -82l4 -32q62 1 86 -30.5t17 -80.5q-7 -60 -32.5 -85t-76.5 -25q-4 -16 -4.5 -39.5t0.5 -38.5l2 -15q46 0 82 6t61 15.5t43.5 27.5t29.5 34.5t19 44t11.5 48.5t7.5 56q10 56 2 107t-32 90t-84 62 t-152 23z" />
<glyph unicode="?" horiz-adv-x="1183" d="M81.5 737.5q-0.5 63.5 8.5 133.5t30 120t60.5 97.5t97 76.5t142.5 46.5t194 17.5t194 -17.5t142.5 -46.5t96.5 -76.5t59.5 -97.5t28.5 -120t7 -133.5t-9 -147.5q-7 -84 -16.5 -147t-27.5 -133t-43 -120t-64.5 -97.5t-91 -77t-123.5 -47t-161 -17.5t-160 17.5t-122 47 t-90 77t-63 97.5t-41.5 120t-26 133t-15.5 147q-6 84 -6.5 147.5zM309 725q16 4 42.5 10t93.5 13.5t116 3.5q0 59 86 59q39 0 59.5 -16t18.5 -39q-1 -18 -5 -27t-21 -16.5t-50 -7.5q-45 1 -75.5 -14t-41.5 -36t-16 -42.5t-4 -36.5l2 -15q5 -2 14 -3.5t39.5 -3.5t59.5 5 q2 26 23 40.5t77 14.5q22 0 44.5 7t47.5 23t42.5 49t21.5 79q3 37 -1.5 68.5t-13.5 53.5t-27.5 40t-34 29t-41.5 18.5t-43 11.5t-46.5 6t-43 2h-40.5q-164 0 -231.5 -72.5t-51.5 -203.5zM376.5 361.5q9.5 -20.5 37.5 -23.5q17 -3 45 2t44.5 5.5t18.5 -13.5q1 -10 -7 -15 t-21.5 -4t-29.5 2t-30 3t-24 -1q-62 -16 -19 -75q47 -58 92 -23q12 10 21 35t18.5 37t26.5 2q9 -5 9.5 -12.5t-6.5 -16t-15.5 -17.5t-17.5 -19.5t-13 -18.5q-10 -21 8 -36t64 -15q44 0 59 14t10 37q-2 8 -11 18.5t-18.5 19.5t-17 18t-7 16.5t10.5 13.5q17 9 29 -6.5 t23 -41.5t22 -34q12 -9 26 -10.5t30.5 7.5t31.5 30q39 59 -23 75q-11 2 -39.5 -0.5t-47.5 -1t-19 14.5q0 14 20 15t49.5 -3.5t41.5 -1.5q26 5 35 25.5t-13 54.5q-40 54 -96 18q-10 -8 -20.5 -30.5t-21 -35t-24.5 -3.5q-10 7 -11 14t5.5 15t15.5 16t19 19.5t14 21.5 q10 21 -7.5 37t-61.5 16t-61.5 -15.5t-10.5 -37.5q3 -9 11.5 -20t16.5 -19t14.5 -17.5t6.5 -15t-8 -12.5q-18 -11 -29.5 0t-22.5 35.5t-20 33.5q-11 11 -26 14t-33 -5.5t-33 -30.5q-20 -34 -10.5 -54.5z" />
<glyph unicode="@" d="M82.5 747.5q3.5 81.5 17 152.5t55 129.5t106.5 100t171.5 64.5t249.5 23q96 0 176 -10.5t139.5 -29t105.5 -48t77 -62.5t51.5 -78t31 -88.5t13.5 -100t0.5 -107.5t-8.5 -115q-9 -84 -19.5 -147t-31 -133t-48.5 -120t-72.5 -97.5t-102.5 -77t-139 -47t-181 -17.5 t-181 17.5t-138 47t-101 77t-71.5 97.5t-46.5 120t-29 133t-17 147q-11 88 -7.5 169.5zM311 716q-3 -51 4 -106q7 -74 17 -125.5t34 -105.5t61.5 -87t99.5 -54t147 -21q83 0 165.5 11t123.5 22l41 12q2 21 -0.5 49t-5.5 46l-3 18q-14 -5 -41.5 -13t-121 -21t-197.5 -13 q-68 0 -112 20t-66 61t-30 84.5t-11 110.5q-1 46 -1 87t12.5 75t34.5 58.5t65 38.5t104 14t104 -14.5t66 -37t35 -61t14 -74t0 -88.5q-2 -82 -5.5 -102t-21.5 -21q-13 -2 -18 18q-4 19 -2 107q5 97 -30 142t-134 45q-96 0 -113 -3q-46 -10 -58 -56q-6 -26 -5 -68 q121 18 188 6q0 2 0.5 5t6.5 8t16 5q37 0 37 -20q6 -13 -2 -21q-12 -8 -58 -8q-16 0 -41.5 1t-31.5 1q-46 1 -73.5 -29.5t-27.5 -81.5q0 -29 7 -51t17 -35.5t28.5 -22.5t32.5 -13t39.5 -4.5t39.5 0.5t41.5 3t36.5 3q20 1 51.5 2t49 1.5t43 3t40 6.5t34 12t30.5 19.5 t24.5 28.5t21.5 40t14.5 53.5t10.5 68.5q7 47 4.5 92t-10.5 85.5t-33.5 74.5t-64.5 58.5t-103.5 38.5t-150.5 14t-151 -14t-105 -40t-66 -62t-35 -80.5t-12 -95.5zM643 555q0 14 10 20.5t45 6.5q34 0 43 -5.5t9 -19.5q0 -15 -10 -21t-46 -6q-35 0 -44 5t-7 20z" />
<glyph unicode="A" d="M82 734q4 82 17.5 153t55 129.5t106.5 100t171.5 64.5t249.5 23q96 0 176 -10.5t139.5 -29t105.5 -48t77 -62.5t51.5 -78t31 -88.5t13.5 -99.5q2 -30 2 -60q0 -24 -1 -48q-2 -51 -9 -115q-9 -84 -19.5 -147.5t-31 -133.5t-48.5 -120t-72.5 -97.5t-102.5 -76.5t-139 -46.5 t-181 -17.5t-181 17.5t-138.5 46.5t-101 76.5t-71 97.5t-46.5 120t-29 133.5t-17 147.5q-8 67 -8 130q-1 19 0 39zM348 684q133 18 226 18q62 0 106 -8q-4 42 8 62t57 20q51 -1 73 -28.5t18 -55.5t-15 -39q-10 -9 -33.5 -14.5t-58.5 -6t-61 0t-65 2.5t-46 2h-9 q-80 1 -124 -51q-48 -54 -49 -142v-14q1 -154 65 -209q50 -43 149 -43q36 0 79 6q141 0 336 41q-13 27 -15 119q-1 31 -1 60q0 58 3 110l4 78q2 25 2 49q-1 53 -9 94q-12 59 -46.5 103.5t-100 66t-163.5 21.5q-69 0 -112 -2.5t-84.5 -11t-64.5 -24.5t-41 -43t-24 -66 q-4 -29 -4 -68v-27zM611.5 476q-6.5 12 6.5 36q14 20 34.5 22.5t29.5 -8.5q6 -6 13 -22t15 -23t21 0q5 4 5.5 7.5t-4.5 10t-10.5 12t-11.5 12.5t-8 12q-5 13 7.5 22.5t42.5 9.5t42 -9.5t7 -22.5q-3 -7 -10 -14t-13 -12.5t-11 -11t-4.5 -10t7.5 -8.5q10 -5 17 3t14 22.5 t14 19.5q15 10 29 10q20 0 37 -22q15 -22 9 -34.5t-24 -16.5q-8 -1 -29 1.5t-34 2t-12 -9.5q0 -8 14 -9.5t30 0.5t29 0q17 -3 22.5 -14t-7.5 -33q-17 -26 -38 -26q-12 0 -24 8q-7 5 -14 22t-15 26t-20 3q-8 -3 -8 -8t5 -10.5t11.5 -11t12.5 -12t8 -11.5q4 -14 -7 -24.5 t-42 -10.5q-30 0 -42.5 11t-5.5 24q3 5 9 12t12 12.5t10.5 11t4 10t-6.5 7.5q-12 6 -18 -2t-12 -23.5t-15 -21.5q-12 -10 -24 -10q-19 0 -37 24q-14 16 -14 28q0 15 24 22q8 1 29.5 -1.5t35.5 -1.5t13 11q-1 6 -5.5 7.5t-12.5 0.5t-17.5 -2.5t-19 -2.5t-19.5 1 q-19 3 -25.5 15z" />
<glyph unicode="B" d="M82 766q4 82 17.5 153t55 129t106.5 100t171.5 64.5t249.5 22.5q97 0 176 -10.5t139 -29t106 -48t77 -62t51.5 -77.5t31 -88.5t13.5 -100.5q2 -31 2 -60q0 -23 -1 -47q-2 -50 -9 -116q-9 -84 -19.5 -147t-31 -133t-48.5 -120t-72.5 -97.5t-102.5 -77t-139 -47t-181 -17.5 t-181 17.5t-138 47t-101 77t-71.5 97.5t-46.5 120t-29 133t-17 147q-8 67 -8 130q-1 20 0 40zM334 948q58 -258 58 -502q0 -84 -7 -167q240 -42 396 -42q23 0 44 1q24 1 38.5 2.5t36.5 8.5t34 20t22.5 38.5t12.5 61.5q1 12 1 23q0 32 -6 54q-8 30 -26.5 43.5t-35.5 18 t-40 4.5q-12 0 -16.5 9t0 18t16.5 10q4 1 17 3t18.5 3t19 5t20.5 8.5t18.5 12.5t18 18t15 25t14 33t9.5 42t6 53q1 16 1 30q1 114 -55 158q-55 42 -159 42q-15 0 -31 -1q-321 -21 -440 -33zM470 724q-6 11 5 30q14 17 33 19t27 -7q6 -5 13 -18.5t14.5 -19.5t19.5 -1 q7 7 2.5 12.5t-16 16t-13.5 16.5q-5 12 5.5 20.5t39.5 8.5q20 0 32 -4.5t14 -11t-1 -13.5q-3 -5 -9 -11t-12 -10t-10.5 -8.5t-3.5 -8.5t8 -7q9 -5 15.5 1.5t13 19t12.5 16.5q15 8 28 8q20 0 34 -18q14 -19 9 -29t-21 -14q-9 -2 -28.5 0.5t-32.5 2.5t-13 -7t13.5 -8.5t29.5 0 t27 -0.5q39 -8 14 -39q-15 -22 -35 -22q-10 0 -22 6q-7 4 -14 18.5t-14.5 22.5t-19.5 4q-9 -8 -4 -14t18 -16.5t15 -16.5q3 -12 -7 -20.5t-38 -8.5q-19 0 -31.5 5t-15.5 11.5t0 12.5q1 2 25 25q16 15 4 20q-11 5 -17 -1t-12 -19.5t-14 -18.5q-12 -9 -24 -9q-18 0 -34 21 q-30 33 10 41q6 1 15.5 0.5t19.5 -1.5t19 -1t14 2t4 7q0 7 -10.5 7t-29 -2.5t-29.5 -0.5q-16 2 -22 13zM567 464q-5 12 6 34q12 20 30 23t26 -9q5 -5 10.5 -21t12.5 -22.5t18 0.5q7 8 3.5 14t-14 19t-12.5 20q-5 12 5 22.5t36 10.5t36 -10.5t5 -22.5q-3 -7 -8.5 -14.5 t-11 -12.5t-9 -10t-3 -9.5t7.5 -8.5q8 -5 13.5 2.5t12 21.5t12.5 19q8 11 26 10t30 -20q13 -22 8 -35t-21 -16q-7 -1 -24.5 1t-29 1.5t-11.5 -9.5q0 -7 12.5 -8.5t26.5 0.5t24 0q37 -8 13 -47q-15 -24 -32 -24q-10 0 -22 8q-6 4 -12 20.5t-13 26t-18 4.5q-5 -4 -5 -8 t4.5 -10.5t10 -11.5t10.5 -11.5t7 -11.5q3 -14 -6.5 -23.5t-36.5 -9.5q-26 0 -36 10t-5 23q2 5 7.5 11.5t10.5 11.5t9.5 11.5t4.5 10.5t-5 8q-11 5 -16.5 -3t-11 -23t-13.5 -21q-8 -11 -24 -8.5t-30 22.5q-22 36 11 47q7 2 25 -0.5t30.5 -2t11.5 10.5q-1 9 -10.5 9.5t-27 -3 t-27.5 -1.5q-16 3 -21 15z" />
<glyph unicode="C" d="M82 798q4 82 17.5 153t55 129.5t106.5 100t171.5 64.5t249.5 23q96 0 176 -10.5t139.5 -29t105.5 -48t77 -62.5t51.5 -78t31 -88.5t13.5 -99.5q2 -30 2 -60q0 -24 -2 -48q-2 -51 -8 -115q-9 -84 -19.5 -147t-31 -133t-48.5 -120t-72.5 -97.5t-102.5 -77t-139 -47 t-181 -17.5t-181 17.5t-138 47t-101 77t-71.5 97.5t-46.5 120t-29 133t-17 147q-8 67 -8 130q-1 19 0 39zM345 705v-24q0 -42 5 -85q6 -68 16 -115.5t32 -94t57 -74.5t91.5 -45t133.5 -17q57 0 97.5 2t81.5 8.5t68 18t51.5 30.5t38 46t22 64.5t8.5 86.5q-53 -8 -117 -14 q-64 -8 -141 -10q-17 -1 -32 0q-54 0 -87 7q2 -12 2 -23q0 -28 -14 -50q-18 -30 -70 -31q-50 0 -67 43.5t-27 163.5q-2 31 -2 57q0 48 8 79q13 47 59 50h6q41 0 53 -40q6 -21 6.5 -66.5t-6.5 -116.5q17 0 80 -1q42 -1 74 -1q16 1 29 1q40 0 95.5 3t94.5 10q15 77 15 139 q0 23 -2 44q-21 -31 -42 -31l-26 12q-7 7 -15.5 31.5t-18 39t-23.5 5.5q-11 -5 -7 -16t11.5 -20t17.5 -22t12 -22q5 -21 -8 -36t-47 -15q-36 0 -49.5 15t-5.5 36q3 9 13 22t17 22t10.5 20t-7.5 16q-14 9 -21 -2.5t-14.5 -35.5t-16.5 -34q-13 -12 -26 -12q-23 0 -45 35 q-14 23 -14 40q0 22 26 31q9 3 33.5 -0.5t41 -2.5t15.5 16q-1 14 -14 13.5t-35.5 -5.5t-36.5 -2q-21 5 -28 24t8 52q17 30 39.5 34t33.5 -14q7 -8 15 -31.5t17 -34t24 0.5q9 4 6 14.5t-10 19t-15.5 22t-11.5 23.5q-7 25 10 39q-72 21 -145 21q-79 0 -138 -16t-94 -44 t-58 -67.5t-29 -86t-8 -99.5zM874.5 888q1.5 -6 8.5 -11q10 -7 17 -0.5t15 27t11 26.5q-3 5 -17 14q-4 -7 -11 -16t-12 -15t-9 -12.5t-2.5 -12.5zM905 840q0 -12 15.5 -14t33.5 1t33 0q-1 3 -4 10.5t-4 10.5q-8 0 -30 4t-33 2t-11 -14z" />
<glyph unicode="D" d="M82 774q4 82 17.5 152.5t55 129t106.5 100t171.5 64.5t249.5 23q96 0 176 -10.5t139.5 -29t105.5 -48t77 -62.5t51.5 -78t30.5 -89q11 -44 14 -100q2 -32 2 -60q0 -24 -2 -47q-2 -51 -8 -115q-9 -84 -19.5 -147.5t-31 -133.5t-48.5 -120t-72.5 -97.5t-102.5 -76.5 t-139 -46.5t-181 -17.5t-181 17.5t-138.5 46.5t-101 76.5t-71 97.5t-46.5 120t-29 133.5t-17 147.5q-8 67 -8 130q-1 20 0 40zM338 952q62 -256 62 -509q0 -86 -7 -171q246 -43 391 -43h19q201 5 231 342q4 50 4 95v28q-2 56 -11.5 97.5t-24.5 74t-35 53t-44 35.5t-51 20.5 t-56.5 8.5t-59.5 0q-130 -5 -418 -31zM507.5 560q-8.5 20 8.5 56q13 22 28.5 31t28.5 6t23 -14q8 -10 16.5 -35t17.5 -36.5t25 -0.5q10 5 6.5 16.5t-10.5 21t-17 24.5t-13 26q-5 22 9 38t52 16q37 0 51.5 -16.5t7.5 -37.5q-4 -14 -16 -29t-19.5 -23.5t-10.5 -20t10 -17.5 q12 -10 20.5 3t17 37t17.5 32q13 16 37.5 14t44.5 -33q19 -36 11.5 -56t-30.5 -27q-11 -3 -36.5 1.5t-42.5 4t-17 -14.5t18 -16t38.5 2t35.5 0q32 -10 32 -37q0 -17 -13 -41q-17 -33 -39.5 -37.5t-36.5 11.5q-8 7 -17.5 33.5t-20 42t-24.5 5.5q-12 -6 -8.5 -18t12 -21.5 t19.5 -24t14 -24.5q5 -23 -8.5 -38t-50.5 -15q-39 0 -54.5 16t-7.5 37q3 9 11 20t15.5 20t13.5 18.5t5.5 17t-8.5 12.5q-14 10 -21.5 -2t-15.5 -38t-18 -37q-15 -14 -30 -14q-25 0 -48 38q-16 26 -16 44q0 25 31 34q9 3 21 1t25.5 -3.5t24.5 -2.5t18.5 4t6.5 15 q-1 14 -15 14t-38.5 -5t-38.5 -2q-23 5 -31.5 25z" />
<glyph unicode="E" d="M82 786q4 82 17.5 152.5t55 129t106.5 100t171.5 64.5t249.5 23q96 0 176 -10.5t139.5 -29t105.5 -48t77 -62.5t51.5 -78t30.5 -89q11 -44 14 -100q2 -32 2 -60q0 -24 -2 -47q-2 -51 -8 -115q-9 -84 -19.5 -147t-31 -133t-48.5 -120t-72.5 -97.5t-102.5 -77t-139 -47 t-181 -17.5t-181 17.5t-138 47t-101 77t-71.5 97.5t-46.5 120t-29 133t-17 147q-8 67 -8 130q-1 20 0 40zM322 694q1 -40 6 -94q5 -68 15 -116.5t33.5 -95.5t60 -75t96 -45.5t141.5 -17.5q86 0 141 4.5t107 19.5t80.5 43.5t45 75t17.5 115.5q-89 -13 -199 -19q-44 -2 -85 -2 q-61 0 -115 5q2 -25 1 -44t-19 -30t-52 -10q-54 0 -76 17q-22 16 -22 55q0 30 13.5 41.5t58.5 18t147 9.5q73 2 110 4t76 7.5t54.5 13t30.5 23t19 34.5t7 51q2 26 2 49q0 137 -74 210q-87 85 -276 85q-72 0 -128 -12.5t-93 -32.5t-62.5 -52.5t-38.5 -66t-18 -80.5 q-4 -39 -4 -74v-14zM428 757.5q-8 17.5 8 47.5q17 27 40.5 29.5t33.5 -11.5q7 -8 15.5 -29t17 -30t22.5 0q7 4 7.5 10t-5 13.5t-11.5 15t-12.5 17t-8.5 16.5q-7 19 6 32t49 13t49.5 -13t5.5 -32q-3 -9 -11 -19t-15 -16.5t-12.5 -13.5t-4.5 -13t10 -12q11 -8 19.5 3t17 30.5 t15.5 25.5q17 13 32 13q23 0 43 -29q18 -28 11.5 -45.5t-27.5 -22.5q-10 -2 -34 2t-40 3.5t-16 -13.5q0 -11 16.5 -12.5t36 1.5t33.5 -1q21 -3 27 -18t-9 -46q-17 -27 -38 -31t-33 9q-9 7 -17.5 29t-17.5 35t-23 5q-9 -5 -9 -11t6 -14t13.5 -15.5t15 -16.5t9.5 -16 q3 -20 -9.5 -31.5t-47.5 -11.5t-49.5 13.5t-6.5 29.5q3 7 10 16t14 16.5t12 15t5 13.5t-8 10q-14 8 -20.5 -2t-14 -31t-16.5 -30q-14 -10 -27 -10q-23 0 -45 30q-15 22 -15 37q0 21 28 29q9 2 33.5 -2t41 -3t15.5 15q-1 12 -14 11.5t-35.5 -4.5t-36.5 -1q-21 3 -29 20.5z " />
<glyph unicode="F" d="M82 760q4 82 17.5 153t55 129t106.5 100t171.5 64.5t249.5 22.5q97 0 176 -10.5t139 -29t106 -48t77 -62t51.5 -77.5t31 -88.5t13.5 -100.5q2 -31 2 -60q0 -23 -2 -47q-2 -50 -8 -116q-9 -84 -19.5 -147t-31 -133t-48.5 -120t-72.5 -97.5t-102.5 -77t-139 -47t-181 -17.5 t-181 17.5t-138 47t-101 77t-71.5 97.5t-46.5 120t-29 133t-17 147q-8 67 -8 130q-1 20 0 40zM348 790q-4 -25 -4 -54q0 -47 10 -101q13 -84 20 -135t12 -105q4 -42 4 -75v-19q-2 -40 -9 -74q75 1 132 1h75q74 -2 100 -4l27 -3q-8 70 -8 107q0 24 3 38.5t13.5 29t33.5 20.5 t60 4q52 0 150 -8q-4 10 -2 41.5t7 66.5l5 35q-139 -9 -244 -9q-92 0 -158 7q-86 8 -111 23.5t-28 68.5v10q0 47 25 65q28 20 114 21q75 -1 99 -39q18 -28 19 -61q0 -12 -3 -25q58 6 122 6q108 0 232 -18q22 92 22 158q0 25 -3 47l-6 -12q-17 -33 -39.5 -39t-36.5 10 q-8 8 -17.5 35.5t-19 43t-24.5 5.5q-12 -6 -8.5 -18t12 -22t19 -24t13.5 -24q5 -23 -8.5 -38t-50.5 -15q-39 0 -53.5 15.5t-7.5 37.5q3 9 11 20t15.5 20t13 18t5 16t-8.5 12q-15 10 -22 -2t-15 -37.5t-18 -36.5q-15 -13 -29 -13q-25 0 -49 38q-19 35 -13.5 53t28.5 25 q9 3 21 1t25.5 -3.5t24.5 -2t18.5 4t6.5 14.5q-1 14 -15 13.5t-38.5 -5.5t-38.5 -2q-23 3 -31.5 24t8.5 58q8 12 10 14q-8 0 -24.5 1t-24.5 1q-116 0 -191 -23.5t-111 -68.5t-46 -113zM823 989q3 -6 6 -14.5t5 -15t5 -14t6.5 -12t7.5 -7.5t9.5 -2t11.5 6q3 2 4.5 4t2 5 t0.5 5t-1.5 5.5t-3 6t-4 6.5t-4 6.5t-5 7t-5.5 7.5q-6 1 -17.5 3t-17.5 3zM924 926q11 -8 18 -0.5t14 28.5q-3 1 -13 6t-17 7q-22 -26 -2 -41zM946 887q1 -13 19 -14t38 1.5t35 -2.5h6q-4 8 -14 23q-8 0 -21 2t-23 4t-19.5 2.5t-15 -3.5t-5.5 -13z" />
<glyph unicode="G" d="M82 720q4 82 17.5 153t55 129.5t106.5 100t171.5 64.5t249.5 23q96 0 176 -10.5t139.5 -29t105.5 -48t77 -62.5t51.5 -78t31 -88.5t13.5 -99.5q2 -31 2 -60q0 -25 -2 -48q-2 -51 -8 -115q-9 -84 -19.5 -147.5t-31 -133.5t-48.5 -120t-72.5 -97.5t-102.5 -76.5t-139 -46.5 t-181 -17.5t-181 17.5t-138.5 46.5t-101 76.5t-71 97.5t-46.5 120t-29 133.5t-17 147.5q-8 67 -8 130v39zM266 704q2 -61 6 -129q5 -59 11 -99.5t19.5 -86.5t36.5 -75t58 -54t87 -36q48 -9 110 -9h12q59 0 86 4q9 -19 29 -22q13 -3 34.5 1.5t34 4.5t13.5 -13q1 -9 -5 -12.5 t-16.5 -3t-22.5 2t-23 3t-19 -1.5q-19 -5 -24 -20t12 -45q17 -27 37.5 -31t31.5 10q10 10 16.5 31.5t13 32t19.5 2.5q7 -5 7.5 -11.5t-4.5 -14t-11.5 -15.5t-13.5 -17.5t-10 -17.5q-7 -17 7 -31t48 -14q33 0 44.5 12.5t8.5 32.5q-2 8 -8.5 17.5t-14 17.5t-13 15.5t-5.5 14.5 t8 11q14 9 23 -4.5t17.5 -37t15.5 -30.5q13 -10 25 -10q22 0 42 35q12 21 12 35q0 23 -28 30q-14 4 -32.5 1t-34 -1.5t-15.5 12.5q0 13 15 14t37.5 -3t31.5 -2q21 5 27.5 23t-11.5 48q-19 29 -41 29q-14 0 -30 -12q-7 -7 -15.5 -27.5t-16.5 -31.5t-20 -3q-11 5 -8 15t10 17 t18 20t15 24q4 19 -4 29q42 66 42 182q0 15 -1 31q-91 -6 -173 -6q-149 0 -267 20q2 -22 2 -44q0 -34 -4 -71q67 0 106 1t58.5 -7t24.5 -19t3 -36q-2 -28 -27 -38q-19 -8 -64 -8q-14 0 -30 1q-82 4 -109.5 55t-35.5 182q-1 22 -1 41q0 146 73 146q46 0 60 -38q7 -19 7 -50 q0 -27 -6 -62q363 0 430 8q6 55 6 101q0 48 -7 85q-13 73 -59.5 117.5t-120.5 62t-192 17.5q-101 -1 -171 -23.5t-105.5 -62t-53.5 -93.5q-18 -50 -18 -106v-10zM793 242q20 8 30 14q15 -23 2 -31q-17 -13 -32 17z" />
<glyph unicode="H" d="M82 740q4 82 17.5 153t55 129.5t106.5 100t171.5 64.5t249.5 23q96 0 176 -10.5t139.5 -29t105.5 -48t77 -62.5t51.5 -78t31 -88.5t13.5 -99.5q2 -30 2 -60q0 -24 -1 -48q-2 -51 -9 -115q-9 -84 -19.5 -147t-31 -133t-48.5 -120t-72.5 -97.5t-102.5 -77t-139 -47 t-181 -17.5t-181 17.5t-138 47t-101 77t-71.5 97.5t-46.5 120t-29 133t-17 147q-8 67 -8 130q-1 19 0 39zM324 948q19 -104 22 -250q10 -3 16 -12q8 -9 17.5 -34.5t19 -37t25.5 -0.5q10 5 6.5 16.5t-11 21t-17.5 24.5t-13 26q-5 22 9 38t51 16q38 0 53 -16.5t8 -37.5 q-4 -14 -16 -29t-20 -23.5t-11 -20t10 -17.5q12 -10 20.5 3t17 37t17.5 32q11 10 23.5 13.5t28.5 -3.5t30 -28q19 -36 12 -56.5t-30 -27.5q-11 -3 -36.5 1.5t-42.5 4t-17 -14.5t18 -16t38.5 2t35.5 0q32 -10 32 -35q0 -17 -14 -41q-17 -34 -39.5 -39t-36.5 11q-9 7 -18 34 t-19 42.5t-24 5.5q-9 -5 -9.5 -12.5t6 -16.5t14.5 -18t16 -20t10 -19q5 -24 -9.5 -40t-52.5 -16q-37 0 -52 17t-7 39q3 8 11 19t15 20t13 18t6 16.5t-8 12.5q-14 10 -22 -2.5t-16 -38t-19 -35.5q-5 -8 -17 -12l-10 -240q60 12 114 12q2 -1 4 -1q56 0 96 -6l40 -7 q-4 38 -4.5 65.5t8.5 47t19.5 31.5t30 18.5t38.5 9t45 2.5q18 0 31 -0.5t27 -3t23.5 -6.5t19.5 -11t15.5 -17.5t10.5 -25t7 -33.5t2 -43.5t-3 -54.5q30 3 56 3q10 -1 18 -1q34 -2 55 -6l21 -4q-4 42 -6 114q-1 24 0 62q0 76 3 206q5 196 27 360q-76 -6 -122 -6h-8 q-48 0 -68 4l-19 4q1 -134 1 -212v-9q0 -71 -8 -109q-8 -40 -19.5 -52t-34.5 -12q-20 0 -33 6.5t-25 31t-17 68.5q-4 37 -4 97v25q1 78 9 190q-110 -17 -199 -17q-95 0 -165 19zM348 559q20 -4 36 -1.5t15 17.5q-1 13 -16 14t-35 -5v-25z" />
<glyph unicode="I" horiz-adv-x="989" d="M82 730q2 82 12 153t40.5 129.5t77 100t124 64.5t180.5 23q104 0 181 -23t124 -64.5t77 -100t39 -129.5t11 -153v-23q0 -71 -8 -146q-6 -84 -14 -147t-22.5 -133t-35 -120t-52.5 -97.5t-74 -77t-100.5 -47t-131.5 -17.5t-131 17.5t-99.5 46.5t-73.5 77t-51.5 98 t-33.5 120t-20.5 133t-12.5 147q-6 67 -6 130q-1 20 0 39zM346 606q18 -135 26 -237q6 -81 6 -119q0 -10 -1 -18l-2 -35q39 15 113 18q32 1 59 1q37 0 67 -2l54 -5q-2 29 -2 62q0 140 32 335q-98 -6 -186 -6t-127 3zM347.5 867.5q8.5 -20.5 31.5 -25.5q14 -3 38.5 2.5 t38.5 5.5t15 -14q1 -10 -6 -15t-18.5 -4t-25 2t-25.5 3t-21 -1q-31 -9 -31 -34q0 -18 16 -44q20 -31 43 -35t35 13q10 10 18 35.5t16 38t22 2.5q8 -5 8 -12.5t-5.5 -16.5t-13 -18t-15.5 -20t-11 -19q-7 -23 6.5 -41.5t50.5 -18.5t53 18.5t11 41.5q-2 10 -12.5 24t-19.5 24 t-13 22t8 18q15 9 25 -7t18.5 -43t17.5 -34q14 -16 36.5 -10.5t39.5 38.5q14 24 14 40q0 26 -33 36q-15 4 -35 1t-37.5 -1t-17.5 15q0 15 16.5 15.5t42.5 -4.5t36 -3q23 7 30 27.5t-12 56.5q-14 21 -30 28t-28.5 3.5t-23.5 -13.5q-9 -8 -17.5 -31.5t-16.5 -36.5t-21 -4 q-12 7 -9 19t10.5 20.5t19.5 23.5t16 28q8 21 -7.5 37t-52.5 16q-38 0 -52 -15t-9 -38q3 -11 13 -26t17.5 -24.5t11 -21.5t-6.5 -17q-16 -11 -25 1t-18 37t-17 34q-12 19 -36.5 15t-43.5 -37q-17 -36 -8.5 -56.5z" />
<glyph unicode="J" d="M82 780q4 81 17.5 152t55 129.5t106.5 100t171.5 64.5t249.5 23q96 0 176 -10.5t139.5 -29t105.5 -48t77 -62.5t51.5 -78t31 -88.5t13.5 -100.5q2 -30 2 -60q0 -24 -2 -47q-2 -51 -8 -115q-9 -84 -19.5 -147.5t-31 -133.5t-48.5 -120t-72.5 -97.5t-102.5 -76.5 t-139 -46.5t-181 -17.5t-181 17.5t-138.5 46.5t-101 76.5t-71 97.5t-46.5 120t-29 133.5t-17 147.5q-8 67 -8 130v40zM328 473q23 8 43 -12q8 -10 16.5 -35.5t17.5 -37t25 0.5q7 6 7 12t-5.5 16t-12.5 18.5t-14 19.5t-10 20q-5 23 9.5 38t52.5 15t52.5 -15.5t6.5 -37.5 q-4 -13 -16 -28t-19.5 -23t-10.5 -20t9 -19q13 -9 21.5 4.5t17 37t17.5 30.5q18 16 35 16q25 0 46 -35q19 -34 12 -55.5t-30 -26.5q-11 -3 -36 1.5t-41.5 3.5t-16.5 -15q0 -13 17.5 -15t38 1.5t36.5 -0.5q22 -5 27.5 -22.5t-11.5 -53.5q-17 -33 -39 -39t-34 10 q-9 9 -18.5 36t-20 42.5t-25.5 5.5q-12 -6 -8 -18t13 -22t19.5 -24t12.5 -24q3 -13 0 -26q75 -11 152 -11q160 0 248.5 45t109.5 129q9 40 9 89q0 52 -11 114q-4 20 -8.5 50t-12.5 89.5t-13 111.5q-3 42 -3 83v18q1 50 10 72q-79 -1 -139 -1h-77q-77 2 -105 4l-27 3 q8 -47 8 -108v-27v-51.5t1.5 -41t5 -35.5t10 -26t16.5 -22.5t25 -15t34.5 -12.5t45.5 -7q89 -8 115.5 -24.5t29.5 -71.5v-10q0 -49 -26 -67q-30 -21 -119 -21h-6q-37 0 -63 11q-28 13 -38 32.5t-14 42.5t2 43q-98 -8 -152 -8q-16 0 -28 1q-53 3 -139 16q-12 2 -19 3 q-6 -67 -6 -121zM336 354l6 -18q4 0 10.5 -1t10.5 -2t10 -1.5t9.5 -0.5t8 0.5t7 2t5 3.5t3 5.5t0.5 7.5q-1 7 -4.5 10.5t-11 3t-15 -2t-19.5 -4t-20 -3.5zM385 254q3 -2 8 -7t8 -7q4 7 11.5 17t12.5 16.5t8.5 13.5t2.5 12.5t-8 9.5l-13.5 4.5t-9 -6.5t-7 -14t-6.5 -18.5 t-7 -20.5z" />
<glyph unicode="K" d="M82 780q4 82 17.5 152.5t55 129t106.5 100t171.5 64.5t249.5 22q96 0 176 -10t139.5 -28.5t105.5 -48t77 -62.5t51.5 -78t30.5 -89q11 -44 14 -100q2 -32 2 -60q0 -24 -2 -47q-2 -51 -8 -115q-9 -84 -19.5 -147.5t-31 -133.5t-48.5 -120t-72.5 -97.5t-102.5 -76.5 t-139 -46.5t-181 -17.5t-181 17.5t-138.5 46.5t-101 76.5t-71 97.5t-46.5 120t-29 133.5t-17 147.5q-8 67 -8 130q-1 20 0 40zM305 1020q16 -74 23 -131q19 3 37 -15q8 -9 16.5 -35t17.5 -37t25 1q10 5 6.5 16.5t-11 21t-17.5 24t-13 24.5q-5 23 9.5 38t52.5 15 q37 0 51.5 -15.5t7.5 -37.5q-4 -13 -16 -28t-20 -23t-11 -20t10 -19q12 -9 20.5 4.5t17 37t17.5 31.5q18 15 35 15q26 0 47 -35q19 -34 12 -55.5t-30 -26.5q-11 -3 -36.5 2t-42.5 4t-17 -16q0 -13 16.5 -14.5t41 1.5t34.5 1q32 -10 32 -36q0 -17 -14 -42q-17 -32 -40 -38 t-36 9q-8 8 -17.5 35.5t-19 43t-24.5 5.5q-12 -6 -8.5 -18t12 -21.5t19.5 -24t14 -24.5q5 -23 -9 -38t-51 -15q-38 0 -53 16t-8 37q3 9 11 20t15.5 20t13.5 18.5t5.5 17t-8.5 12.5q-14 9 -21.5 -3.5t-15.5 -38t-18 -36.5q-11 -7 -19 -10q3 -75 4 -149q0 -123 -10 -244 q18 2 46 0.5t54 -4.5l25 -2q-8 96 -8 141v5q-1 39 27 71q26 30 81 30h13q65 -3 93.5 -34t28.5 -123q0 -30 11 -47t21 -19l11 -2q29 -1 58 -1q146 0 291 17q-4 3 -10 9q-8 5 -18 35q-10 27 -9 64v10q0 78 -49 106q-50 28 -152 28q-15 0 -21 9t0 18.5t21 9.5h14q92 1 120 25 q30 26 30 109v6q0 118 6 178t12 72t23 32q-48 6 -82.5 7.5t-63.5 -4t-47.5 -14.5t-33 -31t-22 -46t-12 -66.5t-5 -85.5t-0.5 -110q0 -16 -1.5 -26t-6.5 -21.5t-16.5 -17t-29.5 -5.5q-23 0 -35.5 9t-15.5 20.5t-4 32.5q0 233 12 399q-56 -4 -154.5 -6t-168.5 -2h-70zM340 770 l2 -22q22 -5 40 -3t17 19q-1 7 -4 10t-9 3t-12 -1t-16.5 -3t-17.5 -3z" />
<glyph unicode="L" horiz-adv-x="1271" d="M82 766v11q0 58 9 122q10 70 32.5 120t65.5 97.5t105.5 76.5t154.5 46.5t210 17.5q119 0 211 -17.5t154.5 -46.5t104.5 -76.5t64.5 -97.5t31.5 -120q8 -60 8 -115v-18q-2 -64 -10 -148t-18.5 -147t-30 -133t-46.5 -120t-70 -97.5t-99 -76.5t-134 -46.5t-174 -17.5 t-174 17.5t-133 46.5t-97 76.5t-68.5 97.5t-45 120t-27.5 133t-16 147t-8 148zM328 952q19 -90 27 -255q7 -147 7 -258v-27l-2 -119q99 5 189 5q45 0 89 -2q130 -4 218 -12l88 -8q-1 17 -1 35q1 31 3 61q4 48 8 70l4 23q-86 -17 -144 -17q-16 0 -28 1q-62 6 -86.5 44 t-25.5 130q32 -25 57 0q7 8 13 21t8.5 24t7.5 21.5t10 12.5t16 -2q12 -5 8.5 -17t-11 -21.5t-18 -24.5t-13.5 -25q-8 -21 6.5 -37t52.5 -16q37 0 50.5 15t8.5 38q-2 10 -12.5 24.5t-19.5 24.5t-12.5 21.5t8.5 17.5q15 10 25 -5.5t19.5 -42.5t18.5 -36q12 -15 34.5 -9 t41.5 38q13 24 13 41q0 27 -32 37q-10 2 -35 -1t-41 -1.5t-16 14.5q0 15 16.5 16t41.5 -4t36 -2q23 7 30.5 27t-11.5 55q-14 22 -30 29.5t-28 4t-22 -12.5q-10 -8 -18.5 -31.5t-17 -37.5t-21.5 -5q-12 7 -9 19t10.5 20t19 23t15.5 28q8 22 -7 39t-52 17q-38 0 -52 -16.5 t-7 -39.5q3 -10 12 -24.5t16 -24t10.5 -21t-6.5 -16.5q-16 -12 -25 -0.5t-17.5 37t-16.5 35.5q-18 22 -41 12l6 88q-148 -7 -229 -7q-5 1 -11 1q-82 0 -104 4zM678 727v16q13 -1 36.5 4.5t36 5t13.5 -13.5q1 -9 -4 -13.5t-15.5 -5t-21.5 1t-24 3.5t-21 2z" />
<glyph unicode="M" horiz-adv-x="1497" d="M82 706q-1 16 -1 31q-1 36 3 76q4 57 17 100.5t37.5 88.5t60.5 77.5t89.5 62t122.5 48t160.5 29t202.5 10.5q142 0 251.5 -17.5t184 -46.5t125 -76.5t77 -97.5t36.5 -120q9 -61 10 -118v-15q-2 -64 -12 -148t-22 -147t-35.5 -133t-55.5 -120t-83.5 -97.5t-118 -77 t-160 -47t-209.5 -17.5q-115 0 -208 17.5t-159 47t-116.5 77t-81.5 97.5t-53.5 120t-33.5 133t-20 147q-6 66 -8 116zM340 1010q2 -18 6 -50q3 -32 8 -130q4 -81 4 -161v-32q-1 -84 -4 -177.5t-6 -145.5l-2 -52q26 4 60.5 4t55.5 -2l21 -2q-12 144 -12 318v27.5v26.5t0.5 23 t2.5 22t5 18t8.5 16.5t13 12t18.5 10t24 5.5q27 4 44 -6t22.5 -27.5t7 -35.5t-0.5 -32l-2 -13q39 9 87 9t76 -4l28 -5q0 3 -0.5 7.5t-1 19t-1 28.5t0.5 33.5t2.5 36t5.5 33t9.5 28.5t14 19.5t19.5 7.5q38 0 56 -20t18 -57q0 -5 -1 -11q0 -33 -2 -77q-1 -15 -1 -22 q-4 -92 -4 -160q0 -63 4 -105q6 -88 18 -112l12 -22q35 8 103.5 8t120.5 -4l51 -4q-4 5 -8.5 23.5t-11.5 102.5q-3 31 -3 69q0 67 8 157q5 56 5 106q0 37 -3 71q-6 79 -26 133q-20 53 -66 76q-29 14 -67 14q-24 0 -51 -5q-218 -44 -372 -44q-2 1 -4 1q-156 0 -290 52z M536 369.5q-5 -18.5 13 -52.5q20 -31 42 -35.5t34 11.5q10 11 18 36.5t15.5 38t21.5 3.5q8 -5 8 -12.5t-6 -17t-13 -18.5t-15 -20t-11 -20q-7 -21 7.5 -37.5t51.5 -16.5t51 15.5t9 38.5q-3 10 -14 24.5t-19.5 24t-12 21.5t8.5 18q14 10 24 -5.5t19 -42.5t18 -34 q12 -16 34.5 -11t39.5 37q13 25 13 42q0 27 -31 36q-9 2 -33.5 -0.5t-40.5 -1t-16 14.5q0 15 16.5 16t41.5 -4t36 -2q21 5 28.5 26.5t-10.5 55.5q-14 21 -30 28t-28 3.5t-22 -13.5q-9 -7 -17.5 -30.5t-17 -37t-20.5 -4.5q-12 7 -9 19t10.5 20.5t19.5 23.5t16 28 q7 21 -7.5 37t-51.5 16t-51 -15t-9 -38q3 -10 13 -25t17 -24.5t10.5 -21t-5.5 -15.5q-16 -12 -25 -1t-17.5 37t-16.5 35q-10 11 -22.5 13.5t-28 -6.5t-27.5 -31q-16 -36 -8.5 -56.5t30.5 -23.5q14 -3 38 2t37.5 5.5t14.5 -13.5q1 -10 -6.5 -15t-18.5 -4t-24.5 2t-25 3 t-19.5 -1q-22 -7 -27 -25.5z" />
<glyph unicode="N" d="M82 776q4 82 17.5 152.5t55 129t106.5 100t171.5 64.5t249.5 23q96 0 176 -10.5t139.5 -29t105.5 -48t77 -62.5t51.5 -78t30.5 -89q11 -44 14 -100q2 -32 2 -60q0 -24 -1 -47q-2 -51 -9 -115q-9 -84 -19.5 -147t-31 -133t-48.5 -120t-72.5 -97.5t-102.5 -77t-139 -47 t-181 -17.5t-181 17.5t-138 47t-101 77t-71.5 97.5t-46.5 120t-29 133t-17 147q-8 67 -8 130q-1 20 0 40zM350 1014q3 -18 6.5 -51t9.5 -131q5 -84 5 -164v-27q0 -14 -1 -40t-1 -38q3 -7 7.5 -19t7 -18.5t8 -15t10.5 -7.5t14 5q8 4 4.5 14.5t-9.5 18.5t-14.5 21t-11.5 22 q-5 19 7.5 33t45.5 14t45.5 -14t5.5 -33q-4 -11 -14 -24t-16.5 -20.5t-9.5 -18t8 -15.5q11 -8 19 3.5t15.5 32t14.5 27.5q16 13 31 13q22 0 41 -29q16 -31 9.5 -50t-26.5 -24q-10 -2 -32.5 2.5t-37 4t-14.5 -14.5q1 -11 16.5 -12t33 1.5t30.5 -1.5q28 -7 28 -30 q0 -15 -12 -36q-20 -35 -41 -35q-12 0 -24 11q-7 7 -15 30t-16.5 36.5t-21.5 4.5q-8 -5 -8.5 -11.5t5 -14.5t12 -15.5t13 -17t8.5 -16.5q5 -21 -6.5 -34.5t-44.5 -13.5t-46.5 14.5t-6.5 33.5q3 8 10.5 17.5t13.5 17t11.5 15.5t5 14t-7.5 11q-13 8 -19.5 -3t-13 -32.5 t-16.5 -31.5l-3 -2l-6 -107q32 4 108 4q26 0 49 1q48 0 88 -1l61 -2q-3 34 -7 88q-5 53 -11 163q-6 95 -5 142v13q0 10 1 36t1.5 35t2 30t4 29t7 23t11 21t15.5 14.5t21.5 12t28.5 4.5q8 1 16 1q36 0 55 -20q23 -24 24 -68v-31q0 -32 -1 -71q-3 -97 -3 -167q0 -53 2 -91 q4 -88 13 -114l9 -27q46 8 85 8q3 -1 5 -1q40 0 67 -4l27 -5q-2 8 -4 29.5t-4 108.5q-1 23 -1 49q0 72 5 167q2 31 2 59q0 64 -8 112q-12 68 -46 118q-34 49 -100 68q-44 13 -106 13q-29 0 -61 -3q-104 -8 -184 -8q-107 0 -173 14zM365 459q15 -2 22 1.5t6 14.5q0 14 -26 10 z" />
<glyph unicode="O" d="M82 732q4 82 17.5 152.5t55 129t106.5 99.5t171.5 64t249.5 23q97 0 176 -10.5t139 -29t106 -48t77 -62t51.5 -77.5t31 -88.5t13.5 -100.5q2 -31 2 -60q0 -24 -1 -48q-2 -50 -9 -115q-9 -84 -19.5 -147t-31 -133t-48.5 -120t-72.5 -97.5t-102.5 -77t-139 -47t-181 -17.5 t-181 17.5t-138 47t-101 77t-71.5 97.5t-46.5 120t-29 133t-17 147q-8 68 -8 131q-1 20 0 40zM318 714q-1 -13 -1 -26q0 -37 5 -76q6 -72 15.5 -122.5t33 -103.5t59.5 -84.5t97 -52t145 -20.5t145 20.5t97.5 52t60.5 85t34.5 103t18.5 122.5q6 44 6 85v17q-2 49 -10 91.5 t-32.5 77.5t-63.5 60t-102.5 38.5t-149.5 13.5q-85 0 -149 -13.5t-102.5 -38.5t-63.5 -60t-33 -77.5t-10 -91.5zM432.5 632.5q5.5 17.5 28.5 24.5q8 3 20 1t25.5 -3t25 -2t19 4t6.5 15q-2 14 -16 13.5t-38.5 -5.5t-39.5 -2q-22 3 -30 24t9 58q12 22 27.5 30t28.5 5.5 t22 -13.5q8 -9 17.5 -35t19 -37t25.5 1q7 6 7 12t-5.5 16t-12.5 18.5t-14 19.5t-10 20q-7 22 7.5 37.5t51.5 15.5q39 0 54 -15.5t8 -37.5q-4 -13 -16 -28t-20 -23t-11 -20t10 -19q12 -9 20.5 4.5t17 37t17.5 31.5q18 15 35 15q26 0 47 -35q19 -34 12 -55.5t-30 -26.5 q-11 -3 -36.5 2t-43 4t-17.5 -16q0 -13 18 -15t38.5 1t35.5 -1q23 -5 29.5 -22t-10.5 -53q-24 -41 -49 -41q-14 0 -27 12q-8 8 -17.5 35.5t-19 43t-24.5 5.5q-13 -6 -9 -18t12.5 -22t19.5 -24t14 -24q5 -23 -9.5 -38t-52.5 -15t-52.5 15.5t-6.5 37.5q3 9 11 20t15 19.5 t13 17.5t6 16.5t-8 12.5q-14 10 -22 -2t-16.5 -37.5t-19.5 -36.5q-14 -14 -28 -14q-24 0 -48 39q-19 35 -13.5 52.5z" />
<glyph unicode="P" d="M82 808q4 82 17.5 153t55 129.5t106.5 100t171.5 64.5t249.5 23q96 0 176 -10.5t139.5 -29t105.5 -48t77 -62.5t51.5 -78t31 -88.5t13.5 -99.5q2 -30 1 -60q-1 -24 -1 -48q-2 -51 -8 -115q-9 -84 -19.5 -147t-31 -133t-48.5 -120t-72.5 -97.5t-102.5 -77t-139 -47 t-181 -17.5t-181 17.5t-138 47t-101 77t-71.5 97.5t-46.5 120t-29 133t-17 147q-8 67 -8 130q-1 19 0 39zM354 956q61 -261 61 -511q0 -85 -7 -169l272 -8q-6 101 -8 140q-2 17 0 32.5t8 27t26 19.5t54 9q149 6 209.5 71.5t60.5 194.5v19q0 33 -2 57q-4 30 -17 63t-38 51 q-25 20 -69 30q-35 8 -82 8q-13 0 -27 -1q-42 -3 -231 -17.5t-210 -15.5zM516.5 682.5q-6.5 12.5 7.5 36.5q14 21 34.5 23.5t29.5 -9.5q6 -6 13 -22t15 -23t21 0q5 4 5.5 7.5t-4.5 9.5t-10.5 11.5t-11.5 13t-8 13.5q-5 14 7 24.5t42 10.5t42.5 -11t7.5 -24q-3 -7 -10 -14.5 t-13.5 -13t-11 -11t-4 -10t7.5 -8.5q10 -6 17 2t14 23t14 20q15 11 29 11q20 0 38 -23q15 -22 9 -35t-25 -16q-9 -2 -29 0.5t-33.5 2.5t-13.5 -9t14 -10.5t30.5 0.5t29.5 -1q24 -5 24 -22q0 -11 -10 -27q-14 -20 -32 -23.5t-29 7.5q-7 4 -14 21t-15 27t-20 5 q-8 -4 -8.5 -9.5t4.5 -11t11.5 -11.5t12.5 -13t8 -12q5 -14 -6.5 -24.5t-42.5 -10.5q-30 0 -42 11t-5 24q2 5 8 12t12 13t11 12t4.5 10.5t-6.5 7.5q-12 6 -18 -2t-12 -24t-15 -23q-12 -9 -24 -9l-40 25q-12 15 -12 26q0 16 25 23q7 2 28 -0.5t35.5 -1.5t13.5 11 q-1 9 -12.5 9t-31 -3.5t-31.5 -1.5q-18 4 -24.5 16.5z" />
<glyph unicode="Q" d="M82 764q4 81 17.5 152t55 129.5t106.5 100t171.5 64.5t249.5 23q96 0 176 -10.5t139.5 -29t105.5 -48t77 -62.5t51.5 -78t31 -88.5t13.5 -100.5q2 -30 2 -60q0 -24 -2 -47q-2 -51 -8 -115q-9 -84 -19.5 -147t-31 -133t-48.5 -120t-72.5 -97.5t-102.5 -77t-139 -47 t-181 -17.5t-181 17.5t-138 47t-101 77t-71.5 97.5t-46.5 120t-29 133t-17 147q-8 67 -8 130v40zM287 733.5q0 -57.5 4 -121.5q6 -69 18 -120.5t39.5 -102t70 -83t111.5 -53t162 -22.5h330q4 27 6 61.5t2 55.5v21q-65 -13 -96 -15q-8 0 -9.5 11t3.5 22q48 119 59 234 q3 61 5 116v9q0 50 -16 94q-18 47 -52.5 81.5t-104.5 54t-172 19.5q-103 0 -174 -19.5t-108.5 -54t-57.5 -82.5t-20 -105.5zM432 539q6 21 27 28q8 3 19 1.5t23.5 -3t23 -2.5t17 4t5.5 17q-1 10 -6.5 14t-14 2t-19.5 -4.5t-23 -4.5t-23 1q-21 5 -29 28q-2 8 -2 18 q0 20 10 48q12 26 26.5 36.5t27 7t20.5 -16.5q8 -11 16.5 -40.5t17 -43t23.5 -0.5q9 6 6 20t-10 25t-16 28t-12 29q-5 26 8 44t47 18q36 0 50 -18t7 -44q-4 -13 -12 -27t-15 -23.5t-12.5 -19t-4.5 -18t9 -16.5q12 -11 20 4t16.5 43t17.5 37q10 11 21.5 15t26 -4.5 t27.5 -33.5q13 -29 13 -49q0 -9 -2 -16q-8 -24 -29 -31q-8 -3 -19.5 -0.5t-23.5 5t-22 4t-16.5 -3t-6.5 -15.5q0 -15 16.5 -18t35.5 1t34 0q21 -7 27 -27q1 -6 1 -12q0 -20 -12 -51q-12 -25 -25 -36t-23.5 -9.5t-20.5 12.5q-8 10 -17 42t-18.5 50t-24.5 7q-11 -7 -7.5 -21.5 t12 -25.5t18.5 -27.5t12 -28.5q5 -26 -8 -44.5t-47 -18.5q-36 0 -50 18.5t-7 44.5q4 11 14.5 28.5t17.5 28.5t10 25t-8 19q-14 12 -21 -2t-14.5 -43.5t-17.5 -42.5q-11 -20 -32 -15.5t-40 41.5q-14 31 -14 50q0 7 2 12z" />
<glyph unicode="R" d="M82 776q4 82 17.5 152.5t55 129t106.5 100t171.5 64.5t249.5 23q96 0 176 -10.5t139.5 -29t105.5 -48t77 -62.5t51.5 -78t30.5 -89q11 -44 14 -100q2 -32 2 -60q0 -24 -2 -47q-2 -51 -8 -115q-9 -84 -19.5 -147t-31 -133t-48.5 -120t-72.5 -97.5t-102.5 -77t-139 -47 t-181 -17.5t-181 17.5t-138 47t-101 77t-71.5 97.5t-46.5 120t-29 133t-17 147q-8 67 -8 130q-1 20 0 40zM307 946q60 -255 61 -505q0 -87 -8 -173l285 -10q-8 100 -8 139q-2 18 0 34.5t8 29.5t26 19.5t54 4.5q56 -3 73 -27q15 -22 15 -82v-14v-13q-1 -30 3 -53 q4 -28 11.5 -40.5t15 -19t12.5 -6.5l5 -1q108 5 176 13q-2 4 -5.5 12t-8.5 45q-3 23 -3 51q0 17 1 35q1 12 1 24q1 36 -7 64q-10 37 -24.5 55.5t-39 29.5t-40.5 12.5t-41 2t-29 0.5q-16 2 -15.5 20.5t13.5 20.5q56 4 81 15q76 33 76 145v15q1 46 -5 75q-6 34 -29.5 65 t-72.5 43q-36 9 -89 8q-18 0 -39 -1q-362 -24 -453 -33zM462 640q4 10 21 13q7 1 27.5 -1t34 -1.5t12.5 8.5t-12 8.5t-30 -2.5t-30 -1q-15 2 -21.5 13t5.5 30q14 19 33 21t28 -9q5 -5 11.5 -18.5t14 -19t19.5 0.5q5 3 5 6t-4 8t-9 9.5t-10.5 10.5t-7.5 11q-3 12 7 20.5 t40 8.5q29 0 39.5 -8.5t5.5 -20.5q-3 -6 -10.5 -13.5t-11.5 -10.5q-12 -8 -14 -12t7 -11q10 -5 17 1.5t13.5 20t12.5 17.5q15 8 28 8q19 0 34 -18q15 -19 9 -30t-24 -15q-7 -1 -26 1t-32 1.5t-13 -7.5t13.5 -8.5t29 0.5t26.5 0q41 -8 15 -41q-18 -22 -36 -22q-11 0 -22 8 q-7 4 -14 18t-14.5 22t-18.5 3q-15 -6 6 -23q19 -16 21 -22q5 -12 -5.5 -20.5t-39.5 -8.5q-20 0 -32 4.5t-14 11t1 13.5q2 4 8 9.5t11.5 10.5t9.5 9.5t3.5 8.5t-6.5 7q-11 5 -16.5 -1.5t-11.5 -20t-15 -19.5q-11 -8 -22 -8q-18 0 -35 22q-15 18 -11 28z" />
<glyph unicode="S" d="M82 772q4 82 17.5 152.5t55 129t106.5 100t171.5 64.5t249.5 23q96 0 176 -10.5t139.5 -29t105.5 -48t77 -62.5t51.5 -78t30.5 -89q11 -44 14 -100q2 -32 2 -60q0 -24 -2 -47q-2 -51 -8 -115q-9 -84 -19.5 -147.5t-31 -133.5t-48.5 -120t-72.5 -97.5t-102.5 -76.5 t-139 -46.5t-181 -17.5t-181 17.5t-138.5 46.5t-101 76.5t-71 97.5t-46.5 120t-29 133.5t-17 147.5q-8 67 -8 130q-1 20 0 40zM262 922.5q7 -16.5 27 -21.5q10 -2 20.5 0l21 4t19 3.5t13.5 -1t6 -10.5q2 -14 -13 -15.5t-38 2t-31 1.5q-19 -5 -25 -20.5t12 -43.5 q21 -32 41 -32q12 0 25 12q10 9 16.5 29.5t13 31t19.5 2.5q7 -5 8 -11t-4.5 -13.5t-12 -14.5t-13 -16t-9.5 -16q-6 -14 2.5 -27.5t32.5 -17.5q-6 -33 -6 -71q0 -23 2 -48q3 -36 15.5 -64t28 -47t45.5 -33t53 -21.5t66.5 -13t71.5 -7.5t81 -5q106 -4 134 -16q25 -10 25 -45 v-10q-5 -48 -78 -48q-38 0 -56.5 14t-14.5 46q-30 -5 -72 -5q-52 0 -120 8q-126 14 -189 38q3 -140 96 -198t281 -60h13q149 0 217 44q72 46 79 161q1 9 1 18q0 81 -50 115q-56 38 -164 37q-78 0 -128 5t-73.5 15.5t-31.5 21t-9 27.5q-2 32 20 51t75 19q35 0 56 -4t29.5 -15 t10 -20t0.5 -27q24 2 48 2q45 0 91 -7q72 -11 110 -25l37 -15q9 55 9 104q0 23 -2 47q-7 68 -36 117t-101.5 76t-188.5 27q-138 0 -211 -21q16 20 -4 56q-19 28 -41 28q-15 0 -31 -12q-7 -7 -14.5 -26.5t-15 -30.5t-17.5 -4q-8 6 -9 12t4 13t11.5 14t14 17t10.5 19 q7 17 -5.5 30t-45.5 13t-46 -13t-8 -30q3 -9 11.5 -21.5t14.5 -20t9.5 -17.5t-4.5 -14q-14 -9 -22 0.5t-16 31t-15 29.5q-9 14 -30.5 10.5t-37.5 -30.5q-15 -30 -8 -46.5zM430 836q-15 18 0 28q12 7 23 -4q-4 -4 -11.5 -12t-11.5 -12zM455 895q0 4 2 7t5.5 4t7.5 1 t10.5 -0.5t11.5 -1.5t12.5 -2t11.5 -2q-28 -14 -37 -20q-24 0 -24 14z" />
<glyph unicode="T" horiz-adv-x="1226" d="M82 772q4 82 16.5 152.5t51 129t98.5 100t158.5 64.5t230.5 23q133 0 231 -23t158 -64.5t97.5 -100t49.5 -129.5q12 -70 14 -152v-26q0 -70 -9 -144q-8 -84 -17.5 -147t-28.5 -133t-45 -120t-67.5 -97.5t-95 -77t-128.5 -47t-167 -17.5t-166.5 17.5t-128 47t-94 77 t-66 97.5t-43.5 120t-27 133t-16 147q-7 65 -7 127q0 22 1 43zM274 829q3 -66 7 -105l4 -40q10 1 19 1q45 -1 82 -17q44 -20 79.5 -67.5t55.5 -137.5t24 -219q10 -2 32 0.5t39 5.5l17 4q0 47 4 121q19 -24 39 -26t31 13q10 11 18 36.5t16 37.5t23 2q8 -5 8 -12.5t-6 -16.5 t-13 -18t-15 -20t-11 -19q-8 -22 7 -38.5t52 -16.5q38 0 51.5 16t8.5 39q-2 10 -12.5 24t-19.5 24t-13 22t8 18q15 9 25 -7t19.5 -42.5t18.5 -34.5q14 -12 27 -12q25 0 49 41q12 23 12 40q0 26 -30 36q-15 4 -35.5 0.5t-38.5 -1.5t-18 15q0 15 16.5 15.5t41.5 -4.5t36 -3 q23 7 30 27.5t-12 56.5q-13 21 -29 28.5t-28.5 4t-22.5 -13.5q-9 -8 -18 -31.5t-17.5 -36.5t-21.5 -4q-12 7 -9 19t10.5 20t19.5 23t16 28q8 21 -7 37t-52 16t-52 -15.5t-8 -37.5q3 -11 12.5 -26t17 -24.5t11 -21t-7.5 -16.5q-15 -11 -24 1t-18 37t-17 34q-7 12 -29 16 q36 88 114 128q68 35 186 35q18 0 36 -1l4 166q-192 30 -378 34q-49 1 -93 1q-117 0 -182 -8l-89 -11q-2 -26 -2 -56t2 -63zM645 465q0 3 1 9t1 9q15 -3 39.5 2.5t38 5.5t14.5 -14q1 -10 -5.5 -14t-18 -3.5t-24.5 2t-25 3.5t-21 0z" />
<glyph unicode="U" d="M82 828q4 82 17.5 152.5t55 129t106.5 99.5t171.5 64t249.5 23q97 0 176 -10.5t139 -29t106 -48t77 -62t51.5 -77.5t31 -88.5t13.5 -100.5q2 -31 2 -60q0 -24 -1 -48q-2 -50 -9 -115q-9 -84 -19.5 -147t-31 -133t-48.5 -120t-72.5 -97.5t-102.5 -77t-139 -47t-181 -17.5 t-181 17.5t-138 47t-101 77t-71.5 97.5t-46.5 120t-29 133t-17 147q-8 68 -8 131q-1 20 0 40zM352 983q2 -9 4.5 -29.5t6.5 -96.5q2 -34 2 -72q0 -48 -3 -103q6 -3 9 -6q6 -8 14 -30t16.5 -32.5t22.5 -1.5q8 4 4.5 14.5t-9.5 18.5t-14.5 21t-11.5 22q-5 20 7 33.5t46 13.5 q33 0 46 -14t6 -33q-3 -9 -10.5 -19.5t-14 -17.5t-11.5 -14.5t-4 -14t9 -12.5q10 -8 17.5 3.5t15.5 32.5t16 28q10 13 31.5 11t38.5 -28q17 -31 11 -48.5t-26 -22.5q-10 -3 -32.5 1t-37 4t-14.5 -13q0 -12 15 -14t33 1t32 0q20 -5 26 -20.5t-9 -46.5q-16 -28 -35.5 -33 t-30.5 8q-9 7 -17 30.5t-16.5 37.5t-21.5 6q-11 -5 -8 -15.5t11 -19t18 -21.5t12 -22q3 -20 -9 -32.5t-45 -12.5t-46.5 14t-6.5 31q3 8 10 17.5t13.5 17.5t11.5 16t5 14.5t-7 10.5q-14 9 -20.5 -1.5t-13 -33t-15.5 -31.5q-4 -4 -6 -4q21 -109 93 -155q52 -34 143 -34 q35 0 77 5q46 5 102.5 19t90 24t78.5 14q12 1 22 2q29 0 45 -10q-1 16 -2.5 44.5t-3.5 105.5q-2 55 -2 103v38q1 78 4.5 165t6.5 135l3 48q-32 -4 -78.5 -4t-77.5 2l-30 2q3 -31 7 -79t11 -148q6 -87 6 -130v-12q0 -9 -1 -32.5t-1.5 -32t-2 -27.5t-4 -27t-7 -21.5 t-11.5 -19.5t-16 -14t-22 -11.5t-29 -4.5q-20 -2 -34.5 1t-24.5 9.5t-16.5 17t-10 24t-5 29.5t-1.5 34.5v38.5v22q0 334 -41 381l-6 4q-66 -8 -124 -8q-3 1 -7 1q-62 0 -104 4zM358 565q11 -1 17 -1t13.5 1t10.5 5t2 10q-1 11 -13.5 11.5t-29.5 -3.5v-23z" />
<glyph unicode="V" d="M82 828q4 82 17.5 152.5t55 129t106.5 99.5t171.5 64t249.5 23q97 0 176 -10.5t139 -29t106 -48t77 -62t51.5 -77.5t31 -88.5t13.5 -100.5q2 -31 2 -60q0 -24 -2 -48q-2 -50 -8 -115q-9 -84 -19.5 -147t-31 -133t-48.5 -120t-72.5 -97.5t-102.5 -77t-139 -47t-181 -17.5 t-181 17.5t-138 47t-101 77t-71.5 97.5t-46.5 120t-29 133t-17 147q-8 68 -8 131q-1 20 0 40zM305 958q42 -123 61.5 -183t59.5 -202.5t78 -304.5q27 4 90 4q49 0 107.5 -4t92.5 -8l33 -4q43 176 113 412l-4 4q-7 6 -14.5 27.5t-15.5 34.5t-21 5q-8 -5 -8 -11t5 -13.5 t12 -14.5t13 -16t8 -16q3 -17 -8 -30t-41 -13q-31 0 -43.5 13t-7.5 30q3 8 12 20t15.5 19.5t9.5 17.5t-6 14q-12 7 -18 -3t-12.5 -30.5t-16.5 -29.5q-9 -13 -27.5 -9.5t-34.5 29.5q-16 29 -11.5 43t22.5 19q13 4 31 0t33.5 -2.5t14.5 14.5q-1 8 -6 10.5t-12.5 1l-17.5 -3.5 t-19.5 -4t-19.5 0q-19 5 -25.5 21.5t6.5 46.5q14 27 35.5 29.5t30.5 -11.5q6 -7 13 -27.5t15 -30.5t21 -1q8 4 5 14t-9 17.5t-14 19.5t-11 20q-5 17 6.5 30t42.5 13q32 0 44.5 -13t5.5 -30q-3 -10 -12.5 -22.5t-16 -19t-9 -16t8.5 -15.5q10 -7 17 4t14 30t14 25q13 13 27 13 q17 0 34 -21q11 34 34 100t26 76q-95 -20 -285 -20l-78 2q-56 -403 -73 -476t-33 -73q-21 0 -49 114.5t-78 387.5q-48 -9 -97 -9q-33 0 -57 6zM907 768q0 -5 3.5 -8t10.5 -3.5t13.5 0t16.5 1t16 0.5l6 16q-5 0 -26.5 4t-30.5 2t-9 -12z" />
<glyph unicode="W" horiz-adv-x="1517" d="M82 742q-1 16 -1 32q-1 36 3 76q4 56 17.5 99.5t38 88.5t61 78t91 62.5t124.5 48t162.5 29t205.5 10.5q112 0 204.5 -10.5t162 -29t123 -48t90 -62.5t60 -78t36 -88.5t16.5 -99.5q2 -30 2 -60q0 -25 -2 -48q-3 -51 -10 -115q-10 -85 -22.5 -148t-36 -133t-56.5 -120 t-85 -97.5t-119.5 -76.5t-162.5 -46.5t-212 -17.5t-211 17.5t-161 46.5t-118.5 76.5t-83 97.5t-54.5 120t-34 133.5t-20 147.5q-6 64 -8 115zM346 256q130 50 286 50q2 0 4 1q154 0 368 -43q28 -6 51 -6q36 0 64 14q45 22 63 74q18 51 24 127q2 31 3 65q0 49 -5 105 q-6 103 -6 171q0 25 1 46q3 75 11 98l9 23q-5 -2 -15 -4q-10 -3 -42 -5q-7 -1 -15 0q-26 0 -51 7q-2 -1 -4.5 -6t-10 -28t-11 -63t-6.5 -112q-1 -24 -1 -51q0 -55 4 -123q3 -45 2 -75q0 -41 -4 -57q-13 -45 -66 -46q-16 0 -28 7t-19 23t-11.5 31.5t-6 44t-2 48t-0.5 55.5 q-22 -2 -41 -2q-78 0 -125 26v-30.5t0.5 -29t-1 -23.5t-4 -21.5t-7.5 -15.5t-12.5 -12.5t-19 -5.5t-26.5 -1t-26 6t-18.5 9.5t-12.5 15.5t-7.5 18t-3.5 23.5t-1.5 24.5t0 29t0.5 30q0 75 3 150.5t6 113.5l3 39q-100 -12 -172 -11.5t-117 11.5q10 -179 12 -359v-36 q0 -72 -3 -143q-4 -89 -9 -133zM705 814q-5 -17 12 -48q23 -35 45 -35q12 0 24 12q9 10 16.5 33.5t14.5 34.5t21 2q7 -5 7 -11.5t-5 -14.5t-11.5 -16.5t-13.5 -18t-10 -17.5q-8 -20 5 -34.5t48 -14.5q34 0 46 14t7 35q-2 9 -11.5 22t-17.5 22t-11 20t8 16q14 8 23 -6.5 t17 -38.5t15 -31q13 -12 25 -12q22 0 42 37q16 33 10.5 49t-26.5 21q-13 4 -31.5 0.5t-34.5 -2t-16 13.5q0 14 15 14.5t38 -4t33 -2.5q20 7 26.5 25.5t-9.5 50.5q-20 30 -43 30q-15 0 -31 -12q-8 -7 -15.5 -28.5t-15 -33.5t-18.5 -3q-8 6 -9 12.5t4 14t12 15t14.5 18 t10.5 20.5q7 20 -6.5 34.5t-46.5 14.5q-34 0 -47 -14t-8 -35q3 -10 12 -23t15.5 -21.5t10 -19t-4.5 -14.5q-15 -10 -24 0t-17 33.5t-15 31.5q-11 16 -32 12t-37 -34q-16 -31 -9 -50t27 -24q9 -2 21.5 0t22.5 4.5t19.5 4t14.5 -1.5t6 -11q1 -10 -5.5 -14t-17 -3.5t-22.5 2 t-23 3t-18 -1.5q-21 -5 -26 -22z" />
<glyph unicode="X" d="M82 738q4 82 17.5 152.5t55 129t106.5 99.5t171.5 64t249.5 23q97 0 176 -10.5t139 -29t106 -48t77 -62t51.5 -77.5t31 -88.5t13.5 -100.5q2 -31 2 -60q0 -24 -2 -48q-2 -50 -8 -115q-9 -84 -19.5 -147t-31 -133t-48.5 -120t-72.5 -97.5t-102.5 -77t-139 -47t-181 -17.5 t-181 17.5t-138 47t-101 77t-71.5 97.5t-46.5 120t-29 133t-17 147q-8 68 -8 131q-1 20 0 40zM295 983q23 -46 29 -123q22 0 30 -14q7 -8 15 -31t16 -33t21 0q9 4 6 14.5t-9 19t-14.5 21.5t-11.5 23q-5 20 6.5 33.5t44.5 13.5t45.5 -14t7.5 -33q-4 -12 -14.5 -25.5t-17 -21 t-9 -18t8.5 -15.5q11 -8 18.5 4t15 33t15.5 27q6 6 14 9.5t17 3.5t19 -7.5t19 -22.5q16 -32 10 -49t-26 -24q-9 -2 -31 2t-36.5 3.5t-14.5 -14.5q0 -11 15 -12t33 1.5t32 -1.5q26 -7 26 -29q0 -15 -12 -38q-21 -36 -41 -36q-11 0 -22 11q-7 7 -15.5 31t-17.5 38t-23 5 q-10 -5 -7 -15.5t11 -19t17.5 -21.5t11.5 -22q3 -20 -8.5 -33.5t-42.5 -13.5q-33 0 -46.5 14t-6.5 33q3 9 12.5 22t16.5 21.5t10 19.5t-6 15q-13 8 -19.5 -3t-13.5 -33t-17 -32q-9 -12 -24 -12q4 -28 11 -49t14 -35t21 -23.5t23 -14t29.5 -6.5t31 -2.5t36.5 -0.5q13 0 18 -9 t0 -18.5t-18 -9.5h-5q-81 -1 -115 -31q-34 -32 -34 -78q0 -144 -22 -182q32 -2 59 -2q52 0 87 6q53 10 80.5 46.5t34.5 80.5t9 131q0 30 14 49.5t49 18.5q55 -1 66.5 -28.5t11.5 -129.5q0 -26 4.5 -47t10.5 -32t12.5 -18t11.5 -9l4 -2q22 -1 46 -1q118 0 263 17q-4 3 -11 9 q-6 5 -16 35q-9 27 -9 64v7q1 35 -10 58.5t-25.5 35.5t-45 18.5t-53.5 7.5t-67 1q-21 0 -23 17q-2 16 15 19h6q103 0 134.5 32t31.5 124q0 119 5.5 178t12 72.5t23.5 32.5q-133 17 -163 17h-3q-60 -2 -80 -43q-22 -45 -23 -212v-31q0 -108 -49 -108h-2q-42 1 -59 20t-24 80 t-7 209q0 24 -4.5 41.5t-10.5 26.5t-12.5 14.5t-11.5 6.5l-4 1q-48 2 -98 2q-100 0 -207 -8zM328 737q43 -6 52 -1q6 4 5 14q-1 6 -4 8.5t-9 2.5t-11.5 -1t-15.5 -3t-17 -3v-17z" />
<glyph unicode="Y" d="M82 834q4 82 17.5 153t55 129t106.5 100t171.5 64.5t249.5 22.5q97 0 176 -10.5t139 -29t106 -48t77 -62t51.5 -77.5t31 -88.5t13.5 -100.5q2 -31 2 -60q0 -25 -2 -47q-2 -51 -8 -116q-9 -84 -19.5 -147t-31 -133t-48.5 -120t-72.5 -97.5t-102.5 -77t-139 -47t-181 -17.5 t-181 17.5t-138 47t-101 77t-71.5 97.5t-46.5 120t-29 133t-17 147q-8 67 -8 130v40zM319 512v-6q0 -51 16 -90q17 -41 45 -64.5t71.5 -38t85 -20t96.5 -6.5h23q151 0 220 38q74 41 97 156q13 57 13 135q0 20 -1 41q-6 3 -10 7q-7 7 -14 29t-15 35t-20 5q-10 -4 -7 -14.5 t9.5 -18.5t15 -20.5t10.5 -20.5q4 -18 -7 -30.5t-40 -12.5t-40.5 13t-4.5 30q2 8 10.5 20.5t14.5 20.5t9 18.5t-5 14.5q-12 8 -18 -2.5t-12 -31t-15 -29.5q-9 -14 -26.5 -11t-33.5 29q-10 20 -10 35q0 21 23 31q6 2 15 0.5t19 -3t19 -2t15 3t5 11.5q-1 12 -12 12t-29.5 -4 t-29.5 -2q-17 3 -23.5 20.5t6.5 47.5q13 27 32.5 30.5t29.5 -12.5q6 -7 12 -27.5t13.5 -30.5t19.5 -1q8 4 5.5 13.5t-8.5 17t-14 20t-10 20.5q-3 19 7.5 32t39.5 13t40.5 -13t6.5 -32q-4 -10 -13 -22.5t-15 -19t-8 -16.5t8 -15q9 -8 15.5 3t13.5 30.5t14 25.5l6 6 q4 101 12 158q-60 -19 -155 -20h-6q-91 0 -148 16q5 -106 5 -180q0 -7 -1 -14q0 -77 -3 -120.5t-13.5 -64t-20 -25t-28.5 -4.5t-29.5 3.5t-19.5 19t-12.5 39t-5.5 70.5v42q0 30 1 64q2 58 6 153q-48 -13 -109 -17h-27q-46 0 -85 9q11 -53 11 -190.5t26 -182.5 q29 -48 102 -68q50 -14 133 -14q37 0 80 3q16 1 30 1q38 0 58 -10q26 -14 25 -53q-3 -69 -139 -72q-17 0 -27.5 2t-25.5 9.5t-21.5 28.5t-3.5 53q-38 -4 -78 -4q-92 0 -191 20zM948 762q0 -12 31 -12v24q-31 4 -31 -12z" />
<glyph unicode="Z" d="M82 788q4 82 17.5 153t55 129t106.5 100t171.5 64.5t249.5 22.5q97 0 176 -10.5t139 -29t106 -48t77 -62t51.5 -77.5t31 -88.5t13.5 -100.5q2 -31 2 -60q0 -23 -2 -47q-2 -50 -8 -116q-9 -84 -19.5 -147t-31 -133t-48.5 -119.5t-72.5 -97.5t-102.5 -77t-139 -46.5 t-181 -17.5q-78 0 -144.5 10.5t-118 29t-94 48t-73 62.5t-55 77.5t-40.5 88t-28 100t-18.5 107.5t-12.5 115q-8 67 -8 130q-1 20 0 40zM336 983q-1 -32 0 -64q0 -158 16 -305q123 15 221 15q76 0 106 -10t30 -39q0 -34 -25.5 -46t-110.5 -20q-82 -7 -121 -42 q-38 -34 -42 -92q-2 -27 -2 -59q0 -37 2 -81q22 2 64.5 5t187.5 7q57 2 115 2q91 0 188 -4q-2 36 -1 62t3 40l2 15q-26 -2 -67.5 -5.5t-135.5 -7.5q-57 -3 -100 -3q-28 0 -50 1q-26 0 -38.5 8.5t-12.5 30.5q-1 14 4.5 21.5t31 13.5t67.5 8.5t125 5.5q44 2 74 12.5t52.5 36.5 t36 62t22 99t12 136t5.5 185q-77 -6 -164 -6q15 -33 7.5 -52t-29.5 -26q-11 -3 -36 2t-41.5 4.5t-16.5 -14.5t16.5 -16t41.5 0.5t34 0.5q31 -9 31 -36q0 -17 -13 -42q-23 -39 -48 -39q-13 0 -27 11q-9 9 -18.5 36t-20 42.5t-25.5 5.5q-12 -6 -8 -17.5t13 -21.5t19.5 -24.5 t12.5 -24.5q5 -23 -8 -38.5t-51 -15.5q-37 0 -52.5 16.5t-7.5 37.5q3 9 11 20t15 20t13 18.5t6 17t-8 12.5q-15 10 -23 -2.5t-16 -38.5t-18 -37q-12 -16 -35 -11.5t-43 35.5q-15 26 -15 44q0 25 29 34q9 3 21 1t25.5 -3t25 -2t18.5 4t6 15q-1 14 -14.5 13.5t-38 -5.5 t-39.5 -2q-23 5 -31 25.5t9 56.5l2 4zM594 969q2 -5 5.5 -13.5t5.5 -13.5t5 -11.5t6 -9.5t7 -5t9 -1t11 5q16 11 -12 47zM681.5 933q0.5 -8 8.5 -15q3 -3 6 -4t6 0t5 2.5t4.5 5t4 6.5t4 8.5t4 9t3.5 9.5t4 10h-31q-10 -11 -14.5 -17.5t-4 -14.5z" />
<glyph unicode="[" horiz-adv-x="899" d="M82 757.5q3 81.5 12 152.5t36 129.5t69 100t111 64.5t161 23q80 0 142 -17.5t104 -47t70.5 -77t43.5 -97.5t21 -120t5 -133.5t-7 -146.5q-5 -84 -12 -147.5t-20 -133.5t-31 -120t-47 -97.5t-66.5 -76.5t-90.5 -46.5t-118 -17.5t-117 17.5t-89.5 46.5t-66 76.5t-46.5 97.5 t-30.5 120t-18.5 133.5t-11 147.5q-7 88 -4 169.5zM311 971q8 -135 13 -371.5t0 -378.5q45 10 109.5 11t106.5 -3l42 -4q-4 39 -4 115q-52 -3 -80 1.5t-49 26t-28 63.5t-7 116q1 116 35 148t133 18l12 266q-103 9 -166 7t-90 -8z" />
<glyph unicode="\" horiz-adv-x="899" d="M82 757.5q3 81.5 12 152.5t36 129.5t69 100t111 64.5t161 23q80 0 142 -17.5t104 -47t70.5 -77t43.5 -97.5t21 -120t5 -133.5t-7 -146.5q-5 -84 -12 -147.5t-20 -133.5t-31 -120t-47 -97.5t-66.5 -76.5t-90.5 -46.5t-118 -17.5t-117 17.5t-89.5 46.5t-66 76.5t-46.5 97.5 t-30.5 120t-18.5 133.5t-11 147.5q-7 88 -4 169.5zM287 963q40 -107 87 -287t74 -307l27 -127q90 -3 143 -11q-12 48 -30 127.5t-54 274.5t-47 330q-110 -18 -200 0z" />
<glyph unicode="]" horiz-adv-x="899" d="M82 757.5q3 81.5 12 152.5t36 129.5t69 100t111 64.5t161 23q80 0 142 -17.5t104 -47t70.5 -77t43.5 -97.5t21 -120t5 -133.5t-7 -146.5q-5 -84 -12 -147.5t-20 -133.5t-31 -120t-47 -97.5t-66.5 -76.5t-90.5 -46.5t-118 -17.5t-117 17.5t-89.5 46.5t-66 76.5t-46.5 97.5 t-30.5 120t-18.5 133.5t-11 147.5q-7 88 -4 169.5zM303 979l12 -266q99 14 133 -18t35 -148q0 -74 -7 -116t-28 -63.5t-49 -26t-80 -1.5q0 -76 -4 -115q156 19 258 -4q-5 142 0 378.5t13 371.5l-9 3t-30.5 5.5t-53.5 5.5t-80 1t-110 -7z" />
<glyph unicode="^" horiz-adv-x="481" d="M82 1446q50 123 82 233q28 -3 68.5 -2t77.5 3l38 3q37 -129 92 -260q-22 4 -59 5.5t-63 1.5h-27q-14 91 -29.5 126.5t-34 9t-37.5 -119.5q-83 4 -108 0z" />
<glyph unicode="_" horiz-adv-x="843" d="M82 -395q-1 29 5 49.5t27.5 42t60 34.5t106.5 21t163 8t162.5 -8.5t105.5 -21t59 -34t27 -42t5 -49.5q-1 -37 -13.5 -61.5t-48 -47t-109.5 -34t-188 -11.5q-113 0 -187.5 11.5t-111 34t-49.5 47.5t-14 61z" />
<glyph unicode="`" horiz-adv-x="360" d="M63 1147q-10 43 17.5 71.5t101.5 28.5q71 0 94 -26.5t23 -73.5l-10 -146q-3 -1 -8.5 -2t-20.5 -3t-22 1q-2 33 -27.5 55t-55.5 31t-58 25.5t-34 38.5z" />
<glyph unicode="a" d="M82 758q4 82 17.5 152.5t55 129t106.5 100t171.5 64.5t249.5 23q96 0 176 -10.5t139.5 -29t105.5 -48t77 -62.5t51.5 -78t30.5 -89q11 -44 14 -100q2 -32 2 -60q0 -24 -2 -47q-2 -51 -8 -115q-9 -84 -19.5 -147.5t-31 -133.5t-48.5 -120t-72.5 -97.5t-102.5 -76.5 t-139 -46.5t-181 -17.5t-181 17.5t-138.5 46.5t-101 76.5t-71 97.5t-46.5 120t-29 133.5t-17 147.5q-8 67 -8 130q-1 20 0 40zM379 725q133 18 226 18q62 0 106 -8q-5 41 7 61.5t58 21.5q39 -1 61 -18t25.5 -38.5t-0.5 -41t-12 -26.5q-9 -9 -32.5 -14.5t-58 -6t-61 0 t-65.5 2.5t-47 2h-9q-79 0 -124 -52q-50 -57 -50 -146q0 -161 66 -218q49 -43 149 -43q36 0 78 6q143 0 336 41q-12 27 -14 119q-1 31 -1 60q0 58 3 110l4 78q2 28 2 53q0 50 -8 90q-12 59 -46.5 103.5t-100 66t-164.5 21.5q-69 0 -112 -2.5t-84.5 -11t-64 -24.5t-40.5 -43 t-24 -66q-4 -29 -4 -66q0 -14 1 -29zM524 532q1 19 4 29.5t14.5 22.5t37.5 17t67 5t66.5 -5t35.5 -17t12.5 -22.5t2.5 -29.5q-1 -19 -4.5 -29.5t-15 -22t-37.5 -16.5t-68 -5q-41 0 -66.5 5t-35.5 16.5t-12 22t-1 29.5z" />
<glyph unicode="b" d="M82 808q4 82 17.5 153t55 129.5t106.5 100t171.5 64.5t249.5 23q96 0 176 -10.5t139.5 -29t105.5 -48t77 -62.5t51.5 -78t31 -88.5t13.5 -99.5q2 -30 2 -60q0 -24 -1 -48q-2 -51 -9 -115q-9 -84 -19.5 -147t-31 -133t-48.5 -120t-72.5 -97.5t-102.5 -77t-139 -47 t-181 -17.5t-181 17.5t-138 47t-101 77t-71.5 97.5t-46.5 120t-29 133t-17 147q-8 67 -8 130q-1 19 0 39zM356 987q58 -258 58 -510q0 -80 -6 -158q235 -44 396 -44q23 0 44 1q26 2 38 3.5t35 9t35 20t22.5 38t12.5 61.5q1 12 1 23q0 32 -6 55q-8 31 -26 44.5t-35 18 t-40 4.5q-12 0 -16.5 8.5t0 17.5t16.5 11q54 8 72 17q73 36 81 184q1 16 1 30q1 53 -11 91q-14 48 -49 72t-77 32q-30 5 -71 5q-16 0 -34 -1q-185 -8 -441 -33zM520 481q-1 25 1.5 40t12 30.5t33 23t60.5 7.5q31 0 52 -5.5t32 -13.5t16 -23t6 -27t0 -32q0 -24 -2.5 -38.5 t-12.5 -30t-32 -22.5t-57 -7q-36 0 -58.5 7t-33 22.5t-13.5 30t-4 38.5zM625 719q-1 18 1.5 28t14 20.5t38.5 15.5t71 5t70.5 -4.5t37.5 -16t13.5 -21t2.5 -27.5q-1 -18 -4 -28t-14.5 -21t-37.5 -16t-68 -5t-68 5t-37.5 16t-15 21t-4.5 28z" />
<glyph unicode="c" d="M82 788q4 82 17.5 153t55 129t106.5 100t171.5 64.5t249.5 22.5q97 0 176 -10.5t139 -29t106 -48t77 -62t51.5 -77.5t31 -88.5t13.5 -100.5q2 -31 2 -60q0 -23 -1 -47q-2 -50 -9 -116q-9 -84 -19.5 -147t-31 -133t-48.5 -119.5t-72.5 -97.5t-102.5 -77t-139 -46.5 t-181 -17.5q-78 0 -144.5 10.5t-118 29t-94 48t-73 62.5t-55 77.5t-40.5 88t-28 100t-18.5 107.5t-12.5 115q-8 67 -8 130q-1 20 0 40zM325 658q1 -42 5 -99q5 -71 15 -121t32 -99t56.5 -78.5t91.5 -47.5t134 -18q68 0 113.5 3t90.5 13t72.5 28t50 47.5t32.5 73t10 103.5 q-88 -15 -196 -21q-42 -3 -81 -2q-60 0 -114 6q2 -19 2 -35q0 -92 -72 -92q-25 0 -41.5 14t-26.5 46.5t-15.5 71t-10.5 102.5q-2 32 -2 60q1 53 9 85q14 50 59 52h6q41 0 53 -42q6 -22 6.5 -71t-6.5 -123q17 0 80.5 -1t103 -1t96 4t95.5 12q15 75 15 141q0 65 -18 125 q-18 62 -55.5 107t-104.5 72.5t-159 27.5q-69 0 -122 -13t-88.5 -33.5t-59 -54.5t-35.5 -68q-14 -35 -18 -84q-4 -40 -3 -75v-15z" />
<glyph unicode="d" d="M82 834q4 82 17.5 153t55 129t106.5 100t171.5 64.5t249.5 22.5q97 0 176 -10.5t139 -29t106 -48t77 -62t51.5 -77.5t31 -88.5t13.5 -100.5q2 -31 2 -60q0 -23 -1 -47q-2 -50 -9 -116q-9 -84 -19.5 -147t-31 -133t-48.5 -120t-72.5 -97.5t-102.5 -77t-139 -47t-181 -17.5 t-181 17.5t-138 47t-101 77t-71.5 97.5t-46.5 120t-29 133t-17 147q-8 67 -8 130q-1 20 0 40zM324 1010q61 -262 61 -508q0 -87 -8 -172q248 -43 393 -43h18q200 5 230 342q5 50 5 95q0 49 -6 89q-11 78 -35.5 122.5t-65.5 69.5q-40 25 -82 31q-28 4 -63 5q-16 0 -32 -1 q-168 -7 -415 -30zM580 596q-1 16 -1 31q1 25 3 43q4 30 15.5 58t39.5 42t72 14q36 0 61 -10t39 -25.5t21 -42t9 -50.5t1 -60q-2 -45 -6.5 -74.5t-17.5 -58.5t-39 -43t-66 -14q-32 0 -55.5 10t-37.5 26t-22 42.5t-11.5 51.5t-4.5 60z" />
<glyph unicode="e" d="M82 808q4 82 17.5 153t55 129.5t106.5 100t171.5 64.5t249.5 23q96 0 176 -10.5t139.5 -29t105.5 -48t77 -62.5t51.5 -78t31 -88.5t13.5 -99.5q2 -30 2 -60q0 -24 -2 -48q-2 -51 -8 -115q-9 -84 -19.5 -147t-31 -133t-48.5 -120t-72.5 -97.5t-102.5 -77t-139 -47 t-181 -17.5t-181 17.5t-138 47t-101 77t-71.5 97.5t-46.5 120t-29 133t-17 147q-8 67 -8 130q-1 19 0 39zM329 700v-23q0 -40 5 -81q6 -65 16 -110.5t32.5 -90.5t57.5 -71.5t93 -43t137 -16.5q84 0 137 4.5t103 18.5t77 41t43 71.5t17 110.5q-87 -13 -193 -19q-43 -2 -81 -2 q-59 0 -111 5q5 -41 -7 -61.5t-59 -20.5q-53 2 -75 17.5t-21 53.5q0 27 13 38.5t56.5 18t141.5 9.5q70 2 106 3.5t73.5 6.5t52.5 12t29 22t18 33t7 48q2 25 2 48q-1 129 -71 197q-84 80 -266 80q-81 0 -141 -15t-95.5 -42t-58.5 -64.5t-29.5 -82.5t-8.5 -95zM420 696 q-1 18 1.5 28.5t14 22t39.5 16.5t74 5t74 -5.5t40 -16.5t15 -21.5t2 -28.5q-1 -19 -4.5 -29.5t-15.5 -22t-39.5 -16.5t-71.5 -5t-71.5 5t-39.5 16.5t-15 22t-3 29.5z" />
<glyph unicode="f" d="M82 788q4 82 17.5 153t55 129t106.5 100t171.5 64.5t249.5 22.5q97 0 176 -10.5t139 -29t106 -48t77 -62t51.5 -77.5t31 -88.5t13.5 -100.5q2 -31 2 -60q0 -25 -2 -47q-2 -51 -8 -116q-9 -84 -19.5 -147t-31 -133t-48.5 -119.5t-72.5 -97.5t-102.5 -77t-139 -46.5 t-181 -17.5q-78 0 -144.5 10.5t-118 29t-94 48t-73 62.5t-55 77.5t-40.5 88t-28 100t-18.5 107.5t-12.5 115q-8 67 -8 130v40zM346 830q-3 -23 -3 -50q0 -44 9 -96q13 -78 20 -127t12 -101q4 -39 4 -71v-18q-2 -38 -9 -70q88 1 150 1h57q74 -1 100 -3l27 -2q-8 62 -8 98 q0 23 3 37t13.5 28t33.5 19.5t60 3.5q52 0 150 -6q-4 9 -2 39t7 63l5 33q-139 -9 -244 -9q-92 0 -158 7q-83 8 -102 20.5t-22 63.5v13q0 44 19 61q22 19 105 20q39 0 65.5 -11.5t36.5 -29t14 -38.5t-1 -39q56 6 118 6q108 0 234 -19q20 75 24 133v20q0 45 -12 78 q-16 41 -44 68t-76 43t-104.5 22.5t-133.5 6.5q-116 0 -191 -22t-111.5 -65t-45.5 -107z" />
<glyph unicode="g" d="M82 834q4 82 17.5 153t55 129t106.5 100t171.5 64.5t249.5 22.5q97 0 176 -10.5t139 -29t106 -48t77 -62t51.5 -77.5t31 -88.5t13.5 -100.5q2 -31 2 -60q0 -25 -2 -47q-2 -51 -8 -116q-9 -84 -19.5 -147t-31 -133t-48.5 -120t-72.5 -97.5t-102.5 -77t-139 -47t-181 -17.5 t-181 17.5t-138 47t-101 77t-71.5 97.5t-46.5 120t-29 133t-17 147q-8 67 -8 130v40zM282 750v-24q0 -41 5 -85q4 -49 9 -85.5t16 -77t27 -68.5t41.5 -54.5t59.5 -42.5t82 -25q42 -7 95 -7h12q54 1 94.5 5.5t81.5 17t69 35.5t50 58t32 87q7 44 7 98v24q-89 -6 -170 -6 q-151 0 -271 21q2 -22 2 -44q0 -34 -4 -71q67 0 106 0.5t59 -7.5t25 -19t3 -36q-2 -28 -27 -38q-19 -8 -66 -8q-14 0 -30 1q-82 4 -113 57.5t-39 180.5q-1 16 -1 31q0 62 17 104q20 51 64 51q68 0 68 -90q0 -26 -6 -59q334 0 401 8q6 75 7 132v8q0 53 -14 92q-14 43 -38 72 t-67 46.5t-98.5 25t-133.5 7.5q-85 0 -148.5 -16.5t-101.5 -45t-63 -67.5t-32.5 -86t-9.5 -100z" />
<glyph unicode="h" d="M82 828q4 82 17.5 152.5t55 129t106.5 99.5t171.5 64t249.5 23q97 0 176 -10.5t139 -29t106 -48t77 -62t51.5 -77.5t31 -88.5t13.5 -100.5q2 -31 2 -60q0 -24 -2 -48q-2 -50 -8 -115q-9 -84 -19.5 -147t-31 -133t-48.5 -120t-72.5 -97.5t-102.5 -77t-139 -47t-181 -17.5 t-181 17.5t-138 47t-101 77t-71.5 97.5t-46.5 120t-29 133t-17 147q-8 68 -8 131q-1 20 0 40zM340 283q11 2 28 5q16 2 65 6q14 1 26 1q31 0 53 -6q-3 37 -3 66q1 27 3 48q6 43 26 63t43 25t66 5q33 0 55.5 -3.5t44.5 -15t31 -31.5q8 -20 14 -54q2 -12 3 -25q0 -25 -7 -56 q5 1 14 3t35.5 6t52.5 5t61 -1.5t65 -10.5q-1 38 -1 91q1 28 1 58q0 92 9 290.5t28 300.5q-70 -19 -165 -19q-89 0 -200 17q9 -111 10 -189q0 -14 1 -28q-1 -59 -5 -95q-4 -44 -16 -68.5t-24.5 -31t-32.5 -6.5q-24 0 -35.5 10t-19.5 55q-6 45 -8 115q-1 42 -1 110v103 q-6 -2 -19 -4q-14 -2 -68 -4q-13 -1 -26 0q-45 0 -102 6q21 -187 21 -348q-1 -4 -1 -8q0 -165 -11 -275z" />
<glyph unicode="i" horiz-adv-x="921" d="M82 786q2 80 11 150t37 128t71.5 99t115 63.5t166.5 22.5t166 -22.5t114 -63.5t70.5 -99t36 -128t10.5 -150v-33q0 -65 -6 -135q-6 -83 -13 -145t-21 -131.5t-32.5 -118.5t-48 -96t-68.5 -75.5t-93 -46t-121 -17.5t-121 17.5t-92.5 46t-68 75.5t-48 96.5t-31 118t-19 131 t-11.5 145.5q-5 64 -5 125q0 22 1 43zM297 870q1 -36 8.5 -61t27.5 -48t61 -34.5t104 -11.5t104 11.5t61 34.5t27 47.5t8 61.5q1 36 -5.5 60.5t-26 47.5t-61.5 34.5t-107 11.5t-107 -11.5t-62 -34.5t-26.5 -47.5t-5.5 -60.5zM324 647q18 -71 24 -169q5 -75 4 -128v-31 l-2 -61q34 12 108 12q7 0 14 1q66 0 119 -5l58 -6q-3 24 -6 62q-2 26 -2 79q1 27 1 61q2 102 17 185q-108 -13 -191.5 -13t-113.5 6z" />
<glyph unicode="j" d="M82 788q4 82 17.5 153t55 129t106.5 100t171.5 64.5t249.5 22.5q97 0 176 -10.5t139 -29t106 -48t77 -62t51.5 -77.5t31 -88.5t13.5 -100.5q2 -31 2 -60q0 -25 -2 -47q-2 -51 -8 -116q-9 -84 -19.5 -147t-31 -133t-48.5 -119.5t-72.5 -97.5t-102.5 -77t-139 -46.5 t-181 -17.5q-78 0 -144.5 10.5t-118 29t-94 48t-73 62.5t-55 77.5t-40.5 88t-28 100t-18.5 107.5t-12.5 115q-8 67 -8 130v40zM338 461q0 -53 6 -98.5t22.5 -74.5t41 -51.5t63.5 -34t87 -17t116 -5.5q160 0 248.5 45t109.5 128q9 40 9 88q0 52 -11 114q-3 17 -8.5 54 t-12.5 100.5t-11 121.5q-4 47 -4 92v19q1 54 10 76h-95h-118q-87 2 -111 4l-25 2q9 -52 9 -147q0 -132 6 -165q14 -71 74 -92q23 -9 57 -12q86 -9 107 -24.5t24 -71.5v-13q0 -49 -20 -67q-24 -19 -111 -20q-42 0 -69.5 13t-37.5 32.5t-14 42.5t2 43q-37 -4 -71 -4 q-29 0 -57 3q-58 7 -121 24.5t-89 21.5q-6 -74 -6 -127z" />
<glyph unicode="k" d="M82 808q4 82 17.5 153t55 129.5t106.5 100t171.5 64.5t249.5 23q96 0 176 -10.5t139.5 -29t105.5 -48t77 -62.5t51.5 -78t31 -88.5t13.5 -99.5q2 -30 2 -60q0 -24 -2 -48q-2 -51 -8 -115q-9 -84 -19.5 -147t-31 -133t-48.5 -120t-72.5 -97.5t-102.5 -77t-139 -47 t-181 -17.5t-181 17.5t-138 47t-101 77t-71.5 97.5t-46.5 120t-29 133t-17 147q-8 67 -8 130q-1 19 0 39zM274 979q53 -236 53 -491q0 -109 -10 -220q19 2 46.5 0.5t52.5 -4.5l24 -2q-8 105 -10 146q-3 19 -1 39.5t6.5 37.5t25 27t55.5 8q58 -3 78 -45q18 -38 18 -114v-15 q-1 -36 3.5 -63t11.5 -39.5t13.5 -19.5t11.5 -8l5 -1q30 -1 61 -1q141 0 290 19q-5 3 -11.5 10.5t-17.5 41.5q-10 31 -10 72v8v12q-1 43 -7 69q-8 30 -29.5 44.5t-49.5 19t-80 4.5q-16 0 -22 10t0 20t22 9q118 0 165.5 28t47.5 117q0 125 5.5 189t12.5 81t23 29 q-59 5 -106 5q-21 0 -39 -1q-60 -3 -99 -30.5t-57.5 -97t-18.5 -195.5q0 -22 -2 -35t-14.5 -25t-36.5 -12q-36 0 -46.5 16t-10.5 48q-3 42 -3 95q0 93 9 222q-59 -4 -149 -6t-150 -2h-60z" />
<glyph unicode="l" horiz-adv-x="1271" d="M82 702v12q0 58 9 122q10 70 32.5 120t65.5 97.5t105.5 76.5t154.5 46.5t210 17.5t210 -17.5t154 -46.5t104.5 -76.5t64.5 -97.5t31 -120q8 -60 8 -115q0 -9 -1 -19q-2 -64 -9.5 -147.5t-18 -146.5t-30 -133t-46 -120t-69.5 -97.5t-98.5 -77t-133.5 -47t-174 -17.5 q-75 0 -139 10.5t-113.5 29t-90.5 48t-70.5 62.5t-52.5 78t-38.5 88.5t-27 100t-18 107.5t-11.5 115q-7 83 -8 147zM332 942q22 -101 30 -285q7 -149 6 -265v-53l-1 -134q109 5 203 5q47 0 90 -1q130 -4 211 -13l81 -10q2 123 9 219t13 131l7 35q-86 -12 -129 -19 q-44 -6 -102 -10q-53 -4 -78 -5q-3 1 -5 1q-25 0 -60.5 8.5t-46.5 19.5t-28.5 36.5t-19.5 51.5t-6 74q-2 30 -2 60q0 18 1 34q2 46 7 118q-59 -9 -98 -9q-2 1 -4 1q-40 0 -59 5z" />
<glyph unicode="m" horiz-adv-x="1581" d="M82 784v10q0 58 12 122q12 69 41 118.5t83.5 96.5t133.5 75.5t196 46t267 17.5q117 0 214 -10.5t169.5 -28.5t128.5 -47.5t94 -62t63 -76.5t37.5 -87t16.5 -99q2 -33 2 -63q0 -22 -2 -43q-2 -50 -10 -114q-10 -83 -23 -145.5t-37.5 -131.5t-59 -118.5t-88.5 -96.5 t-125 -75.5t-170 -46t-222 -17.5q-96 0 -176.5 10.5t-143.5 28.5t-114.5 47.5t-89 62t-67 76.5t-49 87t-34 99t-22.5 106t-15 114q-9 83 -10 145zM377 1008q2 -17 5 -48q4 -32 8 -126q4 -77 3 -153v-34q-1 -81 -4 -171.5t-5 -140.5l-3 -50q26 4 63.5 4t61.5 -2l24 -2 q-12 153 -12 352v31.5v30.5t0.5 26.5t2.5 25.5t5 20.5t8.5 18.5t13 13.5t18.5 11t24 4.5q19 2 33 -1t22.5 -14.5t13 -20.5t6.5 -32.5t2.5 -36t0.5 -44.5v-19q0 -132 -2 -232.5t-4 -134.5l-3 -34q39 9 87 9t76 -5l28 -4q-21 108 -21 323q0 33 1 53t5 43t11.5 36t22 21.5 t34.5 8.5q40 0 56.5 -17.5t15.5 -49.5t-4 -76q-4 -71 -4 -124q-1 -50 3 -84q6 -70 19 -89l12 -19q42 7 96 7q4 -1 8 -1q59 0 111 -4l52 -4l-3.5 7t-7.5 29.5t-7.5 58.5t-2.5 99.5t6 147.5q5 54 5 103q0 37 -3 69q-6 76 -25 128q-20 54 -66 76q-29 14 -68 14q-23 0 -49 -5 q-222 -44 -378.5 -44t-291.5 51z" />
<glyph unicode="n" d="M82 788q4 82 17.5 153t55 129t106.5 100t171.5 64.5t249.5 22.5q97 0 176 -10.5t139 -29t106 -48t77 -62t51.5 -77.5t31 -88.5t13.5 -100.5q2 -31 2 -60q0 -23 -1 -47q-2 -50 -9 -116q-9 -84 -19.5 -147t-31 -133t-48.5 -119.5t-72.5 -97.5t-102.5 -77t-139 -46.5 t-181 -17.5q-78 0 -144.5 10.5t-118 29t-94 48t-73 62.5t-55 77.5t-40.5 88t-28 100t-18.5 107.5t-12.5 115q-8 67 -8 130q-1 20 0 40zM342 979q3 -17 6.5 -47t9.5 -120q4 -68 5 -135q0 -22 -1 -44q-1 -78 -4.5 -165t-6.5 -135l-3 -48q32 4 78.5 4t77.5 -2l31 -2 q-3 31 -7 81q-6 49 -12 150q-5 77 -4 120v23q0 8 0.5 30t0.5 29.5t1 26t3 25t5 20.5t7.5 19.5t11.5 15t16 13t20.5 7.5t26.5 5q17 2 31 0.5t23.5 -8t16.5 -11.5t11.5 -20t7 -22.5t3.5 -29t1 -31.5v-36v-18q0 -335 40 -387l5 -4q66 8 124 8q3 -1 7 -1q62 0 104 -4l42 -5 q-2 10 -5 33.5t-7 111.5q-1 30 -1 63q0 66 5 144q1 28 1 53q0 61 -8 106q-12 64 -47 110q-36 44 -102 62q-43 12 -101 12q-30 0 -65 -3q-104 -7 -182 -7q-108 0 -166 13z" />
<glyph unicode="o" d="M82 892q4 82 17.5 153t55 129.5t106.5 100t171.5 64.5t249.5 23q96 0 176 -10.5t139.5 -29t105.5 -48t77 -62.5t51.5 -78t31 -88.5t13.5 -99.5q2 -30 2 -60q0 -24 -2 -48q-2 -51 -8 -115q-9 -84 -19.5 -147.5t-31 -133.5t-48.5 -120t-72.5 -97.5t-102.5 -76.5t-139 -46.5 t-181 -17.5t-181 17.5t-138.5 46.5t-101 76.5t-71 97.5t-46.5 120t-29 133.5t-17 147.5q-8 67 -8 130q-1 19 0 39zM318 802q0 -6 1 -13q0 -52 3 -109q6 -72 16 -122t33.5 -103t60 -85t97.5 -52.5t145 -20.5q83 0 144 20.5t98 52.5t61 85t34 103.5t17 121.5q5 64 6 122v5 q0 54 -18 100q-19 48 -56 82.5t-108 54t-174 19.5q-102 0 -173 -19.5t-108.5 -54t-58 -82t-20.5 -105.5zM616 678q0 31 7.5 56.5t22 44.5t40.5 29.5t64 10.5t64 -11t40.5 -28t21.5 -46q8 -30 10 -56q1 -18 1 -41v-25q-2 -50 -7 -82t-18 -64t-40.5 -47.5t-69.5 -15.5 t-69 15.5t-41 47t-19 64.5t-7 82q-1 23 -1 45q1 11 1 21z" />
<glyph unicode="p" d="M82 808q4 82 17.5 153t55 129.5t106.5 100t171.5 64.5t249.5 23q96 0 176 -10.5t139.5 -29t105.5 -48t77 -62.5t51.5 -78t31 -88.5t13.5 -99.5q2 -31 2 -60q0 -25 -2 -48q-2 -51 -8 -115q-9 -84 -19.5 -147t-31 -133t-48.5 -120t-72.5 -97.5t-102.5 -77t-139 -47 t-181 -17.5t-181 17.5t-138 47t-101 77t-71.5 97.5t-46.5 120t-29 133t-17 147q-8 67 -8 130v39zM367 985q61 -261 61 -526q0 -95 -8 -191l258 -8q-6 137 -8 176v7q0 35 18 55q20 23 84 26q149 6 209.5 71.5t62.5 195.5q0 46 -3.5 76t-17 63t-38.5 51.5t-69 28.5 q-35 9 -82 9q-13 0 -27 -1q-41 -3 -229 -17.5t-211 -15.5zM504 666q-1 21 1.5 32.5t13.5 24.5t38.5 19t71.5 6t70.5 -6t37.5 -19t13.5 -24.5t1.5 -32.5q0 -21 -3 -33.5t-14.5 -25.5t-37.5 -19t-68 -6q-43 0 -69 6t-37.5 19.5t-14.5 25t-4 33.5z" />
<glyph unicode="q" d="M82 700q4 81 17.5 152t55 129.5t106.5 100t171.5 64.5t249.5 23q96 0 176 -10.5t139.5 -29t105.5 -48t77 -62.5t51.5 -78t31 -88.5t13.5 -100.5q2 -30 2 -60q0 -24 -2 -47q-2 -51 -8 -115q-9 -84 -19.5 -147.5t-31 -134t-48.5 -120.5t-72.5 -97.5t-102.5 -77t-139 -47 t-181 -17.5t-181 17.5t-138.5 47t-101 77t-71 98t-46.5 120.5t-29 133.5t-17 147.5q-8 67 -8 130v40zM324 703q-1 -11 -1 -23q0 -32 5 -66q5 -52 12.5 -90.5t23 -80.5t41 -70t63 -52t92.5 -35q51 -10 116 -10h12q16 0 21.5 -11.5t-9.5 -33.5q-1 -1 -11 -12t-15.5 -17.5 t-13.5 -17.5t-13.5 -22t-7.5 -21q-3 -13 -3 -24q0 -29 19 -51q26 -29 97 -29q69 0 94 31q19 21 19 50q0 11 -3 23q-4 18 -16.5 35t-38.5 40t-29 26q-13 13 -11 26.5t21 16.5q56 8 98 30t67 50t42 71.5t25 82.5t14 95q6 51 6 89t-8.5 79t-32 69.5t-63 52t-103 35t-149.5 11.5 q-85 0 -149 -12t-103 -34t-64 -53t-33.5 -68t-10.5 -80zM618 555q-1 18 -1 34q0 19 1 33q4 28 16.5 53.5t41.5 38.5t76 13q46 0 75.5 -12.5t42.5 -39t16 -53.5q3 -20 3 -49v-18q-2 -41 -7 -67t-18 -52t-40.5 -38.5t-69.5 -12.5t-69 12.5t-41 38t-19 52.5t-7 67z" />
<glyph unicode="r" d="M82 786q4 82 17.5 152.5t55 129t106.5 100t171.5 64.5t249.5 23q96 0 176 -10.5t139.5 -29t105.5 -48t77 -62.5t51.5 -78t30.5 -89q11 -44 14 -100q2 -32 2 -60q0 -24 -1 -47q-2 -51 -9 -115q-9 -84 -19.5 -147t-31 -133t-48.5 -120t-72.5 -97.5t-102.5 -77t-139 -47 t-181 -17.5t-181 17.5t-138 47t-101 77t-71.5 97.5t-46.5 120t-29 133t-17 147q-8 67 -8 130q-1 20 0 40zM328 948q60 -258 61 -508q0 -86 -8 -172q14 1 42.5 -0.5t50.5 -3.5l22 -2q-5 115 -7 154q-3 17 -1 36t7 35t25.5 25.5t54.5 7.5q55 -3 75 -35q17 -28 16 -86v-18v-14 q0 -31 4 -55q4 -30 11 -44t14.5 -22.5t12.5 -10.5l5 -2q29 -1 69 -2t142 -3q29 -1 51 -1q54 0 63 4q-2 4 -5.5 11.5t-8 35t-0.5 60.5q3 34 -2 59t-19 39.5t-28 23.5t-36.5 11.5t-36.5 3t-35.5 -0.5t-26.5 -1q-11 -1 -14.5 9t0.5 20t12 10q5 0 26 2t29.5 3t29 4.5t30.5 8.5 t27.5 14t27 20.5t22.5 29.5t20 40t13 51.5t8 64.5q1 16 1 31q0 35 -5 62q-7 39 -30 73.5t-74 50.5q-41 13 -99 13q-15 0 -30 -1q-53 -2 -273 -16t-233 -15zM664 666q0 15 2.5 23.5t13.5 18t37.5 13.5t70.5 4q58 0 87 -9t34 -19.5t4 -30.5q-1 -16 -4 -24.5t-14.5 -18.5 t-37.5 -14.5t-69 -4.5q-42 0 -68 4.5t-37.5 14.5t-14.5 18.5t-4 24.5z" />
<glyph unicode="s" d="M82 828q4 82 17.5 152.5t55 129t106.5 99.5t171.5 64t249.5 23q97 0 176 -10.5t139 -29t106 -48t77 -62t51.5 -77.5t31 -88.5t13.5 -100.5q2 -31 2 -60q0 -24 -2 -48q-2 -50 -8 -115q-9 -84 -19.5 -147t-31 -133t-48.5 -120t-72.5 -97.5t-102.5 -77t-139 -47t-181 -17.5 t-181 17.5t-138 47t-101 77t-71.5 97.5t-46.5 120t-29 133t-17 147q-8 68 -8 131q-1 20 0 40zM324 485q1 -72 25.5 -120.5t74.5 -75.5t115.5 -38.5t160.5 -12.5h13q147 0 216 44q72 46 79 160q1 10 1 19q0 81 -50 115q-55 38 -164 38q-91 0 -156 3.5t-101.5 9.5t-57.5 15.5 t-27 19t-7 22.5v8q0 60 95 60q35 0 56 -4t29 -14.5t9 -19t0 -26.5q24 1 47 2q72 0 146 -10q98 -12 150 -26l52 -13q9 56 9 105q0 24 -2 47q-7 68 -36 117t-101.5 75.5t-188.5 26.5q-146 0 -213 -19q-168 -48 -168 -241q0 -23 2 -47q3 -31 10.5 -57t21.5 -44t27 -32t34.5 -23 t36 -15t40.5 -9.5t38 -5t38 -3.5q82 -9 100 -21q24 -15 20 -53q-5 -47 -77 -47q-38 0 -57 15t-13 47h-9q-137 0 -218 28z" />
<glyph unicode="t" horiz-adv-x="1269" d="M82 766v11q0 58 9 122q10 70 32.5 120t65.5 97.5t105.5 76.5t154.5 46.5t210 17t209.5 -17.5t153.5 -46t104 -76.5t64 -97.5t31 -120q8 -60 8 -115q-1 -8 -1 -18q-2 -64 -9.5 -148t-18 -147t-30 -133t-46 -119.5t-69.5 -97.5t-98.5 -77t-133.5 -46.5t-174 -17.5 q-84 0 -154 12.5t-122.5 38t-93.5 58t-70 79t-49.5 93.5t-34 109.5t-21.5 118.5t-14 129q-7 84 -8 148zM283 944l12 -190q52 -4 90.5 -15.5t65 -31t44 -49t28 -65.5t15.5 -84.5t7 -102t3 -122.5q1 -41 1 -63q40 9 82 9q52 0 108 -13q1 148 17.5 257t41.5 173.5t64 104 t77.5 54t88.5 17.5q1 8 3 21t5 40.5t2 41.5q-11 4 -33 9.5t-96.5 16.5t-156.5 16q-43 3 -98 3q-50 -1 -111 -3q-128 -4 -260 -24z" />
<glyph unicode="u" d="M82 834q4 82 17.5 153t55 129t106.5 100t171.5 64.5t249.5 22.5q97 0 176 -10.5t139 -29t106 -48t77 -62t51.5 -77.5t31 -88.5t13.5 -100.5q2 -31 2 -60q0 -23 -2 -47q-2 -50 -8 -116q-9 -84 -19.5 -147t-31 -133t-48.5 -120t-72.5 -97.5t-102.5 -77t-139 -47t-181 -17.5 t-181 17.5t-138 47t-101 77t-71.5 97.5t-46.5 120t-29 133t-17 147q-8 67 -8 130q-1 20 0 40zM324 989q2 -11 4.5 -34t5.5 -109q1 -22 1 -45q0 -70 -7 -154q-4 -46 -4 -86.5t4 -76.5q9 -72 36 -121t89 -71q44 -16 107 -16q26 0 54 3q51 5 104.5 13.5t89 16t70.5 12.5 q29 4 54 4h10q29 -1 53 -10q-1 25 -3 65t-4 126q-2 62 -1 102v29l17 391q-32 -4 -78.5 -4t-77.5 2l-31 2q2 -34 4 -88t5 -162q2 -65 1 -106v-45q0 -10 -1 -33.5t-1.5 -34t-2 -31t-4 -31t-7 -26t-11.5 -23.5t-16 -17t-22 -13.5t-29 -5.5q-27 -2 -45.5 7.5t-27.5 22 t-13.5 42.5t-5 47.5t-0.5 58.5v7.5v7v7.5v64q0 106 -5 180q-7 94 -14 114l-8 19q-59 -9 -131.5 -9t-115.5 4z" />
<glyph unicode="v" d="M82 788q4 82 17.5 153t55 129t106.5 100t171.5 64.5t249.5 22.5q97 0 176 -10.5t139 -29t106 -48t77 -62t51.5 -77.5t31 -88.5t13.5 -100.5q2 -31 2 -60q0 -23 -2 -47q-2 -50 -8 -116q-9 -84 -19.5 -147t-31 -133t-48.5 -119.5t-72.5 -97.5t-102.5 -77t-139 -46.5 t-181 -17.5q-78 0 -144.5 10.5t-118 29t-94 48t-73 62.5t-55 77.5t-40.5 88t-28 100t-18.5 107.5t-12.5 115q-8 67 -8 130q-1 20 0 40zM293 991q119 -352 211 -745q47 8 127 8q46 0 100 -2.5t85 -5.5l30 -2q84 355 219 745q-85 -18 -285 -18h-78q-37 -278 -60 -395t-46 -117 t-52 118t-85 416q-54 -8 -105 -8q-34 0 -61 6z" />
<glyph unicode="w" horiz-adv-x="1513" d="M82 734q-1 16 -1 31q-1 36 3 76q4 57 17 100.5t37.5 88.5t61.5 77.5t90.5 62t123 48t162 29t204.5 10.5q143 0 254 -17.5t186.5 -46.5t126.5 -76.5t78 -97.5t37 -120q9 -61 10 -118v-15q-2 -64 -12 -148t-22 -147t-35.5 -133t-56.5 -120t-84.5 -97.5t-119 -76.5 t-161.5 -46.5t-211 -17.5t-210.5 17.5t-160.5 46.5t-118 77t-82.5 97.5t-54.5 119.5t-34 133t-20 147q-6 66 -8 116zM356 238q125 52 284 52h4q158 0 357 -44q26 -5 48 -5q35 0 61 13q42 22 60 74q18 53 24 130q2 31 3 66q0 50 -5 107q-4 89 -4 154q0 41 2 73q4 82 13 112 l9 29q-100 -9 -168 -9t-104 9q-2 -2 -5 -8t-11.5 -30.5t-12 -61.5t-7.5 -102q-1 -24 -1 -51q0 -46 4 -101q2 -44 2 -71t-2 -36q-12 -43 -63 -44q-23 0 -37 12.5t-20.5 38.5t-8.5 51.5t-2 67.5q0 102 5 176t11 98l5 23q-47 -10 -90.5 -10t-83.5 10q6 -75 6 -383v-21v-46 t-2 -37.5t-6.5 -32.5t-12.5 -21.5t-20.5 -15t-30.5 -1.5q-12 1 -22 5t-17 11t-12 14t-7.5 19.5t-4.5 22t-2.5 27t-0.5 28t0.5 31.5t0.5 33q0 91 2.5 194t5.5 160l2 58q-39 -4 -71 -4q-40 0 -69 6q9 -224 11 -408v-33q1 -75 -3 -149q-4 -90 -10 -136z" />
<glyph unicode="x" d="M82 828q4 82 17.5 152.5t55 129t106.5 99.5t171.5 64t249.5 23q97 0 176 -10.5t139 -29t106 -48t77 -62t51.5 -77.5t31 -88.5t13.5 -100.5q2 -31 2 -60q0 -24 -2 -48q-2 -50 -8 -115q-9 -84 -19.5 -147t-31 -133t-48.5 -120t-72.5 -97.5t-102.5 -77t-139 -47t-181 -17.5 t-181 17.5t-138 47t-101 77t-71.5 97.5t-46.5 120t-29 133t-17 147q-8 68 -8 131q-1 20 0 40zM317 291q77 -10 153 -15q64 -4 100 -4h14h39q2 1 4.5 2.5t9.5 10.5t12.5 21.5t10 37t4.5 55.5v34q0 89 9 115q11 30 66 32q35 0 50.5 -20.5t15.5 -49.5q1 -115 13 -148 q17 -51 82 -65q32 -6 84 -6q31 0 69 2q-16 29 -20 49q-2 12 -2 34q0 17 1 40q2 24 -2 43t-16 39t-42 31q-28 10 -68 10h-7q-13 0 -18 9t0 18t18 9q77 1 103 14q55 26 63 140q2 25 2 55v21q0 22 -1 41q0 20 1 36q1 34 3 53t6.5 34.5t7 21t8 14.5t6.5 11q-72 4 -148 6 q-46 1 -79 1h-38l-40 -1q-2 0 -5 -1t-10 -6.5t-13 -14.5t-10.5 -26.5t-4.5 -41.5q0 -133 -6 -185.5t-22 -68t-58 -16.5h-2q-52 0 -52 108q-1 83 -2.5 129t-13.5 83t-20.5 51t-42.5 20t-58.5 3t-88.5 -12q-9 -1 -14.5 -2t-14 -2t-15.5 -2q17 -20 23 -32t12.5 -72.5 t7.5 -177.5q1 -63 13 -94q12 -32 48 -46q33 -14 98 -14h9q15 0 21 -10t0 -19.5t-21 -9.5h-38.5t-34 -1t-33 -3.5t-26.5 -7t-24 -11t-17.5 -17t-14.5 -24t-7 -32t-2 -41.5v-9q0 -42 -8 -73q-9 -34 -18 -44z" />
<glyph unicode="y" d="M82 752q4 81 17.5 152t55 129.5t106.5 100t171.5 64.5t249.5 23q96 0 176 -10.5t139.5 -29t105.5 -48t77 -62.5t51.5 -78t31 -88.5t13.5 -100.5q2 -30 2 -60q0 -24 -2 -47q-2 -51 -8 -115q-9 -84 -19.5 -147.5t-31 -133.5t-48.5 -120t-72.5 -97.5t-102.5 -76.5 t-139 -46.5t-181 -17.5t-181 17.5t-138.5 46.5t-101 76.5t-71 97.5t-46.5 120t-29 133.5t-17 147.5q-8 67 -8 130v40zM354 414v-10q0 -61 22 -104q25 -46 73 -69t99 -31.5t120 -9.5h22q151 0 220 38q75 41 98 155q12 59 12 135v28q-3 93 -7 180q-1 16 -1 35q0 80 14 202 q-64 -19 -164 -21h-17q-88 0 -143 14q2 -153 3 -242v-16q0 -78 -9 -120q-10 -46 -21.5 -59t-33.5 -13q-28 0 -41.5 11.5t-21.5 58.5q-7 42 -7 112v18q1 82 9 236q-43 -14 -110 -16q-10 -1 -20 -1q-53 0 -92 11q9 -45 9 -125v-17v-35q0 -71 3 -130q4 -74 25 -109 q50 -83 255 -83q36 0 77 3q12 1 23 1q44 0 64 -11q25 -12 24 -51q-2 -38 -26 -56t-89 -18q-102 0 -102 92q-36 -4 -73 -4q-91 0 -194 21z" />
<glyph unicode="z" d="M82 808q4 82 17.5 153t55 129.5t106.5 100t171.5 64.5t249.5 23q96 0 176 -10.5t139.5 -29t105.5 -48t77 -62.5t51.5 -78t31 -88.5t13.5 -99.5q2 -30 2 -60q0 -24 -1 -48q-2 -51 -9 -115q-9 -84 -19.5 -147t-31 -133t-48.5 -120t-72.5 -97.5t-102.5 -77t-139 -47 t-181 -17.5t-181 17.5t-138 47t-101 77t-71.5 97.5t-46.5 120t-29 133t-17 147q-8 67 -8 130q-1 19 0 39zM328 1024q8 -97 16 -154q123 15 223 15q74 0 103.5 -10t29.5 -39q0 -34 -25 -46.5t-110 -19.5t-123 -54.5t-46 -153.5q-3 -41 -2 -92q0 -82 7 -189q22 2 65 5 q42 4 187 8q57 2 115 1q91 0 188 -4q-2 35 -2 88v27q0 72 2 139l2 67q-22 -3 -56 -6.5t-132 -10.5q-46 -3 -84 -3q-43 0 -76 4q-33 3 -43 14t-10 35q-1 14 4.5 21.5t31 13.5t67 9t124.5 7q39 2 64.5 6t49 12t37 24t24.5 37t16 56t8 77t4 104q-105 -6 -211 -6q-40 0 -80 1 q-146 3 -257 10z" />
<glyph unicode="{" horiz-adv-x="1003" d="M82.5 788q2.5 82 12.5 153t40.5 129t78.5 100t126.5 64.5t183.5 22.5q126 0 213.5 -32.5t132.5 -90.5t68.5 -138t22.5 -175.5t-7 -202.5q-6 -84 -14 -146.5t-23 -133t-35.5 -120t-53 -97.5t-75 -77t-102 -46.5t-133.5 -17.5q-65 0 -118.5 12.5t-94 38t-72 58t-54 79 t-38 93.5t-26 109.5t-16.5 118.5t-11 129q-8 88 -5.5 170zM236 569q0 -70 22 -95t57 -17q7 2 15 9t13 12t15 18t13 17q13 18 19 25t15 12.5t13.5 -4t7.5 -32.5q3 -28 6.5 -50.5t12.5 -56t20 -59t30.5 -54t44 -47t60 -30.5t78.5 -12q6 84 -2 137q-51 0 -76.5 39t-34.5 127 q-7 73 22 122.5t101 41.5q-2 188 0 303q-48 0 -87.5 -11t-65.5 -28t-46.5 -46t-31.5 -55t-19 -64.5t-11.5 -65.5t-6.5 -68q-7 -40 -15 -38.5t-31 30.5q-9 10 -14 16t-13.5 14.5t-16 14t-15.5 8.5q-33 12 -56 -15.5t-23 -97.5z" />
<glyph unicode="|" horiz-adv-x="737" d="M82.5 811.5q-0.5 95.5 17 175.5t49.5 138.5t93 91t149 32.5q73 0 128 -23t88 -64.5t54 -100t27.5 -129.5t8 -152.5t-4.5 -169.5q-4 -84 -9.5 -147.5t-16 -133.5t-25 -120t-37 -97.5t-52.5 -76.5t-71.5 -46.5t-93.5 -17.5t-93.5 17.5t-71 46.5t-52 76.5t-36.5 97.5 t-24 120t-15 133.5t-9 147.5q-3 106 -3.5 201.5zM291 1016q18 -135 25 -334t5 -331l-2 -132q22 5 48.5 7.5t42.5 2.5h16q1 29 -0.5 151t7 326t24.5 310q-36 -8 -77.5 -8t-65.5 4z" />
<glyph unicode="}" horiz-adv-x="1003" d="M82.5 763.5q2.5 81.5 12.5 152.5t40.5 129.5t78.5 100t126.5 64.5t183.5 23t183.5 -23t126 -64.5t77.5 -100t39.5 -129.5t11 -152.5t-7.5 -169.5q-6 -84 -14 -147t-23 -133t-35.5 -120t-53 -97.5t-75 -77t-102 -47t-133.5 -17.5t-133.5 17.5t-102 47t-74.5 77t-52 97.5 t-34 120t-21.5 133t-12.5 147q-8 88 -5.5 169.5zM336 975l2 -266q37 5 63.5 -9t39 -42t17 -61t1.5 -71q-8 -98 -33 -141t-76 -43q-4 -26 -4.5 -60.5t0.5 -55.5l2 -21q59 0 104.5 22t70.5 52.5t42.5 76.5t23.5 79t11 75q3 24 7.5 34t13 4.5t14 -12t18.5 -25.5q5 -7 7 -10 t6.5 -9t7.5 -9.5t7 -8.5t7.5 -8t7.5 -6.5t7.5 -5.5t7.5 -3q33 -10 56.5 17t23.5 99q0 74 -23.5 102.5t-56.5 16.5q-8 -3 -15.5 -9t-15.5 -14.5t-13.5 -14.5t-13.5 -17q-10 -12 -14.5 -18t-12 -11.5t-11 -2.5t-7 12t-4.5 28q-3 41 -6 69.5t-10.5 66.5t-19 64t-31.5 53.5 t-46.5 44t-66 27.5t-88.5 11z" />
<glyph unicode="~" horiz-adv-x="487" d="M83 652.5q0 53.5 20.5 84t64.5 31.5q61 1 85 -32.5t26 -84.5q0 -26 10.5 -34t20.5 2.5t9 31.5l-2 119q88 -2 129 -12q0 -7 0.5 -31t0 -34t-1.5 -32t-5 -33t-9.5 -28t-15 -26t-22.5 -19t-32 -14t-42 -4q-57 0 -81 16t-27 72q-3 38 -22 39q-17 2 -24 -24q-3 -10 -3 -24 q0 -46 2 -81q-37 -5 -74 -9q-7 73 -7 126.5z" />
<glyph unicode="&#xa1;" horiz-adv-x="946" d="M82.5 767q2.5 77 11.5 144t38 122t74 94.5t118.5 61t171.5 21.5t171.5 -21.5t118 -61t72.5 -94.5t37 -122t11 -144t-7 -161q-6 -80 -13 -139.5t-21.5 -125.5t-33.5 -113.5t-50 -92.5t-71 -72.5t-96 -44t-125 -16.5t-125 16.5t-95.5 44t-69.5 72.5t-48.5 92.5t-31.5 113.5 t-19.5 125.5t-11.5 139.5q-8 84 -5.5 161zM293 416q-4 -35 2 -64t26 -56.5t64 -43.5t109 -16q64 0 108 16t64 43.5t26 56.5t2 64q-5 37 -24 58t-42 31t-45.5 22.5t-38.5 43t-18 80.5q-11 3 -27.5 4t-26.5 1l-11 -1q0 -47 -11.5 -78.5t-29 -45t-39 -24.5t-40 -18.5t-32 -26 t-16.5 -46.5zM293 868q-1 -28 2.5 -48.5t15.5 -41.5t33 -34t59 -21t91 -8q65 0 107 11.5t61.5 34.5t26 47t5.5 60t-8.5 61t-27.5 48.5t-61 35t-103 11.5q-51 0 -87.5 -8.5t-58 -21.5t-34 -34.5t-16.5 -42t-5 -49.5z" />
<glyph unicode="&#xa2;" horiz-adv-x="952" d="M82.5 734.5q2.5 81.5 11.5 152.5t38 129.5t74.5 100t119.5 64.5t174 23t173.5 -23t118.5 -64.5t73 -100t36.5 -129.5t10.5 -152.5t-7 -169.5q-6 -84 -13.5 -147.5t-21.5 -133.5t-33.5 -120t-50 -97.5t-71 -76.5t-96.5 -46.5t-125 -17.5q-70 0 -126 17.5t-96 46.5 t-70.5 76.5t-49.5 97.5t-32.5 120t-20 133.5t-11.5 147.5q-8 88 -5.5 169.5zM287 582q7 -87 49 -142t123 -51q5 1 8 -4.5t2.5 -14t-4.5 -16.5q-4 -9 -31.5 -31.5t-34.5 -46.5q-3 -20 -1.5 -42.5t25 -40t66.5 -17.5t66.5 17.5t24 39.5t-1.5 43q-4 18 -16 34t-27 29t-19 19 q-6 9 -3 20t11 11q86 3 127.5 39t42.5 117q-148 -19 -229 -6q1 -13 -0.5 -24.5t-10.5 -21t-26 -6.5q-22 3 -30.5 21t-12.5 74q-3 43 3 62t26 20q18 2 23.5 -16t-1.5 -70q12 0 50.5 -0.5t61.5 -0.5t56.5 2t57.5 5q6 26 7.5 52.5t-4 59.5t-20.5 58.5t-47 44.5t-78 22 q-9 0 -12.5 11.5t2.5 25.5q5 14 32 36.5t33 53.5q10 45 -11.5 78t-78.5 33t-78 -32.5t-12 -78.5q5 -28 33 -53.5t33 -36.5q6 -14 2.5 -25.5t-12.5 -11.5q-41 -3 -70 -15t-53 -37.5t-34.5 -72t-6.5 -114.5z" />
<glyph unicode="&#xa3;" d="M82.5 782q3.5 82 17 153t55 129t106.5 100t171.5 64.5t249.5 22.5q97 0 176 -10.5t139 -29t106 -48t77 -62t51.5 -77.5t31 -88.5t13.5 -100.5t0.5 -107.5t-8.5 -115.5q-9 -84 -19.5 -147t-31 -133t-48.5 -120t-72.5 -97.5t-102.5 -77t-139 -47t-181 -17.5t-181 17.5 t-138 47t-101 77t-71.5 97.5t-46.5 120t-29 133t-17 147q-11 88 -7.5 170zM348 260q209 12 338 0q205 -21 293.5 26.5t91.5 190.5q-20 -2 -52 -4t-110 -5.5t-131 -2.5q5 -41 -26 -71t-111 -29q-48 2 -73 13.5t-25 45.5q-3 67 34.5 82t151.5 14h39q34 0 47 22t-1 44.5 t-46 23.5q-206 8 -256.5 24t-50.5 85q2 32 21.5 49.5t70.5 17.5q15 0 27 -3t19.5 -7.5t12.5 -14t7.5 -16t3 -19t0.5 -18t-1 -19t-1 -15.5q81 6 164.5 3.5t147.5 -7.5l64 -6q7 67 8.5 125t-15.5 105.5t-51 81.5t-96.5 52.5t-152.5 18.5q-41 0 -69 -1.5t-68.5 -7.5 t-67.5 -17.5t-56.5 -33t-46.5 -52t-26.5 -77.5t-5.5 -106q7 -143 17 -238q6 -96 1.5 -152.5t-12.5 -79.5z" />
<glyph unicode="&#xa5;" d="M82.5 804.5q3.5 81.5 17 152.5t55 129.5t106.5 100t171.5 64.5t249.5 23q96 0 176 -10.5t139.5 -29t105.5 -48t77 -62.5t51.5 -78t31 -88.5t13.5 -100t0.5 -107.5t-8.5 -115q-9 -84 -19.5 -147.5t-31 -133.5t-48.5 -120t-72.5 -97.5t-102.5 -76.5t-139 -46.5t-181 -17.5 t-181 17.5t-138.5 46.5t-101 76.5t-71 97.5t-46.5 120t-29 133.5t-17 147.5q-11 88 -7.5 169.5zM287 973q69 -121 143.5 -274t65.5 -177q-12 -30 -64 -30t-119 14q2 -5 4 -15.5t4.5 -46.5t-4.5 -77q12 2 42 8t47.5 9t40 5.5t36.5 -1t21 -11.5q10 -13 11.5 -29t-3.5 -47.5 t-6 -46.5q66 9 196 11t148 -1q-1 13 -7.5 34.5t-5.5 35.5t13 28q27 32 154 23q-4 35 -5 68.5t1 50.5l1 16q-118 -22 -153 -12q-18 5 -23 18q-12 31 22 99.5t117 197.5t121 195q-101 -12 -284 -12h-88q-9 -42 -19.5 -91.5t-16.5 -79.5t-13.5 -63t-13 -51t-11.5 -34.5t-12 -23 t-13 -6.5q-45 0 -155 322q-72 -8 -123 -8q-33 0 -49 2z" />
<glyph unicode="&#xa7;" d="M82.5 734.5q3.5 81.5 17 152.5t55 129.5t106.5 100t171.5 64.5t249.5 23q96 0 176 -10.5t139.5 -29t105.5 -48t77 -62.5t51.5 -78t31 -88.5t13.5 -100t0.5 -107.5t-8.5 -115q-9 -84 -19.5 -147.5t-31 -133.5t-48.5 -120t-72.5 -97.5t-102.5 -76.5t-139 -46.5t-181 -17.5 t-181 17.5t-138.5 46.5t-101 76.5t-71 97.5t-46.5 120t-29 133.5t-17 147.5q-11 88 -7.5 169.5z" />
<glyph unicode="&#xa8;" horiz-adv-x="593" d="M74 1104q0 55 20 82.5t84 27.5q65 0 86 -28.5t19 -81.5q0 -53 -21 -82t-84 -29q-61 0 -81.5 29t-22.5 82zM336 1079q0 58 21.5 93.5t84.5 35.5t84 -36t19 -93q0 -53 -21 -81.5t-84 -28.5q-61 0 -81.5 28.5t-22.5 81.5z" />
<glyph unicode="&#xa9;" d="M82.5 741.5q3.5 81.5 17 152.5t55 129.5t106.5 99.5t171.5 64t249.5 23q97 0 176 -10.5t139 -29t106 -48t77 -62t51.5 -77.5t31 -88.5t13.5 -100.5t0.5 -107.5t-8.5 -115.5q-9 -84 -19.5 -147t-31 -133t-48.5 -120t-72.5 -97.5t-102.5 -77t-139 -47t-181 -17.5t-181 17.5 t-138 47t-101 77t-71.5 97.5t-46.5 120t-29 133t-17 147q-11 89 -7.5 170.5zM308.5 714q-2.5 -49 4.5 -102q6 -72 15.5 -122.5t33 -103.5t60 -84.5t97.5 -52t145 -20.5t145 20.5t97.5 52t60.5 85t34.5 103t18.5 122.5q7 53 5.5 102t-9.5 91.5t-32.5 77.5t-63 60t-102 38.5 t-148.5 13.5q-86 0 -150 -13.5t-103 -38.5t-64 -60t-33.5 -77.5t-11 -91.5zM418 608q-1 45 0 85.5t14 74t36 58t66 38t103 13.5t101.5 -14.5t64.5 -36.5t35 -59.5t14.5 -72t1.5 -86.5q-3 -63 -11 -105t-29.5 -82.5t-65 -60.5t-109.5 -20q-54 0 -93 14.5t-62 37t-37.5 59.5 t-20 72t-8.5 85zM454.5 653q0.5 -36 2.5 -75q8 -99 44.5 -140.5t139.5 -34.5q87 6 113.5 32.5t29.5 94.5q-5 -1 -22.5 -4t-23 -4t-20 -3t-22 -2h-20t-24 1t-23.5 4v-5.5v-6.5t-0.5 -6.5t-1.5 -7t-2.5 -6t-4 -5.5t-6 -4t-9 -3t-11.5 -1q-23 0 -30.5 20t-12.5 83 q-3 46 2.5 66.5t26.5 21.5q18 2 22.5 -15.5t-0.5 -74.5q12 0 60 -1.5t81.5 0t63.5 7.5q8 50 5 93.5t-17 76t-53 51t-103 18.5q-53 0 -90 -13t-55.5 -36t-29 -54t-10 -67z" />
<glyph unicode="&#xaa;" horiz-adv-x="888" d="M82 740.5q3 84.5 11.5 158t35.5 134t68.5 104t109.5 67t160 23.5t160 -23.5t109 -67t67.5 -104t35 -134t10 -158t-6.5 -175.5q-5 -87 -12 -153t-20 -138.5t-31.5 -124.5t-47 -101t-65.5 -79.5t-89 -48.5t-116 -18t-115.5 18t-88.5 48.5t-65 79.5t-46 101t-30.5 124.5 t-18.5 138.5t-11 153q-7 91 -4 175.5zM289 885q123 17 188 6v2.5t1.5 5.5t4.5 7t9 5.5t14 1.5q16 -1 25.5 -8t10.5 -10.5t3 -11.5q3 -14 -4 -21q-8 -8 -60 -8q-16 0 -42.5 1t-32.5 1q-47 1 -75 -30t-28 -83q-1 -94 37.5 -127t124.5 -22q75 0 182 24q-3 8 -5.5 21t-3.5 28 t-2 32.5t-1 33.5t0.5 32t0.5 27v19l1 8q6 98 -30 143.5t-138 45.5q-15 0 -39.5 0.5t-35.5 0.5t-29 -1t-25.5 -4t-18.5 -8.5t-15.5 -15t-9.5 -22.5t-6.5 -31t-0.5 -42zM332 385q0 -65 28.5 -99t114.5 -34q85 0 113 34t28 99q2 65 -26 98t-117 33t-116 -33t-25 -98zM467 766 q1 10 4 14.5t16 8.5t37 4q34 0 44 -6t10 -21q-1 -9 -4.5 -14t-16.5 -9t-37 -4q-35 0 -44 6t-9 21z" />
<glyph unicode="&#xab;" horiz-adv-x="1048" d="M81.5 708q-0.5 63 7.5 131.5t26.5 118t53 96t85 75.5t124.5 46t169 17q96 0 170 -17t124 -46t84 -75.5t52 -96t24.5 -118.5t5.5 -131t-8 -145q-6 -82 -14 -144.5t-24 -131t-37.5 -118t-56 -96.5t-79 -75.5t-107.5 -46t-140 -17.5q-78 0 -140.5 17.5t-107.5 46t-79 75.5 t-55 96.5t-36 118t-22.5 131t-12.5 144.5q-6 82 -6.5 145zM252 623q0 -42 4 -88q4 -36 7.5 -57.5t11.5 -49.5t19 -44.5t29.5 -35t43.5 -27.5t61 -15.5t82 -6.5q6 59 -2 96q-51 0 -76.5 27.5t-34.5 89.5q-7 50 17.5 82t85.5 31q18 114 20 194q-74 0 -127.5 -15t-81.5 -41 t-43.5 -62t-15.5 -78zM550 627q-1 -43 1 -92q3 -61 12.5 -98t35 -71.5t76 -50.5t130.5 -16q2 13 3.5 32t4 67.5t-3.5 58.5q-51 0 -75.5 26t-33.5 88q-7 50 17.5 82t85.5 31q12 55 14 135q-75 0 -127 -14t-80 -39.5t-43.5 -60.5t-16.5 -78z" />
<glyph unicode="&#xad;" horiz-adv-x="884" d="M82 753.5q3 81.5 11.5 152.5t35.5 129.5t68 100t109 64.5t159 23q109 0 185 -32.5t115 -91t59.5 -138.5t19.5 -175.5t-6 -201.5q-5 -84 -12 -147t-20 -133t-31 -120t-46 -97.5t-65 -77t-89 -47t-116 -17.5t-115 17.5t-88 47t-65 77t-45.5 97.5t-30 120t-18.5 133t-11 147 q-7 88 -4 169.5zM260 582q1 -36 8.5 -61t27.5 -47.5t61 -34t104 -11.5t104 11.5t61 34t27.5 47.5t8.5 61q0 37 -6.5 61.5t-26 47.5t-61.5 34.5t-107 11.5q-66 0 -108 -11.5t-61.5 -34.5t-26 -47.5t-5.5 -61.5z" />
<glyph unicode="&#xae;" d="M82.5 766q3.5 82 17 153t55 129t106.5 100t171.5 64.5t249.5 22.5q97 0 176 -10.5t139 -29t106 -48t77 -62t51.5 -77.5t31 -88.5t13.5 -100.5t0.5 -107.5t-8.5 -115.5q-9 -84 -19.5 -147t-31 -133t-48.5 -120t-72.5 -97.5t-102.5 -77t-139 -47t-181 -17.5t-181 17.5 t-138 47t-101 77t-71.5 97.5t-46.5 120t-29 133t-17 147q-11 88 -7.5 170zM325.5 714q-2.5 -49 4.5 -102q6 -72 15.5 -122.5t33 -103.5t59.5 -84.5t97 -52t145 -20.5t145 20.5t97.5 52t60.5 85t34.5 103t18.5 122.5q4 64 5 121t-18 105t-56 83t-108 54.5t-173 19.5 q-86 0 -150 -13.5t-103 -38.5t-64 -60t-33 -77.5t-10.5 -91.5zM434 608q-1 45 0 85.5t14 74t36 58t66 38t103 13.5t102 -14.5t65 -36.5t35 -59t14.5 -72.5t0.5 -86.5q-3 -63 -11 -105t-29.5 -82.5t-65 -60.5t-109.5 -20q-53 0 -92 14.5t-62 37t-38 59t-20.5 72.5t-8.5 85z M477 770q40 -165 27 -346l127 -4q-4 62 -4 80v12q0 5 2.5 8t5.5 5t7.5 2.5t7.5 0.5h8h4q13 -1 19 -2.5t9 -8.5t3.5 -12.5t0.5 -23.5q0 -22 7.5 -35t13.5 -15.5t10 -2.5q51 2 98 8q-11 19 -12 48.5t0.5 50.5t-12 38t-47.5 19q75 21 75 84q0 61 -25.5 92t-99.5 31 q-43 -1 -131.5 -15t-93.5 -14zM547 612q0 29 59 29q60 0 56 -29q0 -30 -58 -30q-33 0 -44 7.5t-13 22.5z" />
<glyph unicode="&#xaf;" horiz-adv-x="591" d="M82 999q-20 79 0 179q70 -18 187.5 -18t199.5 9l82 9q-4 -37 -5 -76t0 -60l1 -20q-50 0 -166.5 -6t-207.5 -12z" />
<glyph unicode="&#xb0;" horiz-adv-x="913" d="M82 821.5q3 85.5 12 160.5t36.5 136t70.5 105t113.5 68t164.5 24q82 0 145 -18.5t106 -49t72 -80.5t44.5 -103t21.5 -126.5t5 -140t-7 -154.5q-5 -88 -12 -154t-20.5 -139.5t-32 -126t-48 -102.5t-68 -80.5t-92 -49t-120.5 -18.5q-66 0 -119.5 18.5t-91.5 49t-67 80.5 t-47.5 102.5t-31 126t-19 140t-11.5 153.5q-7 93 -4 178.5zM290.5 1019q-5.5 -37 0.5 -79q3 -46 11 -77.5t26 -61t53.5 -44t87.5 -14.5t87 14.5t53.5 44t27.5 60.5t14 78q6 42 1 79t-21 64t-56 42.5t-104 15.5q-63 0 -103 -15.5t-56 -42.5t-21.5 -64zM446 909 q-2 45 9.5 67.5t50.5 22.5t50 -22.5t9 -67.5q-2 -48 -13 -70t-46 -22t-46.5 22t-13.5 70z" />
<glyph unicode="&#xb4;" horiz-adv-x="360" d="M82 1157q0 47 23 73.5t94 26.5q74 0 100 -28.5t16 -71.5q-5 -22 -32.5 -38t-57.5 -25t-55.5 -31t-28.5 -55q-11 -2 -21.5 -1t-19.5 3l-8 2q-10 90 -10 145z" />
<glyph unicode="&#xb5;" horiz-adv-x="57" />
<glyph unicode="&#xb6;" horiz-adv-x="888" d="M82 734.5q3 81.5 11.5 152.5t35.5 129.5t68.5 100t109.5 64.5t160 23q110 0 186 -32.5t115.5 -91t60 -138.5t19.5 -175.5t-6 -201.5q-5 -84 -12 -147.5t-20 -133.5t-31 -120t-46.5 -97.5t-65.5 -76.5t-89.5 -46.5t-116.5 -17.5t-115.5 17.5t-88.5 46.5t-65 76.5t-46 97.5 t-30.5 120t-18.5 133.5t-11 147.5q-7 88 -4 169.5zM274 741q0 -128 32.5 -194t109.5 -72q23 -2 34 -14.5t11 -31.5v-42q0 -17 -4.5 -66.5t-9.5 -90.5l-5 -40q103 4 136 0q-16 192 1 394.5t52 351.5q-19 1 -54 5.5t-76 11t-57 8.5q-81 9 -125.5 -54t-44.5 -166z" />
<glyph unicode="&#xb7;" d="M82.5 753.5q3.5 81.5 17 152.5t55 129.5t106.5 100t171.5 64.5t249.5 23q96 0 176 -10.5t139.5 -29t105.5 -48t77 -62.5t51.5 -78t31 -88.5t13.5 -100t0.5 -107.5t-8.5 -115q-9 -84 -19.5 -147t-31 -133t-48.5 -120t-72.5 -97.5t-102.5 -77t-139 -47t-181 -17.5 t-181 17.5t-138 47t-101 77t-71.5 97.5t-46.5 120t-29 133t-17 147q-11 88 -7.5 169.5zM553 569q1 -37 5.5 -61t17 -47t37.5 -34t63 -11q71 0 95 38.5t26 114.5q0 37 -4 61.5t-15.5 48t-37.5 35t-66 11.5q-74 0 -97.5 -39.5t-23.5 -116.5z" />
<glyph unicode="&#xb8;" horiz-adv-x="448" d="M82 -225q2 48 27.5 73t103.5 25q43 0 57 28t-18 91l86 -2q8 -9 19.5 -24.5t31 -58.5t19.5 -79q0 -38 -5 -62.5t-21.5 -46.5t-50.5 -32.5t-87 -10.5q-100 0 -132 25.5t-30 73.5z" />
<glyph unicode="&#xba;" horiz-adv-x="894" d="M82 734.5q3 81.5 12 152.5t36 129.5t69 100t111 64.5t161 23t161 -23t110.5 -64.5t68 -100t34.5 -129.5t9.5 -152.5t-6.5 -169.5q-5 -73 -10.5 -129.5t-15.5 -119t-24.5 -109.5t-34.5 -93.5t-48 -79t-63.5 -58t-82.5 -38t-104 -12.5q-65 0 -117 17.5t-89.5 46.5t-66 76.5 t-46.5 97.5t-30.5 120t-18.5 133.5t-11 147.5q-7 88 -4 169.5zM284.5 877.5q-5.5 -36.5 0.5 -78.5q4 -47 12 -78t26.5 -60.5t53 -44t86.5 -14.5t87.5 14.5t54.5 44t27.5 61t12.5 77.5q7 42 2 78.5t-21 63.5t-56 42.5t-103 15.5q-64 0 -104 -15.5t-56.5 -42.5t-22 -63.5z M330 383q2 -66 29.5 -99.5t113.5 -33.5t113.5 33.5t29.5 99.5q0 65 -27.5 98t-115.5 33t-116.5 -33.5t-26.5 -97.5zM442 768q-2 29 0.5 46.5t16.5 30.5t41 13q39 0 50 -22.5t9 -69.5q0 -46 -11 -68t-46 -22t-46.5 22t-13.5 70z" />
<glyph unicode="&#xbb;" horiz-adv-x="1015" d="M82.5 713.5q-0.5 61.5 7 130t25 117.5t51 95.5t82 75t120.5 45.5t164 17q128 0 216.5 -32t134.5 -88.5t70 -135t23 -171.5t-7 -198q-6 -82 -14 -144t-23.5 -130.5t-37 -117t-54.5 -95t-76.5 -75t-104 -45.5t-135.5 -17t-135 17t-103 45.5t-75.5 75t-53 95t-35 117 t-22 130.5t-12.5 144q-5 83 -5.5 144.5zM250 819q1 -36 4.5 -69.5t6.5 -49.5l3 -16q61 1 85.5 -31t17.5 -82q-7 -61 -32.5 -87.5t-76.5 -26.5q-4 -23 -3.5 -58t3.5 -67l4 -33q80 0 130.5 16t76 50.5t35 71.5t12.5 98q2 49 1 92t-16.5 78t-43.5 60.5t-80 39.5t-127 14z M547 819q1 -36 6 -84.5t9 -78.5l5 -31q61 1 85.5 -31t17.5 -82q-9 -63 -34 -90t-77 -27q-4 -16 -4.5 -40t1.5 -40l1 -16q47 0 83 6.5t61 15.5t44 27.5t29.5 34.5t18.5 45t11.5 49.5t8.5 57.5q10 57 2 108.5t-32 90.5t-84 62t-152 23z" />
<glyph unicode="&#xbf;" horiz-adv-x="1234" d="M80.5 756.5q-0.5 60.5 9 127t32 114t64 93t102 73.5t150 44.5t203.5 16.5q100 0 181 -12t139 -36.5t100.5 -55.5t68.5 -75t41.5 -89t19.5 -104.5t2 -113.5t-9 -123q-8 -80 -17.5 -140t-28.5 -126.5t-45 -114.5t-67 -93t-95 -73t-129.5 -44.5t-168.5 -16.5t-168.5 16.5 t-129 44.5t-94.5 73t-66.5 93t-43.5 114.5t-27 126.5t-16 140t-7.5 140.5zM328 449q-3 -37 1.5 -68.5t13.5 -54t26.5 -40t33.5 -28.5t41.5 -19t43 -12t46.5 -6t43 -2h41q164 0 231.5 73t51.5 204q-16 -4 -43 -10t-94 -13.5t-115 -3.5q0 -59 -88 -59q-38 0 -58 16t-18 39 q1 18 5 27t21 16.5t50 7.5t58 7.5t39 20t23.5 28t12 31t3.5 28t0 20.5l-1 8q-5 2 -14 3.5t-39 4t-59 -4.5q-3 -27 -24.5 -41.5t-76.5 -14.5q-22 0 -45 -7t-47.5 -23t-41.5 -48.5t-21 -78.5zM432 881q-1 -36 5.5 -61t26.5 -48.5t62 -35t107 -11.5t107 11.5t62 35t26.5 48.5 t5.5 61t-8.5 61t-27.5 48t-61 34.5t-104 11.5t-104 -11.5t-61 -34.5t-27.5 -48t-8.5 -61z" />
<glyph unicode="&#xc0;" d="M82.5 838q-0.5 77 9.5 162.5t33.5 146.5t68 119t109.5 93.5t160.5 57t218.5 21.5q97 0 176.5 -13t139 -35.5t105.5 -58.5t77 -76t51.5 -94.5t31 -108t13.5 -122.5t0.5 -130.5t-8.5 -140.5q-9 -103 -19.5 -179.5t-31 -162t-48.5 -146t-72.5 -118.5t-102.5 -93.5t-139 -57 t-181 -21.5t-181 21.5t-138.5 57t-101 93.5t-71 118.5t-46.5 146t-29 162.5t-17 179t-7.5 179zM344 690q229 31 332 10q-4 43 8 63t57 19q51 0 73 -27.5t18.5 -56t-15.5 -39.5q-10 -9 -33.5 -14.5t-58.5 -6t-61 0t-65 2.5t-46 2q-85 3 -132.5 -50.5t-49.5 -141.5 q-3 -165 64.5 -223.5t228.5 -37.5q128 0 323 41q-13 27 -15 119t2 170l5 78q6 86 -4.5 144t-43 103t-96 66t-161.5 21q-69 0 -112 -2.5t-84.5 -11t-64.5 -24.5t-41 -43t-24 -66t-4 -95zM557 1147q6 -22 34 -38.5t57.5 -25.5t55 -31t27.5 -55q11 -2 22 -1t20 3l9 2 q9 91 11 146q0 47 -23 73.5t-94 26.5q-74 0 -101.5 -28.5t-17.5 -71.5zM651 500q1 19 4 29.5t14.5 22t37.5 16.5t67 5t66.5 -5t36 -16.5t13 -22t1.5 -29.5t-4 -29.5t-14.5 -22.5t-37.5 -17t-67 -5t-66.5 5t-36 17t-13 22.5t-1.5 29.5z" />
<glyph unicode="&#xc1;" d="M83.5 871q-0.5 116 33 213.5t95.5 168.5t180.5 110.5t289.5 39.5q97 0 176.5 -13t139 -35.5t105.5 -58.5t77 -75.5t51.5 -94.5t31 -108t13.5 -122t0.5 -130.5t-8.5 -140.5q-9 -103 -19.5 -179.5t-31 -162t-48.5 -146.5t-72.5 -119t-102.5 -93.5t-139 -57t-181 -21.5 q-78 0 -144.5 13t-118 35.5t-94 58.5t-73 76t-55 94.5t-40.5 108t-28 122.5t-18.5 131t-12.5 140q-6 130 -6.5 246zM338 604q79 13 166 17.5t166 -5.5q-4 42 8 62t57 20q39 -1 61.5 -17.5t26 -38t0 -40.5t-11.5 -27q-10 -9 -33.5 -14.5t-58.5 -6t-61 0t-65 2.5t-46 2 q-85 1 -132.5 -52.5t-49.5 -139.5q-3 -165 64 -223.5t226 -39.5q131 0 326 41q-13 28 -15 119.5t2 169.5l5 78q5 86 -5.5 144t-42.5 103.5t-95.5 67t-161.5 21.5q-69 0 -112 -2.5t-84.5 -11t-64.5 -24.5t-41 -43.5t-24 -67t-4 -95.5zM625 1083q0 -25 2.5 -62t4.5 -61l3 -24 q3 -1 8 -2t19.5 -3t21.5 1q2 28 19 47.5t40.5 30t47.5 19.5t43.5 22.5t23.5 31.5q10 42 -17.5 71.5t-99.5 29.5t-95 -27t-21 -74zM645 414q1 19 4 29.5t14.5 22t37.5 16.5t67 5t66.5 -5t36 -16.5t13 -22t1.5 -29.5q-1 -24 -7 -37t-34 -24t-82 -11q-42 0 -67.5 5t-36 17 t-12.5 22t-1 28z" />
<glyph unicode="&#xc2;" d="M83.5 895q-0.5 116 33 213.5t95.5 168.5t180.5 110.5t289.5 39.5q97 0 176.5 -13t139 -35.5t105.5 -58.5t77 -75.5t51.5 -94.5t31 -108t13.5 -122t0.5 -130.5t-8.5 -140.5q-9 -103 -19.5 -179.5t-31 -162t-48.5 -146t-72.5 -118.5t-102.5 -93.5t-139 -57t-181 -21.5 t-181 21.5t-138.5 57t-101 93.5t-71 118.5t-46.5 146t-29 162.5t-17 179q-6 130 -6.5 246zM344 623q221 30 332 10q-4 42 8 62t57 20q51 -1 73 -28.5t18.5 -55.5t-15.5 -39q-22 -21 -122 -21.5t-142 4.5q-85 3 -132.5 -51t-49.5 -141q-3 -165 64.5 -223t228.5 -37 q128 0 323 41q-13 27 -15 118.5t2 169.5l5 78q6 85 -4.5 143t-43 103t-96 66.5t-161.5 21.5q-69 0 -111.5 -2.5t-84.5 -11t-64.5 -24t-41 -42.5t-24.5 -66t-4 -95zM498 981q15 2 39 1.5t47 -2.5l22 -1q19 94 37.5 121t34 -8.5t29.5 -126.5q100 1 149 -7q-24 58 -47.5 123 t-34.5 101l-12 35q-15 -1 -36.5 -2t-77 -3t-68.5 2q-37 -124 -82 -233zM651 432q1 19 4 29t14.5 21.5t37 16.5t67.5 5t67 -5t35.5 -16t13 -21.5t1.5 -29.5t-4 -29.5t-14.5 -22.5t-37.5 -17t-67 -5t-66.5 5t-36 17t-13 22.5t-1.5 29.5z" />
<glyph unicode="&#xc3;" d="M82.5 940.5q3.5 99.5 17 186t55 157.5t106.5 122t171.5 79t249.5 28q96 0 176 -13t139.5 -35.5t105.5 -58.5t77 -76t51.5 -95t31 -108t13.5 -122.5t0.5 -131t-8.5 -140.5q-9 -103 -19.5 -179.5t-31 -162t-48.5 -146t-72.5 -118.5t-102.5 -93.5t-139 -57t-181 -21.5 t-181 21.5t-138.5 57t-101 93.5t-71 118.5t-46.5 146t-29 162.5t-17 179q-11 108 -7.5 207.5zM338 698q215 34 332 13q-4 42 8 62t57 20q39 -1 61.5 -17.5t26 -38t0 -40.5t-11.5 -27q-22 -21 -122 -21.5t-142 4.5q-85 1 -132.5 -52.5t-49.5 -139.5q-3 -165 64 -223t226 -37 q131 0 326 39q-13 28 -15 119.5t2 168.5l5 78q5 86 -5.5 144t-42.5 103.5t-95.5 67t-161.5 21.5q-69 0 -112 -2.5t-84.5 -11t-64.5 -24.5t-41 -43.5t-24 -67t-4 -95.5zM513.5 1156q-0.5 -53 6.5 -126l74 6v84q0 40 21 46q17 5 24 -22q2 -8 2 -18q3 -54 28 -70t81 -16 q21 0 38.5 4t30.5 10t23 17t16 20.5t10.5 25.5t7 26.5t3.5 30t1 29.5t-0.5 30.5t-0.5 28.5q-18 4 -50.5 6.5t-55.5 3.5h-23q0 -86 2 -119q1 -21 -9.5 -31.5t-21.5 -2.5t-12 34q-1 33 -8.5 57t-33.5 43t-69 17q-43 -1 -63.5 -31t-21 -83zM645 508q1 19 4 29.5t14.5 22.5 t37.5 17t67 5t66.5 -5t36 -17t13 -22.5t1.5 -29.5q-1 -24 -7 -37t-34 -24t-82 -11q-42 0 -67.5 5t-36 17t-12.5 22t-1 28z" />
<glyph unicode="&#xc4;" d="M83.5 873q-0.5 116 33 213.5t95.5 168.5t180.5 110.5t289.5 39.5q97 0 176.5 -13t139 -35.5t105.5 -58.5t77 -75.5t51.5 -94.5t31 -108t13.5 -122t0.5 -130.5t-8.5 -140.5q-9 -103 -19.5 -179.5t-31 -162t-48.5 -146.5t-72.5 -119t-102.5 -93.5t-139 -57t-181 -21.5 q-78 0 -144.5 13t-118 35.5t-94 58.5t-73 76t-55 94.5t-40.5 108t-28 122.5t-18.5 131t-12.5 140q-6 130 -6.5 246zM350 606q229 31 332 10q-5 42 7.5 62.5t58.5 19.5q39 0 61 -16.5t25 -38.5t-1 -41.5t-12 -26.5q-9 -9 -32.5 -14.5t-58 -6t-61 0t-65.5 2.5t-47 2 q-85 3 -132.5 -50.5t-49.5 -141.5q-1 -165 66 -223t227 -38q130 0 323 41q-12 27 -14 119t2 170l4 78q6 86 -4 144t-42.5 103t-96 66t-162.5 21q-69 0 -112 -2.5t-84.5 -11t-64 -24.5t-40.5 -43t-23.5 -66t-3.5 -95zM432 1083q2 -53 23 -81.5t82 -28.5q63 0 83.5 28.5 t20.5 81.5q2 54 -19 82.5t-85 28.5t-84.5 -28.5t-20.5 -82.5zM657 416q1 19 4 29.5t14.5 22t37.5 16.5t67 5t66.5 -5t35.5 -17t12.5 -22t2.5 -29q-1 -19 -4.5 -29.5t-15 -22.5t-37.5 -17t-68 -5q-41 0 -66.5 5t-35.5 17t-12 22.5t-1 29.5zM694 1059q2 -53 23 -82t82 -29 q63 0 83.5 29t20.5 82q1 27 -2 46.5t-12.5 40t-31.5 31.5t-56 11q-63 0 -85 -36t-22 -93z" />
<glyph unicode="&#xc5;" horiz-adv-x="1273" d="M82 864q-1 75 9 158t32.5 142.5t65.5 116t105.5 91t154.5 55.5t210 21q93 0 169.5 -12.5t134 -34.5t101.5 -57t74 -74t50 -92t30 -105t13 -119t0.5 -127.5t-8.5 -136.5q-8 -100 -18.5 -175t-30 -158t-46.5 -142.5t-70 -115.5t-99 -91t-134 -55.5t-174 -20.5t-174 20.5 t-133 55.5t-97 91t-68.5 115.5t-45 142.5t-27.5 158t-16 175q-7 99 -8 174zM326 678q80 13 165.5 17.5t165.5 -5.5q-4 41 8.5 61.5t57.5 20.5q51 -1 73 -28.5t18.5 -55.5t-15.5 -39q-10 -9 -33.5 -14.5t-58.5 -6t-61 0t-65 2.5t-46 2q-85 1 -133 -53t-50 -140 q-3 -165 64.5 -223t228.5 -39q129 0 324 41q-13 28 -15 119.5t2 169.5l5 78q6 85 -4.5 144t-43 104t-96.5 66.5t-162 21.5q-69 0 -111.5 -2.5t-84.5 -11t-64.5 -24.5t-40.5 -43.5t-24 -67t-4 -95.5zM524 1126q7 -67 39.5 -101t122.5 -34t123.5 34t42.5 101t-22.5 102.5 t-141.5 35.5t-141.5 -35.5t-22.5 -102.5zM633 487q1 19 4 29.5t14.5 22.5t37.5 17t67 5t66.5 -5t35.5 -17t12.5 -22.5t1.5 -29.5q-1 -18 -4 -28t-14 -21.5t-37 -16.5t-67 -5t-66.5 5t-36 16.5t-13 21.5t-1.5 28zM666 1106q-2 23 8 34t45 11q37 0 47 -11t8 -34 q-2 -22 -12 -32.5t-41 -10.5q-32 0 -42.5 10.5t-12.5 32.5z" />
<glyph unicode="&#xc6;" horiz-adv-x="1826" d="M84 701q-2 51 3.5 107.5t21 100t45.5 88.5t75 78t111 62.5t151 48t198.5 29t250.5 10.5t250 -10.5t197.5 -29t150 -48t109.5 -62.5t73.5 -78t44 -88.5t19 -100t1 -107.5t-12.5 -115q-12 -84 -27 -147t-44 -133t-69 -120t-103.5 -97.5t-146 -77t-198 -47t-258.5 -17.5 q-112 0 -206.5 10.5t-168 29t-133.5 48t-104 62.5t-78.5 78t-57 88.5t-39.5 100t-27 107.5t-18 115t-10 115zM301 700q215 34 332 13q-5 41 7 61.5t58 20.5q39 -1 61 -17.5t25.5 -38t-0.5 -41t-12 -26.5q-9 -9 -32 -14.5t-58.5 -6.5t-61 -0.5t-66 2.5t-46.5 2 q-85 1 -132.5 -52.5t-49.5 -139.5q0 -42 3.5 -74t13.5 -56.5t20.5 -41t32.5 -28t40.5 -18t52.5 -10t62 -5t74 -1.5q135 0 268 1t266 1q85 0 141 5t107 20.5t79 44t44.5 75.5t17.5 116q-91 -13 -199 -19.5t-198 2.5q2 -25 0.5 -44t-19 -30t-51.5 -10q-54 0 -77 17.5t-23 58.5 q1 27 15 38t58 17.5t146 9.5q72 2 110 4t76.5 8t54.5 13.5t31 23t19.5 34.5t7.5 51q15 169 -67 234t-277 65q-99 0 -220.5 -3.5t-305.5 -3.5q-80 0 -131.5 -5.5t-93.5 -21t-63.5 -44.5t-31.5 -74t-8 -113zM621 510q1 19 4 29.5t14 22.5t37 17t67 5t66.5 -5t35.5 -17 t12 -22.5t1 -29.5q0 -18 -3 -28.5t-14.5 -22t-37.5 -16.5t-68 -5q-78 0 -98 18t-16 54zM874 680q-1 20 2 31t15 23.5t41 18t76 5.5q48 0 77 -5.5t41 -18t15 -23.5t2 -31q0 -19 -3 -30t-15.5 -23t-40.5 -17.5t-74 -5.5t-75 5.5t-41.5 17.5t-16 23t-3.5 30z" />
<glyph unicode="&#xc7;" horiz-adv-x="1245" d="M82.5 926q-0.5 75 9 158t32 142.5t64.5 115.5t103 90.5t151 55.5t205 21t204.5 -21t150 -55.5t102 -90.5t63 -115.5t30 -142.5t7 -158t-9.5 -174q-8 -100 -18 -175t-28.5 -158t-45 -142.5t-68 -115.5t-96 -91t-130 -55.5t-169.5 -20.5q-74 0 -136 12.5t-110.5 34 t-88.5 57t-68.5 74t-51.5 92t-38 105t-26 119t-17.5 127.5t-12.5 137q-7 99 -7.5 174zM326.5 906q-1.5 -53 5.5 -109q6 -68 13 -113t24.5 -93t45 -75.5t73.5 -45t110 -17.5q25 0 38 -29q14 -32 -12 -47q-22 -13 -67 -4q-130 26 -135 -111q-2 -49 30.5 -74.5t133.5 -25.5 q102 0 136.5 34.5t27.5 104.5q-2 19 -10 44t-13.5 42t-7 33.5t9 24.5t35.5 8q77 0 124 10t80.5 38t46.5 76.5t13 127.5q-86 -13 -188 -19.5t-189 2.5q7 -43 -11.5 -72.5t-70.5 -29.5q-49 0 -66.5 43.5t-27.5 161.5q-7 89 6.5 137t59.5 51q46 2 59 -41t0 -184q16 0 79.5 -1 t103 -1t95.5 4t95 12q14 68 14.5 130.5t-17.5 122t-55 102.5t-104 69.5t-158 26.5q-79 0 -138 -16t-94 -44t-57.5 -67.5t-29 -86t-8 -99.5z" />
<glyph unicode="&#xc8;" d="M83.5 932q-0.5 116 33 213.5t95.5 168.5t180.5 110.5t289.5 39.5q97 0 176.5 -13t139 -35.5t105.5 -58.5t77 -75.5t51.5 -94.5t31 -108t13.5 -122t0.5 -130.5t-8.5 -140.5q-9 -103 -19.5 -179.5t-31 -162t-48.5 -146t-72.5 -118.5t-102.5 -93.5t-139 -57t-181 -21.5 t-181 21.5t-138.5 57t-101 93.5t-71 118.5t-46.5 146t-29 162.5t-17 179q-6 130 -6.5 246zM314 629.5q-2 -53.5 5 -109.5q6 -68 16.5 -116.5t34 -95.5t60.5 -75t96.5 -45.5t141.5 -17.5q86 0 141 4.5t106.5 19.5t79.5 43.5t44.5 75t17.5 115.5q-90 -13 -200 -19t-198 3 q2 -25 0.5 -44t-18.5 -30t-51 -10q-54 0 -77.5 17t-23.5 58q1 27 15 38.5t59 18t146 9.5q73 2 110.5 4t76.5 7.5t54.5 13t30.5 23t19.5 34.5t7.5 51q15 174 -72.5 259t-276.5 85q-84 0 -146.5 -16t-99.5 -44.5t-60.5 -68t-30 -87t-8.5 -101zM395 616q-1 20 2 31t14.5 23.5 t40.5 18t76 5.5q48 0 77.5 -5.5t41.5 -18t15 -23.5t2 -31q0 -19 -3.5 -30t-15.5 -22.5t-40.5 -17t-74.5 -5.5q-38 0 -63.5 4t-39.5 10t-21.5 17t-9 20t-1.5 24zM506 1147q5 -22 32.5 -38.5t57.5 -25.5t55.5 -31.5t28.5 -56.5q9 -1 21 0t20 3l8 1q10 91 10 148q0 47 -23 73.5 t-93 26.5q-73 0 -100 -29t-17 -71z" />
<glyph unicode="&#xc9;" d="M83.5 1006q-0.5 116 33 213.5t95.5 168.5t180.5 110.5t289.5 39.5q97 0 176.5 -13t139 -35.5t105.5 -58.5t77 -75.5t51.5 -94.5t31 -108t13.5 -122t0.5 -130.5t-8.5 -140.5q-9 -103 -19.5 -179.5t-31 -162t-48.5 -146t-72.5 -118.5t-102.5 -93.5t-139 -57t-181 -21.5 t-181 21.5t-138.5 57t-101 93.5t-71 118.5t-46.5 146t-29 162.5t-17 179q-6 130 -6.5 246zM289.5 728.5q1.5 -62.5 5.5 -130.5q6 -69 16 -117t33.5 -95t60 -75t96.5 -45.5t142 -17.5q86 0 140.5 4.5t106 19.5t80 43.5t45 75t17.5 115.5q-91 -13 -199.5 -19.5t-199.5 2.5 q7 -42 -6.5 -64t-61.5 -22q-56 2 -78 18.5t-22 57.5q0 28 14 40t58.5 18.5t146.5 9.5q73 2 110 4t76 7.5t54.5 13t30.5 23t19 34.5t7 51q15 174 -72 259t-274 85q-100 0 -170 -22.5t-105 -62.5t-53.5 -94t-17 -116.5zM369 694q-1 20 2 31t15 23.5t41 18t77 5.5q47 0 76 -5.5 t41 -18t15 -23.5t3 -31q-1 -19 -4.5 -29.5t-16 -23t-40.5 -18t-74 -5.5t-74 5.5t-40.5 18t-16 23t-4.5 29.5zM567 1235q0 -24 2.5 -60.5t5.5 -60.5l3 -24q3 -1 8 -2t19.5 -3.5t21.5 0.5q2 33 27.5 55t55.5 31t58 25.5t33 38.5q10 43 -16.5 71.5t-100.5 28.5q-71 0 -95 -27 t-22 -73z" />
<glyph unicode="&#xca;" d="M83.5 836q-0.5 116 33 213.5t95.5 168.5t180.5 110.5t289.5 39.5q97 0 176.5 -13t139 -35.5t105.5 -58.5t77 -75.5t51.5 -94.5t31 -108t13.5 -122t0.5 -130.5t-8.5 -140.5q-9 -103 -19.5 -179.5t-31 -162t-48.5 -146t-72.5 -118.5t-102.5 -93.5t-139 -57t-181 -21.5 t-181 21.5t-138.5 57t-101 93.5t-71 118.5t-46.5 146t-29 162.5t-17 179q-6 130 -6.5 246zM328 546.5q0 -46.5 6 -110.5q5 -68 15 -116.5t33.5 -95.5t60 -75t96 -45.5t141.5 -17.5q86 0 141 4.5t107 19.5t80.5 43.5t45 75t17.5 115.5q-56 -8 -125 -14.5t-149.5 -8.5 t-124.5 7q2 -25 0.5 -44t-19 -30.5t-51.5 -11.5q-55 2 -77 18t-21 57q0 28 14 40t58.5 18.5t146.5 9.5q73 2 110 4t76 7.5t54.5 13t30.5 22.5t19 34t7 50q15 176 -72 260t-276 84q-84 0 -146 -15t-99.5 -45.5t-60 -66t-30.5 -88t-8 -99zM420 532q-1 20 2 31t15 23t41 17 t77 5q47 0 76 -5t41 -17.5t15 -23t3 -30.5q-1 -20 -4.5 -30.5t-16 -22.5t-40.5 -17t-74 -5t-74 5t-40.5 17t-16 22.5t-4.5 30.5zM537 942q11 2 38 2t49 -1l21 -1q19 93 38 120t35 -9t30 -127q100 2 147 -6q-24 58 -47 123t-34 101l-11 36l-37.5 -2.5t-79 -3.5t-68.5 2 q-37 -134 -81 -234z" />
<glyph unicode="&#xcb;" d="M82.5 881q-0.5 77 9.5 162.5t33.5 146.5t68 119t109.5 93.5t160.5 57t218.5 21.5q97 0 176.5 -13t139 -35.5t105.5 -58.5t77 -76t51.5 -94.5t31 -108t13.5 -122.5t0.5 -130.5t-8.5 -140.5q-9 -103 -19.5 -179.5t-31 -162t-48.5 -146t-72.5 -118.5t-102.5 -93.5t-139 -57 t-181 -21.5t-181 21.5t-138.5 57t-101 93.5t-71 118.5t-46.5 146t-29 162.5t-17 179t-7.5 179zM314 648.5q-2 -53.5 5 -109.5q6 -68 16.5 -116.5t34 -95.5t60.5 -75.5t96.5 -46t141.5 -17.5q86 0 141 4.5t106.5 19.5t79.5 43.5t44.5 75t17.5 115.5q-56 -8 -125 -14.5 t-149.5 -8.5t-123.5 7q2 -25 0.5 -44t-18.5 -30.5t-51 -11.5q-55 2 -78 18.5t-23 57.5q1 28 15 39.5t58.5 18t146.5 9.5q73 2 110.5 4t76.5 7.5t54.5 13t30.5 22.5t19.5 34t7.5 50q15 176 -72.5 260.5t-276.5 84.5q-84 0 -146.5 -16t-99.5 -44t-60.5 -67.5t-30 -86.5 t-8.5 -100.5zM395 635q-1 20 2 31t14.5 23t40.5 17t76 5q48 0 77.5 -5.5t41.5 -17t15 -23t2 -30.5q0 -19 -3.5 -30.5t-15.5 -23t-40.5 -17t-74.5 -5.5q-47 0 -75.5 5.5t-40.5 17t-15.5 22.5t-3.5 31zM449 1159q0 -53 21 -81.5t83 -28.5t82 28t22 82q0 53 -20 81t-84 28 t-85 -28.5t-19 -80.5zM723 1135q0 -54 20.5 -82.5t83.5 -28.5q62 0 82.5 28.5t22.5 82.5q0 26 -3.5 45.5t-13.5 39.5t-32 31t-56 11q-108 0 -104 -127z" />
<glyph unicode="&#xcc;" horiz-adv-x="1048" d="M81.5 890.5q-0.5 77.5 7.5 162t26.5 146t53 119t85 93t124.5 57t169 21.5q96 0 170 -21.5t124 -57t84 -93.5t52 -118.5t24.5 -146t5.5 -162.5t-8 -179q-5 -79 -11 -140.5t-16 -131t-22.5 -122.5t-32 -108t-43.5 -95t-57 -76.5t-73 -59t-91 -35.5t-112 -13 q-78 0 -140.5 21.5t-107.5 57.5t-79 94t-55 119t-36 146.5t-22.5 163t-12.5 179.5q-6 102 -6.5 179.5zM354 911q18 -134 25.5 -316.5t5.5 -298.5l-2 -116q38 15 111 18t126 -1l54 -4q1 27 -0.5 133.5t7 292.5t24.5 292q-97 -6 -185 -6t-127 3zM393 1157q6 -23 34 -39t58 -25 t55.5 -31t28.5 -56q10 -2 21 -1t20 3l8 2q9 90 11 147q0 47 -23 73.5t-94 26.5q-74 0 -101.5 -29t-17.5 -71z" />
<glyph unicode="&#xcd;" horiz-adv-x="1048" d="M81.5 783.5q-0.5 77.5 7.5 162t26.5 146t53 119t85 93t124.5 57t169 21.5q96 0 170 -21.5t124 -57t84 -93.5t52 -118.5t24.5 -146t5.5 -162.5t-8 -179q-5 -79 -11 -140.5t-16 -131t-22.5 -122.5t-32 -108t-43.5 -95t-57 -76t-73 -58.5t-91 -35.5t-112 -13 q-78 0 -140.5 21.5t-107.5 57t-79 94t-55 119.5t-36 146t-22.5 162.5t-12.5 179.5q-6 102 -6.5 179.5zM354 801q18 -134 25.5 -316.5t5.5 -298.5l-2 -116q38 16 111 19t126 -2l54 -5q1 27 -0.5 133.5t7 293t24.5 292.5q-97 -6 -185 -6t-127 3zM428 1036q0 -25 2.5 -62 t5.5 -61l2 -24q3 -1 8 -2t19.5 -3t21.5 1q2 34 27.5 56t56 31t58.5 25t33 39q10 41 -17.5 70t-99.5 29t-95.5 -26.5t-21.5 -72.5z" />
<glyph unicode="&#xce;" horiz-adv-x="1048" d="M82 901.5q3 99.5 13.5 186t43 157.5t83 121.5t132.5 78.5t193 28q84 0 151.5 -15.5t115.5 -46.5t83.5 -70.5t57 -96.5t34 -114t16 -133.5t2 -145t-7.5 -157.5q-5 -79 -11 -140.5t-16 -131t-22.5 -122.5t-32 -108t-43.5 -95t-57 -76t-73 -58.5t-91 -35.5t-112 -13 q-78 0 -140.5 21.5t-107.5 57t-79 94t-55 119.5t-36 146t-22.5 162.5t-12.5 179.5q-9 108 -6 207.5zM342 1022q11 2 38.5 2t49.5 -1l21 -1q19 93 37.5 119.5t34.5 -9t30 -126.5q100 1 147 -7q-24 58 -47 123.5t-34 101.5l-11 36q-15 -1 -37 -2.5t-78.5 -4t-68.5 1.5 q-35 -125 -82 -233zM350 901q18 -135 25.5 -318t5.5 -299l-2 -116q39 16 112.5 19t126.5 -2l54 -5q1 27 -0.5 133.5t6.5 293.5t24 294q-98 -7 -186 -7t-127 4z" />
<glyph unicode="&#xcf;" horiz-adv-x="1048" d="M81.5 898.5q-0.5 77.5 7.5 162t26.5 146t53 119t85 93t124.5 57t169 21.5q96 0 170 -21.5t124 -57t84 -93.5t52 -118.5t24.5 -146t5.5 -162.5t-8 -179q-5 -79 -11 -140.5t-16 -131t-22.5 -122.5t-32 -108t-43.5 -95t-57 -76t-73 -58.5t-91 -35.5t-112 -13 q-78 0 -140.5 21.5t-107.5 57t-79 94t-55 119.5t-36 146t-22.5 162.5t-12.5 179.5q-6 102 -6.5 179.5zM293 1186q0 -53 20.5 -82t83.5 -29q61 0 82 29t23 82q0 54 -21 82t-84 28q-65 0 -85.5 -28t-18.5 -82zM352 928q18 -135 25.5 -317.5t5.5 -298.5l-2 -115q39 15 112.5 18 t126.5 -1l54 -5q1 27 -0.5 133.5t7 293t24.5 292.5q-98 -6 -186.5 -6t-127.5 3zM553 1161q2 -53 22.5 -81.5t81.5 -28.5q63 0 84 28.5t21 81.5q2 57 -19 93t-84 36t-84.5 -35.5t-21.5 -93.5z" />
<glyph unicode="&#xd0;" d="M82.5 811.5q3.5 81.5 17 152.5t55 129.5t106.5 99.5t171.5 64t249.5 23q97 0 176 -10.5t139 -29t106 -48t77 -62t51.5 -77.5t31 -88.5t13.5 -100.5t0.5 -107.5t-8.5 -115.5q-9 -84 -19.5 -147t-31 -133t-48.5 -120t-72.5 -97.5t-102.5 -77t-139 -47t-181 -17.5t-181 17.5 t-138 47t-101 77t-71.5 97.5t-46.5 120t-29 133t-17 147q-11 89 -7.5 170.5zM281 612q0 -66 22 -90t55 -14q20 6 60 55q30 37 40 34t13 -36q5 -113 -6 -231q264 -46 412 -43q199 5 229 342q10 106 -1 184t-35.5 122.5t-65.5 69.5t-82.5 31.5t-94.5 3.5q-168 -7 -415 -30 q16 -69 34 -176t19 -156q-5 -39 -12.5 -37.5t-33.5 29.5q-7 6 -10 9.5t-9 9.5t-10.5 9.5t-10 8t-11 7.5t-10.5 5q-33 10 -55 -15t-22 -92zM668 596q-2 45 1.5 74.5t15.5 57.5t40 42t72 14q36 0 61 -10t39 -25.5t21 -42t9 -50.5t1 -60q-2 -45 -6.5 -74.5t-17.5 -58.5t-39 -43 t-66 -14q-32 0 -55.5 10t-37.5 26t-22 42.5t-11.5 51.5t-4.5 60z" />
<glyph unicode="&#xd1;" d="M83.5 969q-0.5 116 33 213.5t95.5 168.5t180.5 110.5t289.5 39.5q97 0 176.5 -13t139 -35.5t105.5 -58.5t77 -75.5t51.5 -94.5t31 -108t13.5 -122t0.5 -130.5t-8.5 -140.5q-9 -103 -19.5 -179.5t-31 -162t-48.5 -146t-72.5 -118.5t-102.5 -93.5t-139 -57t-181 -21.5 t-181 21.5t-138.5 57t-101 93.5t-71 118.5t-46.5 146t-29 162.5t-17 179q-6 130 -6.5 246zM326 985q3 -18 7 -50.5t10 -130t5 -192.5q-2 -84 -6 -177.5t-7 -144.5l-3 -52q32 4 109 4t137 -2l61 -2q-3 34 -7.5 87.5t-11 164t-4.5 155.5q0 11 1 35.5t1.5 34.5t2 30t4 28.5 t7 23t11 21t15.5 15t22 12t29 5.5q36 3 57.5 -10t28.5 -39t9 -62.5t-1 -79.5q-6 -168 -1.5 -256.5t12.5 -115.5l9 -27q41 8 87 8t72 -4l26 -4q-2 8 -4 29t-5 107.5t5 215.5q5 103 -6.5 172t-46.5 118.5t-100.5 68.5t-166.5 10q-235 -22 -358 4zM524.5 1178 q-0.5 -53 5.5 -125l76 6q-2 35 -2 82q0 41 21 47q17 5 25 -21q2 -8 3 -18q3 -55 27.5 -71.5t79.5 -16.5q24 0 43 4t32 14t23 19t15.5 26.5t9.5 28t5 33t1.5 32t0 33.5t-0.5 31q-18 4 -50.5 7t-55.5 4l-23 1q2 -85 2 -118q1 -21 -9.5 -31.5t-21 -2.5t-10.5 34q-2 51 -26 84 t-85 32q-44 -1 -64.5 -31t-21 -83z" />
<glyph unicode="&#xd2;" d="M82.5 875.5q3.5 99.5 17 186t55 157.5t106.5 122t171.5 79t249.5 28q96 0 176 -13t139.5 -35.5t105.5 -58.5t77 -76t51.5 -95t31 -108t13.5 -122.5t0.5 -131t-8.5 -140.5q-9 -103 -19.5 -179.5t-31 -162t-48.5 -146.5t-72.5 -119t-102.5 -93.5t-139 -57t-181 -21.5 q-78 0 -144.5 13t-118 35.5t-94 58.5t-73 76t-55 94.5t-40.5 108t-28 122.5t-18.5 131t-12.5 140q-11 108 -7.5 207.5zM343.5 677q-2.5 -49 4.5 -102q6 -72 16 -122.5t33.5 -104t60 -85.5t97.5 -52.5t145 -20.5q60 0 108.5 10.5t83 28t61.5 46t44 59t29 72.5t18 80.5 t11 88.5q5 64 6 121t-18 105t-56 83t-108 54.5t-174 19.5q-85 0 -149 -13.5t-103 -38.5t-64.5 -60t-34 -77.5t-11 -91.5zM586 1149q5 -22 33 -38.5t58 -25.5t55.5 -31t27.5 -55q11 -2 21.5 -1.5t18.5 2.5l9 1q10 93 10 148q2 46 -21.5 73t-95.5 27t-99 -29t-17 -71zM639 504 q-1 39 0 66.5t8.5 56.5t22 46t40.5 28.5t64 11.5t64 -11.5t40.5 -28.5t22 -46t8.5 -56.5t0 -66.5t-3.5 -66.5t-11 -55.5t-22.5 -45.5t-38 -28.5t-58 -11t-58 11t-38 28t-23 46t-12.5 56t-5.5 66z" />
<glyph unicode="&#xd3;" d="M83.5 965q-0.5 116 33 213.5t95.5 168.5t180.5 110.5t289.5 39.5q97 0 176.5 -13t139 -35.5t105.5 -58.5t77 -75.5t51.5 -94.5t31 -108t13.5 -122t0.5 -130.5t-8.5 -140.5q-9 -103 -19.5 -179.5t-31 -162t-48.5 -146t-72.5 -118.5t-102.5 -93.5t-139 -57t-181 -21.5 t-181 21.5t-138.5 57t-101 93.5t-71 118.5t-46.5 146t-29 162.5t-17 179q-6 130 -6.5 246zM325.5 657q-2.5 -49 4.5 -102q6 -73 15.5 -123t33 -103.5t59.5 -85.5t97 -52.5t145 -20.5t145 20.5t97.5 52.5t60.5 85.5t34.5 103.5t18.5 123q4 64 5 121t-18 105t-56 83t-108 54.5 t-173 19.5q-86 0 -150 -13.5t-103 -38.5t-64 -60t-33 -77.5t-10.5 -91.5zM620.5 549.5q0.5 31.5 8.5 57.5t21.5 45t39.5 29.5t64 10.5t64.5 -11t41 -28.5t22 -46t9 -56.5t0.5 -67q-1 -40 -4 -66.5t-11.5 -55.5t-22.5 -46t-38.5 -28t-58.5 -11t-58 11t-38 28t-22.5 46t-12 56 t-4.5 66q-1 35 -0.5 66.5zM655 1167l11 -147q3 -1 8.5 -2t20.5 -3t22 1q2 34 27.5 56t55 31t57.5 25t34 39q10 41 -17.5 70t-99.5 29t-95.5 -26t-23.5 -73z" />
<glyph unicode="&#xd4;" d="M83.5 922q-0.5 116 33 213.5t95.5 168.5t180.5 110.5t289.5 39.5q97 0 176.5 -13t139 -35.5t105.5 -58.5t77 -75.5t51.5 -94.5t31 -108t13.5 -122t0.5 -130.5t-8.5 -140.5q-9 -103 -19.5 -179.5t-31 -162t-48.5 -146t-72.5 -118.5t-102.5 -93.5t-139 -57t-181 -21.5 t-181 21.5t-138.5 57t-101 93.5t-71 118.5t-46.5 146t-29 162.5t-17 179q-6 130 -6.5 246zM306.5 610q-2.5 -49 4.5 -102q4 -51 10 -89t17.5 -80t28 -72.5t42.5 -59t61 -46t83.5 -28t108.5 -10.5q84 0 145 20.5t97.5 52.5t60.5 85.5t34.5 103.5t18.5 123q7 53 5.5 102 t-9.5 91.5t-32.5 77.5t-63.5 60t-102.5 38.5t-149.5 13.5q-85 0 -149 -13.5t-102.5 -38.5t-64 -60t-33.5 -77.5t-10.5 -91.5zM530 989q15 2 39.5 1.5t46.5 -2.5l23 -1q55 275 102 -14q101 2 148 -6q-24 58 -47 123t-34 101l-11 36l-37.5 -2.5t-79 -3.5t-68.5 2 q-35 -128 -82 -234zM600 436q-1 40 0 67.5t8.5 56.5t22 46t40.5 28t64 11t64 -11t40.5 -28t22 -46t8.5 -56.5t0 -67.5q-1 -39 -3.5 -66.5t-11 -55.5t-22.5 -45.5t-38 -28.5t-58 -11t-58 11t-38 28t-23 46t-12.5 56t-5.5 66z" />
<glyph unicode="&#xd5;" d="M83.5 979q-0.5 116 33 213.5t95.5 168.5t180.5 110.5t289.5 39.5q97 0 176.5 -13t139 -35.5t105.5 -58.5t77 -75.5t51.5 -94.5t31 -108t13.5 -122t0.5 -130.5t-8.5 -140.5q-9 -103 -19.5 -179.5t-31 -162t-48.5 -146.5t-72.5 -119.5t-102.5 -94t-139 -57t-181 -21.5 q-78 0 -144.5 13t-118 35.5t-94 58.5t-73 76t-55 95t-40.5 108t-28 122.5t-18.5 131.5t-12.5 140q-6 130 -6.5 246zM319.5 698q-2.5 -49 4.5 -102q6 -72 15.5 -122.5t33 -103.5t59.5 -84.5t97 -52t145 -20.5t145 20.5t97.5 52t60.5 85t34.5 103t18.5 122.5q7 53 5.5 102 t-9.5 91.5t-32.5 77.5t-63 60t-102 38.5t-148.5 13.5q-86 0 -150 -13.5t-103 -38.5t-64 -60t-33 -77.5t-10.5 -91.5zM548 1188q0 -53 7 -125l74 6v82q0 41 21 47q16 5 23 -21q3 -8 3 -18q3 -55 27.5 -71.5t80.5 -16.5q23 0 42 4t32 14t22.5 19t15 26t9.5 28t5 33t1.5 32 t0 34t-0.5 31q-18 4 -50.5 7.5t-55.5 4.5l-23 1q2 -86 2 -119q1 -21 -9.5 -31.5t-21 -2.5t-10.5 34q-2 51 -25.5 84.5t-84.5 32.5q-44 -1 -64.5 -31.5t-20.5 -83.5zM613.5 592q0.5 31 8 56.5t22 44.5t40.5 29.5t64 10.5t64 -11t40.5 -28t22 -46t9.5 -55.5t1 -66.5 q-2 -50 -7 -82t-18 -64t-40.5 -47.5t-69.5 -15.5t-69 15.5t-41 47t-19 64.5t-7 82q-1 35 -0.5 66z" />
<glyph unicode="&#xd6;" d="M83.5 1000q-0.5 116 33 213.5t95.5 168.5t180.5 110.5t289.5 39.5q97 0 176.5 -13t139 -35.5t105.5 -58.5t77 -75.5t51.5 -94.5t31 -108t13.5 -122t0.5 -130.5t-8.5 -140.5q-7 -79 -14.5 -140.5t-20.5 -131t-29.5 -122.5t-41.5 -108t-56 -95t-74 -76.5t-95 -59 t-118.5 -35.5t-144.5 -13q-100 0 -181 21.5t-138 57.5t-101 94t-71.5 119t-46.5 147t-29 163t-17 179q-6 130 -6.5 246zM337.5 743q-2.5 -49 4.5 -102q4 -50 10 -88t17.5 -80t28 -72t43 -58.5t61 -46t82.5 -28t108 -10.5q84 0 145.5 20.5t98.5 52.5t61 85t34.5 103.5 t17.5 121.5q5 64 6 121t-18.5 105t-56.5 83t-108 54.5t-174 19.5q-86 0 -150 -13.5t-103 -38.5t-64 -60t-33 -77.5t-10.5 -91.5zM473 1208q2 -53 23 -81.5t82 -28.5q63 0 83.5 28.5t20.5 81.5q2 54 -19 82.5t-85 28.5t-84.5 -28.5t-20.5 -82.5zM633 571q-1 39 0 66t8.5 56 t22 46t40.5 28t64 11q37 0 63 -11t40.5 -28.5t22 -45.5t9 -55.5t0.5 -66.5q-2 -50 -6.5 -82t-18 -64t-40.5 -47.5t-68 -15.5q-34 0 -58.5 11t-39 28.5t-23 46.5t-12 56.5t-4.5 66.5zM735 1184q2 -53 23 -82t82 -29q62 0 83 29.5t21 81.5q1 27 -2 46.5t-12.5 40t-31.5 31.5 t-56 11q-63 0 -85 -36t-22 -93z" />
<glyph unicode="&#xd7;" d="M82.5 747.5q3.5 81.5 17 152.5t55 129.5t106.5 100t171.5 64.5t249.5 23q96 0 176 -10.5t139.5 -29t105.5 -48t77 -62.5t51.5 -78t31 -88.5t13.5 -100t0.5 -107.5t-8.5 -115q-9 -84 -19.5 -147t-31 -133t-48.5 -120t-72.5 -97.5t-102.5 -77t-139 -47t-181 -17.5 t-181 17.5t-138 47t-101 77t-71.5 97.5t-46.5 120t-29 133t-17 147q-11 88 -7.5 169.5zM303 983q35 -67 35 -250q-1 -164 51 -205q30 -23 109 -24h26q15 0 21 -9t0 -18.5t-21 -9.5q-94 1 -133 -31t-39 -78q0 -144 -22 -182q62 -4 106 -0.5t74 17.5t47.5 31.5t27 52t12 69 t3.5 92.5q0 29 15 49t49 19q56 -1 67.5 -28t11.5 -130q0 -42 10.5 -69t20.5 -33l10 -6q136 -4 310 16q-4 3 -10.5 9t-17 35.5t-9.5 70.5q1 35 -9.5 58.5t-25 35.5t-45 18.5t-53.5 7.5t-68 1q-15 0 -21 9.5t0 18.5t21 8q102 0 134 32t30 124q0 118 6 178t12 72.5t23 32.5 q-140 17 -166 17q-58 -2 -78 -42q-21 -44 -22 -209v-35q0 -110 -54 -108q-41 1 -58 19.5t-24.5 81t-7.5 208.5q0 24 -4.5 41.5t-10.5 26.5t-12.5 14.5t-11.5 6.5l-4 1q-143 6 -305 -6z" />
<glyph unicode="&#xd8;" d="M82.5 774.5q-1.5 60.5 2 128.5t14.5 119.5t32 105.5t52.5 93t77.5 74t106 57t139.5 34.5t175.5 12.5q97 0 176 -12.5t139 -34.5t106 -57t77 -74t51.5 -93t31 -105.5t13.5 -119.5t0.5 -128.5t-8.5 -137.5q-9 -101 -19.5 -176t-31 -158.5t-48.5 -143t-72.5 -116.5 t-102.5 -91.5t-139 -55.5t-181 -21q-78 0 -144.5 12.5t-118 34.5t-94 57t-73 74t-55 92.5t-40.5 105.5t-28 120t-18.5 128.5t-12.5 137.5t-7.5 137.5zM345.5 725q-2.5 -49 4.5 -102q12 -139 49 -225.5t127 -127.5q28 -13 -1 -35q-8 -6 -32 -21q-74 -45 -96 -80q-1 -1 -2 -3 q-13 -21 -15.5 -42.5t6 -39.5t33 -29.5t62.5 -11.5q74 0 111.5 37t42.5 86q2 36 -12.5 67.5t-12.5 37.5q4 8 16 9t36 -2t38 -3q84 0 145.5 20.5t98.5 52t61 84.5t34.5 103.5t17.5 122.5q33 334 -197 368q-27 5 -7 24q6 7 27 23q67 54 89 92q13 23 16 46.5t-4.5 43.5t-31 33 t-60.5 13q-73 0 -111 -35t-43 -84q-3 -31 9.5 -57.5t24.5 -44.5t9 -29q-2 -5 -7 -7.5t-13.5 -3t-16 -0.5t-18.5 0.5t-16 0.5q-86 0 -150 -13.5t-103 -38.5t-64 -60t-33.5 -77.5t-11 -91.5zM499.5 746q0.5 31 8.5 56.5t21.5 44.5t39.5 29.5t64 10.5t64.5 -11t41 -28t22 -45.5 t9 -56t0.5 -66.5q-2 -50 -7 -82t-18 -64t-40.5 -47.5t-69.5 -15.5q-41 0 -68.5 15.5t-41 47t-18.5 64t-7 82.5q-1 35 -0.5 66z" />
<glyph unicode="&#xd9;" d="M82.5 948q3.5 100 17 186.5t55 158t106.5 122.5t171.5 79t249.5 28q96 0 176 -13t139.5 -35.5t105.5 -59t77 -76.5t51.5 -95t31 -108t13.5 -122.5t0.5 -131t-8.5 -140.5q-9 -103 -19.5 -179.5t-31 -162t-48.5 -146t-72.5 -118.5t-102.5 -93.5t-139 -57t-181 -21.5 t-181 21.5t-138.5 57t-101 93.5t-71 118.5t-46.5 146t-29 162.5t-17 179q-11 107 -7.5 207zM342 958q2 -10 5 -33t7 -111.5t-4 -205.5q-5 -96 7 -161t47 -111.5t101 -63.5t165 -6q46 5 102.5 19.5t90 24.5t78.5 15t67 -8q-1 16 -3 44.5t-4.5 105.5t-1.5 141q1 78 4.5 164.5 t6.5 133.5l4 48q-39 -3 -80.5 -3t-73.5 3l-33 2q3 -30 7.5 -78t11.5 -147.5t6 -142.5q0 -9 -1 -32.5t-1.5 -32t-2 -28t-4 -27t-7 -21.5t-11.5 -20t-16 -14t-22 -11.5t-29 -4.5q-20 -2 -34.5 1t-24.5 9.5t-16.5 17t-10 24t-5 29.5t-1.5 34.5v38.5v22q0 332 -42 381l-6 4 q-60 -8 -129 -8t-108 4zM600 1184q6 -23 34 -39.5t57.5 -25.5t55 -31t27.5 -56q11 -2 22 -1t20 3l9 2q9 91 11 148q0 47 -23.5 73.5t-95.5 26.5t-99.5 -29t-17.5 -71z" />
<glyph unicode="&#xda;" d="M82.5 850.5q3.5 99.5 17 186t55 157.5t106.5 122t171.5 79t249.5 28q96 0 176 -13t139.5 -35.5t105.5 -58.5t77 -76t51.5 -95t31 -108t13.5 -122.5t0.5 -131t-8.5 -140.5q-9 -103 -19.5 -179.5t-31 -162t-48.5 -146t-72.5 -118.5t-102.5 -93.5t-139 -57t-181 -21.5 t-181 21.5t-138.5 57t-101 93.5t-71 118.5t-46.5 146t-29 162.5t-17 179q-11 108 -7.5 207.5zM342 860q2 -10 5 -33t7 -111.5t-4 -205.5q-5 -96 7 -161t47 -111.5t101 -63.5t165 -6q46 5 102.5 19.5t90 24.5t78.5 15t67 -8q-1 16 -3 44.5t-4.5 105.5t-1.5 141 q1 78 4.5 164.5t6.5 133.5l4 48q-39 -3 -80.5 -3t-73.5 3l-33 2q3 -31 7.5 -79t11.5 -147.5t6 -142.5q0 -9 -1 -32.5t-1.5 -32t-2 -27.5t-4 -27t-7 -21.5t-11.5 -19.5t-16 -14t-22 -11.5t-29 -4.5q-20 -2 -34.5 1t-24.5 9.5t-16.5 17t-10 24t-5 29.5t-1.5 34.5v38.5v22 q0 332 -42 381l-6 4q-60 -8 -129 -8t-108 4zM627 1085l10 -147q3 -1 8.5 -2t20.5 -3t22 1q2 34 27.5 56t55 31t57.5 25t34 39q10 42 -17.5 71.5t-99.5 29.5t-95 -27t-23 -74z" />
<glyph unicode="&#xdb;" d="M82.5 932.5q3.5 99.5 17 186t55 157.5t106.5 122t171.5 79t249.5 28q96 0 176 -13t139.5 -35.5t105.5 -58.5t77 -76t51.5 -95t31 -108t13.5 -122.5t0.5 -131t-8.5 -140.5q-9 -103 -19.5 -179.5t-31 -162t-48.5 -146t-72.5 -118.5t-102.5 -93.5t-139 -57t-181 -21.5 t-181 21.5t-138.5 57t-101 93.5t-71 118.5t-46.5 146t-29 162.5t-17 179q-11 108 -7.5 207.5zM342 946q2 -10 5 -33t7 -111.5t-4 -205.5q-5 -96 7 -161t47 -111.5t101 -63.5t165 -6q46 5 102.5 19.5t90 24.5t78.5 15t67 -8q-1 16 -3 44.5t-4.5 105.5t-1.5 141 q1 78 4.5 164.5t6.5 133.5l4 48q-39 -3 -80.5 -3t-73.5 3l-33 2q3 -31 7.5 -79t11.5 -147.5t6 -142.5q0 -9 -1 -32.5t-1.5 -32t-2 -27.5t-4 -27t-7 -21.5t-11.5 -19.5t-16 -14t-22 -11.5t-29 -4.5q-20 -2 -34.5 1t-24.5 9.5t-16.5 17t-10 24t-5 29.5t-1.5 34.5v38.5v22 q0 332 -42 381l-6 4q-60 -8 -129 -8t-108 4zM537 1047q11 2 38 2t49 -1l21 -1q19 93 37 119.5t33.5 -9t29.5 -127.5q103 2 150 -6q-24 58 -47 123t-34 101l-11 36l-37.5 -2.5t-79 -3.5t-68.5 2q-36 -131 -81 -233z" />
<glyph unicode="&#xdc;" d="M83.5 994q-0.5 116 33 213.5t95.5 168.5t180.5 110.5t289.5 39.5q97 0 176.5 -13t139 -35.5t105.5 -58.5t77 -75.5t51.5 -94.5t31 -108t13.5 -122t0.5 -130.5t-8.5 -140.5q-7 -79 -14.5 -140.5t-20.5 -131t-29.5 -122.5t-41.5 -108t-56 -95t-74 -76.5t-95 -59 t-118.5 -35.5t-144.5 -13q-100 0 -181 21.5t-138 57.5t-101 94t-71.5 119t-46.5 147t-29 163t-17 179q-6 130 -6.5 246zM362 946q2 -10 5 -33t7 -111.5t-3 -205.5q-6 -96 5.5 -161.5t46.5 -112t101 -63t166 -5.5q45 5 101 19.5t89.5 24.5t78.5 15t67 -8q-1 16 -2.5 44 t-4 105t-1.5 142q1 78 4.5 164.5t6.5 133.5l3 48q-32 -4 -78 -4t-76 2l-30 2q3 -31 7 -78.5t10.5 -147t4.5 -141.5q0 -9 -1 -33t-1.5 -32.5t-2 -27.5t-4 -26.5t-7 -21.5t-11 -20t-15.5 -13.5t-21.5 -11t-28.5 -4.5q-17 -2 -31 -0.5t-23.5 8t-16.5 11.5t-11.5 20t-7 22.5 t-3.5 29t-1 31.5v36v18q0 333 -41 379l-6 4q-69 -8 -130.5 -7.5t-102.5 5.5zM471 1145q2 -54 22.5 -82.5t81.5 -28.5q63 0 84 28.5t21 82.5q2 52 -19.5 81t-85.5 29t-84 -28.5t-20 -81.5zM733 1120q2 -54 22.5 -82t82.5 -28t83 28.5t21 81.5q1 20 -0.5 36.5t-7.5 34.5 t-17 30t-30.5 20t-46.5 8q-107 0 -107 -129z" />
<glyph unicode="&#xdd;" d="M82.5 907.5q3.5 99.5 17 186t55 158t106.5 122.5t171.5 79t249.5 28q96 0 176 -13t139.5 -35.5t105.5 -59t77 -76.5t51.5 -95t31 -108t13.5 -122.5t0.5 -131t-8.5 -140.5q-9 -103 -19.5 -179.5t-31 -162t-48.5 -146t-72.5 -118.5t-102.5 -93.5t-139 -57t-181 -21.5 t-181 21.5t-138.5 57t-101 93.5t-71 118.5t-46.5 146t-29 162.5t-17 179q-11 108 -7.5 207.5zM348 442q-2 -68 22.5 -114.5t72 -69.5t99.5 -32t120 -9q56 0 91.5 1t73 10t59 16t44 33.5t33.5 46t22.5 70.5t15.5 91.5t9 123t6.5 150.5t3.5 189q-62 -19 -156 -19.5t-153 15.5 q-2 -153 -5 -233.5t-12.5 -121.5t-19.5 -49t-33 -8q-10 0 -17 2t-13.5 6.5t-10.5 11.5t-7.5 18t-5 25t-2.5 34t-1 43t0.5 53.5t1.5 64t2 76.5q0 14 0.5 21.5t1 20t0.5 22.5q-47 -15 -103 -18.5t-106 8.5q6 -52 2.5 -102t-2 -97t5.5 -88.5t24.5 -74.5t56 -55t99.5 -32t154 -4 q60 5 79.5 -7.5t18.5 -53.5q-2 -36 -30 -54t-95 -18q-3 0 -9 0.5t-20.5 5.5t-25 13.5t-18 27.5t-5.5 45q-127 -12 -268 16zM598 1155l10 -145q3 -1 8.5 -2t20.5 -3t22 1q2 33 27.5 55t56 31t58.5 25t33 38q10 42 -17.5 71t-99.5 29t-95.5 -26.5t-23.5 -73.5z" />
<glyph unicode="&#xde;" d="M82.5 837.5q3.5 81.5 17 152.5t55 129.5t106.5 100t171.5 64.5t249.5 23q96 0 176 -10.5t139.5 -29t105.5 -48t77 -62.5t51.5 -78t31 -88.5t13.5 -100t0.5 -107.5t-8.5 -115q-9 -84 -19.5 -147t-31 -133t-48.5 -120t-72.5 -97.5t-102.5 -77t-139 -47t-181 -17.5 t-181 17.5t-138 47t-101 77t-71.5 97.5t-46.5 120t-29 133t-17 147q-11 88 -7.5 169.5zM356 1044q35 -150 52.5 -353.5t1.5 -395.5l272 -10q-11 104 -9 125q5 43 48 54q17 4 41 5q149 6 209.5 71t62.5 195q0 47 -3 77t-15.5 65.5t-36 55t-67.5 32t-107 10.5q-15 -1 -48 -4.5 t-54.5 -5t-49 1t-42.5 11.5t-24 29.5t-5 51.5q-33 -2 -90.5 -6t-92 -6t-43.5 -3zM494 610q-1 21 1.5 32.5t13.5 24.5t38 19t71 6t70.5 -6t37.5 -19t13.5 -24.5t1.5 -32.5q0 -21 -3 -33.5t-14.5 -25.5t-37.5 -19t-68 -6q-43 0 -69 5.5t-37 19.5t-14 25.5t-4 33.5z" />
<glyph unicode="&#xdf;" horiz-adv-x="2131" d="M82.5 748q-2.5 51 3.5 107.5t25 100t54.5 88.5t88 78t130.5 62.5t178.5 48t234 29t295.5 10.5t295 -10.5t233 -29t177.5 -48t129.5 -62.5t86.5 -78t52 -88.5t22.5 -100t1.5 -107.5t-14.5 -115q-15 -84 -32.5 -147.5t-52 -133.5t-81.5 -120t-122 -97.5t-172.5 -76.5 t-233.5 -46.5t-304 -17.5q-132 0 -243.5 10.5t-198.5 29t-158.5 48t-123.5 62t-92.5 77.5t-67.5 88.5t-47 100t-31.5 108t-20.5 115.5t-11.5 115zM315 530q3 -141 96.5 -199.5t280.5 -60.5q158 -2 230 44t79 161q6 96 -49.5 134t-163.5 38q-78 0 -127.5 5t-73 15.5 t-31.5 21.5t-9 28q-2 31 20 49t74 18q29 0 48.5 -3t29 -8.5t14.5 -13.5t4.5 -17.5t-0.5 -20.5q68 6 140 -5.5t109 -26.5l38 -15q14 84 7 152t-36 116.5t-101.5 75t-188.5 26.5q-146 0 -213 -19q-188 -54 -166 -288q2 -25 8 -46.5t17.5 -38.5t22.5 -30t30.5 -23t35 -17.5 t41.5 -12.5t44.5 -8.5t51 -5.5t52.5 -3t57 -3q107 -6 135.5 -18t24.5 -56q-5 -47 -78 -47q-38 0 -57 14.5t-13 46.5q-68 -12 -194.5 2t-188.5 39zM1110 494q1 -72 26 -120.5t75.5 -76t116 -39t159.5 -12.5q158 -2 230 44t79 161q6 96 -49.5 134t-163.5 38q-113 0 -185.5 5 t-106.5 15.5t-45 21t-13 27.5q-2 31 20.5 49.5t75.5 18.5q35 0 56 -4t29 -14.5t9 -19t0 -26.5q93 4 192 -8t151 -26l53 -13q14 84 7 152t-36.5 117t-102 75.5t-188.5 26.5q-146 0 -213 -19q-188 -54 -166 -288q3 -31 10.5 -57t21.5 -44t27 -32t34.5 -23t35.5 -15t40 -9.5 t37.5 -5t37.5 -3.5q84 -10 102 -20q24 -16 21 -53q-5 -48 -78 -48q-39 0 -57.5 15t-14.5 47q-141 0 -227 29z" />
<glyph unicode="&#xe0;" d="M82.5 877q-0.5 77 9.5 162.5t33.5 146.5t68 119t109.5 93.5t160.5 57t218.5 21.5q97 0 176.5 -13t139 -35.5t105.5 -58.5t77 -76t51.5 -94.5t31 -108t13.5 -122.5t0.5 -130.5t-8.5 -140.5q-9 -103 -19.5 -179.5t-31 -162t-48.5 -146.5t-72.5 -119.5t-102.5 -94t-139 -57 t-181 -21.5q-78 0 -144.5 13t-118 35.5t-94 58.5t-73 76t-55 95t-40.5 108t-28 122.5t-18.5 131.5t-12.5 140q-7 102 -7.5 179zM344 690q229 31 332 10q-4 43 8 63t57 19q51 0 73 -27.5t18.5 -56t-15.5 -39.5q-10 -9 -33.5 -14.5t-58.5 -6t-61 0t-65 2.5t-46 2 q-85 3 -132.5 -50.5t-49.5 -141.5q-3 -165 64.5 -223.5t228.5 -37.5q128 0 323 41q-13 27 -15 119t2 170l5 78q6 86 -4.5 144t-43 103t-96 66t-161.5 21q-69 0 -112 -2.5t-84.5 -11t-64.5 -24.5t-41 -43t-24 -66t-4 -95zM543 1147q5 -22 33 -38.5t58 -25.5t55.5 -31 t27.5 -55q11 -2 21.5 -1.5t19.5 2.5l8 1q10 93 10 148q0 47 -23 73.5t-94 26.5q-73 0 -99.5 -29t-16.5 -71zM651 500q1 19 4 29.5t14.5 22t37.5 16.5t67 5t66.5 -5t36 -16.5t13 -22t1.5 -29.5t-4 -29.5t-14.5 -22.5t-37.5 -17t-67 -5t-66.5 5t-36 17t-13 22.5t-1.5 29.5z " />
<glyph unicode="&#xe1;" d="M82.5 924q-0.5 77 9.5 162.5t33.5 146.5t68 119t109.5 93.5t160.5 57t218.5 21.5q97 0 176.5 -13t139 -35.5t105.5 -58.5t77 -76t51.5 -94.5t31 -108t13.5 -122.5t0.5 -130.5t-8.5 -140.5q-9 -103 -19.5 -179.5t-31 -162t-48.5 -146.5t-72.5 -119.5t-102.5 -94t-139 -57 t-181 -21.5q-78 0 -144.5 13t-118 35.5t-94 58.5t-73 76t-55 95t-40.5 108t-28 122.5t-18.5 131.5t-12.5 140q-7 102 -7.5 179zM350 791q223 30 332 10q-4 42 8.5 62t59.5 20q39 -1 61 -17.5t25 -38t-1 -41t-12 -26.5q-22 -21 -122 -21.5t-142 4.5q-85 3 -132.5 -51 t-49.5 -141q-1 -165 66 -223t227 -37q128 0 323 41q-13 27 -15 118.5t2 169.5l5 78q6 85 -4 143t-42.5 103t-96 66.5t-162.5 21.5q-69 0 -111.5 -2.5t-84.5 -11t-64.5 -24t-41 -42.5t-24.5 -66t-4 -95zM621 1251q0 -24 2.5 -61t4.5 -62l3 -24q3 -1 8 -1.5t19.5 -1.5t21.5 1 q2 33 27.5 55t55.5 31t58 25t33 38q10 42 -17 71.5t-100 29.5q-70 0 -93 -27t-23 -74zM657 600q1 24 7.5 37t35 24t82.5 11q41 0 66 -5t35 -16.5t12.5 -22t1.5 -28.5q0 -19 -3 -29.5t-14.5 -22t-37.5 -17t-68 -5.5q-41 0 -66.5 5t-36 17t-13 22.5t-1.5 29.5z" />
<glyph unicode="&#xe2;" d="M82.5 983.5q3.5 99.5 17 186t55 157.5t106.5 122t171.5 79t249.5 28q96 0 176 -13t139.5 -35.5t105.5 -58.5t77 -76t51.5 -95t31 -108t13.5 -122.5t0.5 -131t-8.5 -140.5q-9 -103 -19.5 -179.5t-31 -162t-48.5 -146t-72.5 -118.5t-102.5 -93.5t-139 -57t-181 -21.5 t-181 21.5t-138.5 57t-101 93.5t-71 118.5t-46.5 146t-29 162.5t-17 179q-11 108 -7.5 207.5zM338 795q221 30 332 10q-4 43 8 63t57 19q39 -1 61.5 -17.5t26 -38t0 -40.5t-11.5 -27q-10 -9 -33.5 -14.5t-58.5 -6t-61 0t-65 2.5t-46 2q-85 3 -132.5 -51.5t-49.5 -141.5 q-3 -165 64 -223t226 -37q131 0 326 41q-13 27 -15 118.5t2 169.5l5 78q5 85 -5.5 143t-42.5 103t-95.5 66.5t-161.5 21.5q-69 0 -111.5 -2.5t-84.5 -11t-64.5 -24t-41 -42.5t-24.5 -66t-4 -95zM483 1133q11 2 38.5 2t48.5 -1l22 -1q19 93 37 119.5t33.5 -9t29.5 -127.5 q103 2 150 -6q-24 58 -47 123t-34 101l-11 36l-37.5 -2.5t-79 -3.5t-68.5 2q-35 -125 -82 -233zM645 604q1 19 4 29.5t14.5 22.5t37.5 17t67 5t66.5 -5t36 -17t13 -22.5t1.5 -29.5t-4 -29.5t-14.5 -22.5t-37.5 -17t-67 -5q-42 0 -67.5 5t-36 17t-12.5 22.5t-1 29.5z" />
<glyph unicode="&#xe3;" d="M83.5 971q-0.5 116 33 213.5t95.5 168.5t180.5 110.5t289.5 39.5q97 0 176.5 -13t139 -35.5t105.5 -58.5t77 -75.5t51.5 -94.5t31 -108t13.5 -122t0.5 -130.5t-8.5 -140.5q-9 -103 -19.5 -180t-31 -162.5t-48.5 -146.5t-72.5 -119t-102.5 -93.5t-139 -57t-181 -21.5 t-181 21.5t-138.5 57t-101 93.5t-71 119t-46.5 146.5t-29 162.5t-17 180q-6 130 -6.5 246zM326 729q228 31 331 10q-5 42 7.5 62.5t58.5 19.5q39 0 61 -16t25.5 -38t0.5 -41t-11 -28q-22 -20 -123 -20.5t-144 4.5q-85 3 -132.5 -50.5t-47.5 -139.5q-3 -167 64 -225.5 t227 -37.5q131 0 324 41q-12 27 -14.5 119t1.5 170l4 78q6 86 -4 144t-42 103.5t-95.5 67t-161.5 21.5q-69 0 -112.5 -2.5t-85 -11.5t-64.5 -25t-40.5 -43.5t-23 -66.5t-3.5 -95zM496.5 1189.5q-0.5 -53.5 5.5 -126.5l76 8q-3 53 -3 82q0 40 21 47q17 6 26 -21l3 -18 q3 -56 26.5 -72t79.5 -16q24 0 43 4t32 14t23 19t15.5 26.5t9.5 28t5 33t1.5 32t0 33.5t-0.5 31q-18 4 -50.5 7.5t-55.5 4.5l-23 1q2 -86 2 -119q1 -21 -9.5 -31.5t-21.5 -2.5t-12 34q0 51 -23.5 84.5t-84.5 32.5q-44 -1 -64.5 -31.5t-21 -84zM633 539q1 19 4 29.5t14.5 22 t37.5 16.5t67 5t66.5 -5t35.5 -16.5t12.5 -22t1.5 -29.5t-4 -29.5t-14 -22.5t-37 -17t-67 -5q-42 0 -67.5 5t-36 17t-12.5 22.5t-1 29.5z" />
<glyph unicode="&#xe4;" d="M83.5 1016q-0.5 116 33 213.5t95.5 168.5t180.5 110.5t289.5 39.5q97 0 176.5 -13t139 -35.5t105.5 -58.5t77 -75.5t51.5 -94.5t31 -108t13.5 -122t0.5 -130.5t-8.5 -140.5q-9 -103 -19.5 -179.5t-31 -162t-48.5 -146t-72.5 -118.5t-102.5 -93.5t-139 -57t-181 -21.5 t-181 21.5t-138.5 57t-101 93.5t-71 118.5t-46.5 146t-29 162.5t-17 179q-6 130 -6.5 246zM338 788q215 34 332 13q-4 42 8 62t57 20q39 -1 61.5 -17.5t26 -38t0 -40.5t-11.5 -27q-22 -21 -122 -21.5t-142 4.5q-85 1 -132.5 -52.5t-49.5 -139.5q-3 -165 64 -223t226 -37 q131 0 326 41q-13 27 -15 118t2 168l5 78q5 86 -5.5 144t-42.5 103.5t-95.5 67t-161.5 21.5q-69 0 -112 -2.5t-84.5 -11t-64.5 -24.5t-41 -43.5t-24 -67t-4 -95.5zM440 1241q0 -54 21 -82.5t84 -28.5q61 0 81.5 28.5t22.5 82.5q0 54 -21 82.5t-85 28.5q-63 0 -84 -29 t-19 -82zM645 600q1 24 7 37t34 24t82 11q41 0 66.5 -5t36 -16.5t13 -22t1.5 -28.5q-1 -19 -4 -29.5t-14.5 -22.5t-37.5 -17t-67 -5q-42 0 -67.5 5t-36 17t-12.5 22.5t-1 29.5zM688 1217q2 -54 22.5 -82.5t82.5 -28.5q63 0 83.5 28.5t20.5 82.5q1 27 -2 46.5t-12.5 40 t-31.5 31.5t-56 11q-63 0 -85 -36t-22 -93z" />
<glyph unicode="&#xe5;" d="M83.5 1037q-0.5 116 33 213.5t95.5 168.5t180.5 110.5t289.5 39.5q97 0 176.5 -13t139 -35.5t105.5 -58.5t77 -75.5t51.5 -94.5t31 -108t13.5 -122t0.5 -130.5t-8.5 -140.5q-9 -103 -19.5 -180t-31 -163t-48.5 -147t-72.5 -119t-102.5 -93.5t-139 -57t-181 -21.5 q-78 0 -144.5 13t-118 35.5t-94 58.5t-73 76t-55 95t-40.5 108t-28 122.5t-18.5 131.5t-12.5 141q-6 130 -6.5 246zM338 797q80 13 166 17t166 -7q-4 43 8 63t57 19q39 0 61.5 -16t26 -38t0 -41t-11.5 -28q-12 -11 -49 -15.5t-71.5 -4t-83 2t-60.5 1.5q-85 3 -132.5 -50.5 t-49.5 -140.5q-3 -166 64 -224.5t226 -37.5q131 0 326 41q-13 27 -15 119t2 170l5 78q4 68 -1.5 117.5t-24 92.5t-53.5 69.5t-91 41t-135 14.5q-68 0 -111.5 -2.5t-85 -11.5t-64.5 -25t-40.5 -43t-24 -66t-4.5 -95zM541 1243q7 -66 39 -100.5t122 -34.5t123.5 34.5 t42.5 100.5q6 29 1.5 54t-18.5 43.5t-50.5 29t-95.5 10.5q-110 0 -141.5 -34.5t-22.5 -102.5zM645 606q1 19 4 29.5t14.5 22.5t37.5 17t67 5t66.5 -5t36 -17t13 -22.5t1.5 -29.5t-4 -29.5t-14.5 -22.5t-37.5 -17t-67 -5q-42 0 -67.5 5t-36 17t-12.5 22.5t-1 29.5zM682 1225 q-2 22 8 32.5t45 10.5q37 0 47.5 -10.5t8.5 -32.5q-1 -16 -4.5 -24.5t-15.5 -14.5t-34 -6q-32 0 -42.5 11t-12.5 34z" />
<glyph unicode="&#xe6;" horiz-adv-x="1843" d="M82 699q-2 51 3.5 107.5t21 100t46 88.5t75.5 78t112 62.5t153 48t200 29t253 10.5q206 0 359.5 -23t246 -64.5t151.5 -100t77 -129.5t22 -152.5t-14 -169.5q-12 -84 -27 -147.5t-44 -133.5t-69.5 -120t-104.5 -97.5t-147.5 -76.5t-200 -46.5t-261.5 -17.5 q-144 0 -260.5 17.5t-199.5 46.5t-146 76.5t-102.5 97.5t-67 120t-41.5 133.5t-25 147.5q-8 64 -10 115zM297 700q215 34 332 13q-5 41 7 61.5t58 20.5q39 -1 61.5 -17.5t26 -38t0 -40.5t-11.5 -27q-10 -9 -33.5 -14.5t-59 -6.5t-61 -0.5t-66 2.5t-46.5 2q-85 1 -131.5 -52 t-48.5 -140q-1 -48 4.5 -83t15 -60.5t30.5 -42t40 -26t56.5 -14.5t68 -6t84.5 -2q135 0 267 1t265 1q86 0 141.5 5t107 20.5t80 44t45 75.5t17.5 116q-91 -13 -199.5 -19.5t-199.5 2.5q7 -42 -6.5 -63.5t-61.5 -20.5q-55 0 -77.5 17.5t-22.5 58.5q0 26 14 38t58.5 18 t146.5 9q54 2 85.5 3t65.5 4.5t51.5 7t36.5 11t26.5 16t15.5 22.5t11 30t5 40q15 169 -67 234t-277 65q-99 0 -220.5 -3.5t-305.5 -3.5q-100 0 -158 -9t-100 -36.5t-57 -78t-13 -134.5zM616 510q1 19 4 29.5t14.5 22.5t37.5 17t67 5t66.5 -5t36 -17t13 -22.5t1.5 -29.5 q-1 -24 -7 -37t-34 -24t-82 -11q-42 0 -67.5 5t-36 17t-12.5 22t-1 28zM870 680q-1 20 2 31t15 23.5t41.5 18t77.5 5.5q47 0 76 -5.5t41 -18t15 -23.5t3 -31q-1 -19 -4.5 -29.5t-16 -23t-40.5 -18t-74 -5.5t-74.5 5.5t-41 17.5t-16 23t-4.5 30z" />
<glyph unicode="&#xe7;" d="M83.5 1012q-0.5 116 33 213.5t95.5 168.5t180.5 110.5t289.5 39.5q97 0 176.5 -13t139 -35.5t105.5 -58.5t77 -75.5t51.5 -94.5t31 -108t13.5 -122t0.5 -130.5t-8.5 -140.5q-9 -103 -19.5 -179.5t-31 -162t-48.5 -146t-72.5 -118.5t-102.5 -93.5t-139 -57t-181 -21.5 t-181 21.5t-138.5 57t-101 93.5t-71 118.5t-46.5 146t-29 162.5t-17 179q-6 130 -6.5 246zM366 932q1 -40 5 -94q4 -48 8 -82t13 -73t21 -64.5t31.5 -51t46 -40.5t63 -24t83.5 -9q24 0 36 -27q14 -31 -9 -48q-22 -15 -70 -5q-41 8 -69 0.5t-41 -28t-18 -40t-5 -43.5 q-2 -49 29.5 -74.5t132.5 -25.5q103 0 136.5 34t26.5 105q-2 18 -9.5 43.5l-12.5 42.5t-6.5 33.5t9.5 24.5t36 8q76 0 123 9.5t80 37.5t46.5 76.5t14.5 127.5q-86 -13 -189 -19t-188 3q12 -102 -84 -102q-48 0 -66 43.5t-28 160.5q-7 90 7 138t61 51q46 2 58 -41t-1 -184 q17 0 80.5 -1t103 -1t95 4t94.5 12q14 68 14.5 130.5t-17.5 122t-55 102.5t-104 69.5t-158 26.5q-68 0 -121 -12t-88 -32t-59 -52.5t-36 -65.5t-16.5 -79.5t-3.5 -86.5z" />
<glyph unicode="&#xe8;" d="M83.5 965q-0.5 116 33 213.5t95.5 168.5t180.5 110.5t289.5 39.5q97 0 176.5 -13t139 -35.5t105.5 -58.5t77 -75.5t51.5 -94.5t31 -108t13.5 -122t0.5 -130.5t-8.5 -140.5q-9 -103 -19.5 -179.5t-31 -162t-48.5 -146t-72.5 -118.5t-102.5 -93.5t-139 -57t-181 -21.5 t-181 21.5t-138.5 57t-101 93.5t-71 118.5t-46.5 146t-29 162.5t-17 179q-6 130 -6.5 246zM340.5 683.5q1.5 -62.5 5.5 -130.5q6 -69 16 -117t33.5 -95t60 -75t96.5 -45.5t142 -17.5q71 0 119 3t95.5 12.5t76.5 27t53 46.5t34.5 71t10.5 100q-57 -8 -125 -14.5t-149.5 -9 t-124.5 6.5q7 -44 -6 -65.5t-62 -20.5q-54 0 -77 17.5t-23 58.5q0 27 13.5 39t59 19t146.5 10q72 2 109.5 3.5t76.5 7t54.5 12.5t30.5 22.5t19 34.5t7 51q15 174 -71.5 259t-274.5 85q-100 0 -170 -22.5t-105 -62.5t-53.5 -94t-17 -116.5zM420 651q-1 19 2 30t14.5 23 t41 17.5t77.5 5.5q47 0 76.5 -5.5t41.5 -17.5t15 -23t2 -30q-1 -20 -4.5 -31t-16 -23.5t-40.5 -18t-74 -5.5t-74 5.5t-40.5 18t-16 23.5t-4.5 31zM510 1182q6 -22 34 -38.5t57.5 -25.5t55 -31.5t27.5 -56.5q9 -1 21.5 0t20.5 2l9 2q8 91 10 148q0 47 -23 73.5t-95 26.5 t-99.5 -29t-17.5 -71z" />
<glyph unicode="&#xe9;" d="M82.5 881q-0.5 77 9.5 162.5t33.5 146.5t68 119t109.5 93.5t160.5 57t218.5 21.5q97 0 176.5 -13t139 -35.5t105.5 -58.5t77 -76t51.5 -94.5t31 -108t13.5 -122.5t0.5 -130.5t-8.5 -140.5q-9 -103 -19.5 -179.5t-31 -162t-48.5 -146t-72.5 -118.5t-102.5 -93.5t-139 -57 t-181 -21.5t-181 21.5t-138.5 57t-101 93.5t-71 118.5t-46.5 146t-29 162.5t-17 179t-7.5 179zM314 653.5q-2 -53.5 5 -110.5q6 -68 16.5 -116.5t34 -95.5t60.5 -75t96.5 -45.5t141.5 -17.5q71 0 119.5 3t96 12.5t76.5 27t52.5 46.5t34 71t10.5 100q-57 -8 -125 -14.5 t-149.5 -9t-123.5 6.5q2 -26 0.5 -45.5t-18.5 -30.5t-51 -10q-54 0 -77.5 17.5t-23.5 58.5q1 28 15 40t58.5 18.5t146.5 9.5q73 2 110.5 3.5t76.5 7t54.5 12.5t30.5 22.5t19.5 34.5t7.5 51q15 174 -72.5 259t-276.5 85q-84 0 -146.5 -16t-99.5 -44t-60.5 -67.5t-30 -87 t-8.5 -101zM395 641q-1 19 2 30t14.5 23t40.5 17.5t76 5.5q48 0 77.5 -5.5t41.5 -17.5t15 -23t2 -30q0 -19 -3.5 -30.5t-15.5 -24t-40.5 -18t-74.5 -5.5t-75 5.5t-41 18t-15.5 23.5t-3.5 31zM604 1190l10 -148q4 -1 9 -1.5t20.5 -1.5t22.5 1q2 33 27.5 55t55 31t57.5 25.5 t34 38.5q10 42 -17.5 71t-99.5 29t-95.5 -26.5t-23.5 -73.5z" />
<glyph unicode="&#xea;" d="M83.5 924q-0.5 116 33 213.5t95.5 168.5t180.5 110.5t289.5 39.5q97 0 176.5 -13t139 -35.5t105.5 -58.5t77 -75.5t51.5 -94.5t31 -108t13.5 -122t0.5 -130.5t-8.5 -140.5q-9 -103 -19.5 -179.5t-31 -162t-48.5 -146t-72.5 -118.5t-102.5 -93.5t-139 -57t-181 -21.5 t-181 21.5t-138.5 57t-101 93.5t-71 118.5t-46.5 146t-29 162.5t-17 179q-6 130 -6.5 246zM314 632.5q-2 -53.5 5 -110.5q6 -68 16.5 -116t34 -94.5t60 -74.5t96.5 -45.5t142 -17.5q86 0 141 4.5t106.5 19.5t79.5 43.5t44.5 75t17.5 115.5q-56 -8 -125 -14.5t-149.5 -8.5 t-123.5 7q5 -45 -7 -65.5t-62 -20.5q-54 0 -77.5 17.5t-23.5 58.5q1 28 15 39.5t58.5 18t146.5 9.5q73 2 110.5 4t76.5 7.5t54.5 13t30.5 22.5t19.5 34t7.5 50q15 174 -72.5 259t-276.5 85q-84 0 -146.5 -16t-99.5 -44t-60.5 -67.5t-30 -87t-8.5 -101zM395 621q-1 15 0 24 t8 20t21 17t40 10t64 4q48 0 77.5 -5.5t41.5 -17.5t15 -22.5t2 -29.5q0 -19 -3.5 -30.5t-15.5 -24t-40.5 -18t-74.5 -5.5t-75 5.5t-41 18t-15.5 23.5t-3.5 31zM512 1047q15 2 39.5 1t46.5 -2l23 -2q19 94 37 121t33.5 -8.5t29.5 -126.5q100 2 149 -6q-24 58 -47 122.5 t-34 99.5l-11 36q-15 -1 -37 -2t-78.5 -2t-68.5 2q-32 -110 -82 -233z" />
<glyph unicode="&#xeb;" d="M83.5 957q-0.5 116 33 213.5t95.5 168.5t180.5 110.5t289.5 39.5q97 0 176.5 -13t139 -35.5t105.5 -58.5t77 -75.5t51.5 -94.5t31 -108t13.5 -122t0.5 -130.5t-8.5 -140.5q-9 -103 -19.5 -179.5t-31 -162t-48.5 -146.5t-72.5 -119t-102.5 -93.5t-139 -57t-181 -21.5 q-78 0 -144.5 13t-118 35.5t-94 58.5t-73 76t-55 94.5t-40.5 108t-28 122.5t-18.5 131t-12.5 140q-6 130 -6.5 246zM308 654.5q-2 -53.5 5 -109.5q6 -69 16 -117t33.5 -95t60.5 -75t97 -45.5t142 -17.5q86 0 141 4.5t106.5 19.5t79.5 43.5t44.5 75t17.5 115.5 q-57 -8 -125 -14.5t-149.5 -9t-123.5 6.5q5 -45 -7 -65.5t-62 -20.5q-54 0 -77.5 17.5t-23.5 58.5q1 28 14.5 40t58 18.5t146.5 9.5q63 2 97 4t70.5 5t53.5 9t34 14.5t23.5 23t11.5 31.5t7 44q15 176 -71 260t-275 84q-84 0 -146.5 -16t-99.5 -44t-60.5 -67.5t-30 -86.5 t-8.5 -100.5zM387 641q0 19 3 29.5t15 23t41 18t76 5.5q48 0 77.5 -5.5t41 -17.5t14.5 -23t2 -30q0 -20 -3.5 -31t-15.5 -23.5t-41 -18t-75 -5.5t-74 5.5t-40.5 18t-16 23.5t-4.5 31zM436 1157q0 -53 21.5 -81.5t83.5 -28.5t82 28t22 82q0 55 -20 83t-84 28q-65 0 -86 -29 t-19 -82zM711 1133q0 -53 21 -82t83 -29t82.5 28.5t22.5 82.5q0 58 -21 93.5t-84 35.5t-84.5 -36t-19.5 -93z" />
<glyph unicode="&#xec;" horiz-adv-x="1048" d="M81.5 898.5q-0.5 77.5 7.5 162t26.5 146t53 119t85 93t124.5 57t169 21.5q96 0 170 -21.5t124 -57t84 -93.5t52 -118.5t24.5 -146t5.5 -162.5t-8 -179q-5 -79 -11 -140.5t-16 -131t-22.5 -122.5t-32 -108t-43.5 -95t-57 -76t-73 -58.5t-91 -35.5t-112 -13 q-78 0 -140.5 21.5t-107.5 57t-79 94t-55 119.5t-36 146t-22.5 162.5t-12.5 179.5q-6 102 -6.5 179.5zM354 920q18 -134 25.5 -317t5.5 -299l-2 -116q38 15 111 18t126 -1l54 -4q1 27 -0.5 133.5t7 293t24.5 292.5q-97 -6 -185 -6t-127 3zM393 1165q6 -23 34 -39t58 -25 t55.5 -31t28.5 -56q10 -2 21 -1t20 3l8 2q9 90 11 147q0 47 -23.5 74t-93.5 27q-74 0 -101.5 -29.5t-17.5 -71.5z" />
<glyph unicode="&#xed;" horiz-adv-x="1048" d="M82 950.5q3 99.5 13.5 186t43 157.5t83 121.5t132.5 78.5t193 28q84 0 151.5 -15.5t115.5 -46.5t83.5 -70.5t57 -96.5t34 -114t16 -133.5t2 -145t-7.5 -157.5q-5 -79 -11 -140.5t-16 -131t-22.5 -122.5t-32 -108t-43.5 -95t-57 -76t-73 -58.5t-91 -35.5t-112 -13 q-78 0 -140.5 21.5t-107.5 57t-79 94t-55 119.5t-36 146t-22.5 162.5t-12.5 179.5q-9 108 -6 207.5zM354 940q18 -134 25.5 -316.5t5.5 -298.5l-2 -116q38 16 111 19t126 -2l54 -5q1 27 -0.5 133.5t7 293t24.5 292.5q-97 -6 -185 -6t-127 3zM428 1176q0 -25 2.5 -62t5.5 -62 l2 -24q3 -1 8 -2t19.5 -3t21.5 1q2 34 27.5 56t56 31t58.5 25.5t33 39.5q10 41 -17.5 69.5t-99.5 28.5t-95.5 -26t-21.5 -72z" />
<glyph unicode="&#xee;" horiz-adv-x="1048" d="M81.5 902.5q-0.5 77.5 7.5 162t26.5 146t53 119t85 93t124.5 57t169 21.5q96 0 170 -21.5t124 -57t84 -93.5t52 -118.5t24.5 -146t5.5 -162.5t-8 -179q-5 -79 -11 -140.5t-16 -130.5t-22.5 -122t-32 -108t-43.5 -94.5t-57 -76t-73 -58.5t-91 -35t-112 -13 q-78 0 -140.5 21.5t-107.5 57t-79 93.5t-55 118.5t-36 146t-22.5 162.5t-12.5 179q-6 102 -6.5 179.5zM356 1071q10 2 37.5 2t49.5 -1l22 -1q19 93 37 119.5t33.5 -8.5t29.5 -127q101 2 150 -6q-24 58 -47.5 123t-35.5 101l-11 36q-15 -1 -37 -2.5t-78.5 -3.5t-67.5 2 q-33 -114 -82 -234zM365 950q18 -135 24.5 -318t4.5 -299l-3 -116q39 16 112.5 19t126.5 -2l54 -5q1 27 -0.5 133.5t7 293.5t24.5 294q-97 -7 -184.5 -7t-126.5 3z" />
<glyph unicode="&#xef;" horiz-adv-x="1048" d="M81.5 884.5q-0.5 77.5 7.5 162t26.5 146t53 119t85 93t124.5 57t169 21.5q96 0 170 -21.5t124 -57t84 -93.5t52 -118.5t24.5 -146t5.5 -162.5t-8 -179q-7 -103 -15 -179.5t-24 -162t-37.5 -146.5t-55.5 -119t-78.5 -93.5t-107.5 -57t-140 -21.5q-78 0 -140.5 21.5 t-107.5 57t-79 93.5t-55 119t-36 146.5t-22.5 162.5t-12.5 179q-6 102 -6.5 179.5zM311 1153q2 -53 23 -82t82 -29t81.5 29t22.5 82q0 55 -20 83t-84 28q-65 0 -86 -29t-19 -82zM373 895q18 -135 25 -317.5t5 -297.5l-2 -116q38 15 111 18t126 -2l54 -4q1 27 -0.5 133.5 t7 293t24.5 292.5q-97 -6 -184.5 -6t-126.5 3zM573 1128q0 -52 21.5 -81t83.5 -29q61 0 81.5 28.5t22.5 81.5q0 27 -3.5 46.5t-13 40t-31.5 31.5t-56 11q-109 0 -105 -129z" />
<glyph unicode="&#xf0;" d="M82.5 811.5q3.5 81.5 17 152.5t55 129.5t106.5 99.5t171.5 64t249.5 23q97 0 176 -10.5t139 -29t106 -48t77 -62t51.5 -77.5t31 -88.5t13.5 -100.5t0.5 -107.5t-8.5 -115.5q-9 -84 -19.5 -147t-31 -133t-48.5 -120t-72.5 -97.5t-102.5 -77t-139 -47t-181 -17.5t-181 17.5 t-138 47t-101 77t-71.5 97.5t-46.5 120t-29 133t-17 147q-11 89 -7.5 170.5zM248 612q0 -67 22.5 -90.5t57.5 -15.5q19 6 59 55q29 37 38.5 33.5t12.5 -35.5q6 -67 -4 -229q262 -46 410 -43q201 5 229 342q10 106 -1 184t-35.5 122.5t-64.5 69.5t-81 31.5t-94 3.5 q-149 -6 -418 -30q16 -68 34 -176t19 -158q0 -21 -2.5 -30t-9 -6.5t-13 8.5t-18.5 19q-6 6 -9 10t-9 10t-10.5 9.5t-10.5 8t-11.5 7.5t-10.5 5q-33 12 -56.5 -13.5t-23.5 -91.5zM635 596q-2 45 1.5 74.5t15.5 57.5t40 42t72 14t72.5 -14t41 -42t16 -58t1.5 -74 q-2 -45 -6.5 -74.5t-17.5 -58.5t-39 -43t-66 -14t-66 14t-39 43t-18 58t-8 75z" />
<glyph unicode="&#xf1;" d="M83.5 924q-0.5 116 33 213.5t95.5 168.5t180.5 110.5t289.5 39.5q97 0 176.5 -13t139 -35.5t105.5 -58.5t77 -75.5t51.5 -94.5t31 -108t13.5 -122t0.5 -130.5t-8.5 -140.5q-9 -103 -19.5 -179.5t-31 -162t-48.5 -146.5t-72.5 -119.5t-102.5 -94t-139 -57t-181 -21.5 q-78 0 -144.5 13t-118 35.5t-94 58.5t-73 76t-55 95t-40.5 108t-28 122.5t-18.5 131.5t-12.5 140q-6 130 -6.5 246zM334 952q3 -18 6.5 -50t9.5 -129.5t4 -192.5q-1 -84 -4.5 -177.5t-6.5 -145.5l-3 -52q32 4 108 4t136 -2l61 -2q-3 34 -6.5 87.5t-9.5 164t-4 155.5v27 q1 98 16 130q20 42 76 48q47 4 69.5 -20t23.5 -68t-1 -102q-5 -168 -0.5 -256.5t13.5 -116.5l9 -27q41 8 86.5 8t70.5 -4l26 -4q-2 8 -3.5 29.5t-4 108t5.5 215.5q5 103 -7 172t-47.5 118t-101 68t-166.5 10q-234 -22 -356 4zM511.5 1145q-0.5 -53 6.5 -125l74 6v82 q0 41 21 47q16 5 23 -21q3 -8 3 -18q3 -54 28.5 -71t80.5 -17q24 0 43 4t32 14t23 19t15.5 26.5t9.5 28t5 33t1.5 32t0 33.5t-0.5 31q-18 4 -50.5 7.5t-55.5 4.5l-23 1q0 -86 2 -119q1 -21 -9.5 -31.5t-21.5 -2.5t-12 34q-2 52 -25.5 85t-85.5 32q-43 -1 -63.5 -31.5 t-21 -83.5z" />
<glyph unicode="&#xf2;" d="M82.5 924.5q3.5 96.5 17 180.5t55 153t106.5 118t171.5 76t249.5 27q97 0 176.5 -12.5t139 -34.5t105.5 -57t77 -73.5t51.5 -91.5t31 -104.5t13.5 -119t0.5 -127.5t-8.5 -136q-9 -100 -19.5 -174.5t-31 -157.5t-48.5 -142t-72.5 -115.5t-102.5 -90.5t-139 -55t-181 -21 q-88 0 -160.5 15t-127.5 45t-98 68.5t-73.5 93.5t-52 110.5t-35.5 129.5t-22.5 141t-14.5 153q-11 105 -7.5 201.5zM326 744.5q0 -57.5 4 -121.5q6 -72 15.5 -122t33 -103t59.5 -85t97 -52.5t145 -20.5t145 20.5t97.5 52.5t60.5 85.5t34.5 102.5t18.5 122q4 64 5 121.5 t-18 105.5t-56 82.5t-107.5 54t-173.5 19.5t-174 -19.5t-108.5 -54t-57.5 -82.5t-20 -105.5zM563 1221q6 -23 34 -39.5t57.5 -25.5t55 -31t27.5 -56q11 -2 22 -1t20 3l9 2q9 91 11 148q0 46 -23.5 72t-95.5 26t-99.5 -28.5t-17.5 -69.5zM620.5 619q0.5 31 8.5 56.5 t21.5 44.5t39.5 29.5t64 10.5t64.5 -11t41 -28t22 -45.5t9 -56t0.5 -66.5q-2 -50 -7 -82t-18 -64t-40.5 -47.5t-69.5 -15.5q-41 0 -68.5 15.5t-41 47t-18.5 64t-7 82.5q-1 35 -0.5 66z" />
<glyph unicode="&#xf3;" d="M72.5 930q3.5 96 17.5 179.5t56 152t108 117t174.5 75.5t253.5 27q98 0 179 -12.5t141.5 -34t107.5 -56.5t78.5 -73t52 -91t31.5 -104t14 -117.5t0.5 -126t-8.5 -135.5q-7 -76 -15 -135.5t-21 -126.5t-30 -118t-42.5 -104t-57 -91.5t-75 -73t-96 -56t-120 -34 t-147.5 -12.5t-147 12.5t-119.5 34t-95.5 56t-74.5 73t-56 91.5t-40.5 104t-28.5 118t-19.5 126.5t-13 135.5q-11 103 -7.5 199zM337.5 718q-2.5 -49 4.5 -102q4 -50 10 -88t17.5 -80t28 -72t43 -58.5t61 -46t82.5 -28t108 -10.5q84 0 145.5 20.5t98.5 52.5t61 85 t34.5 103.5t17.5 121.5q5 64 6 121t-18.5 105t-56.5 83t-108 54.5t-174 19.5q-86 0 -150 -13.5t-103 -38.5t-64 -60t-33 -77.5t-10.5 -91.5zM633 547q-1 39 0 66t8.5 56t22 46t40.5 28t64 11q37 0 63 -11t40.5 -28.5t22 -45.5t9 -55.5t0.5 -66.5q-2 -50 -6.5 -82t-18 -64 t-40.5 -47.5t-68 -15.5q-34 0 -58.5 11t-39 28.5t-23 46.5t-12 56.5t-4.5 66.5zM653 1194q0 -24 2.5 -60.5t5.5 -60.5l3 -24q3 -1 8 -2t19.5 -3.5t21.5 0.5q3 33 28.5 55t55.5 31t57.5 25.5t32.5 38.5q10 43 -16.5 71.5t-100.5 28.5q-71 0 -94 -26.5t-23 -73.5z" />
<glyph unicode="&#xf4;" d="M80.5 931q3.5 97 17 181t55.5 153.5t107 118.5t171.5 76t250.5 27q172 0 291 -38.5t181 -107.5t94.5 -164t30.5 -208t-9 -240q-9 -100 -19.5 -174.5t-31 -157.5t-48.5 -142t-73 -115.5t-103 -90.5t-139 -55t-182 -21q-79 0 -145.5 12.5t-118 34.5t-94 56.5t-73.5 73.5 t-55.5 92t-40.5 104.5t-28 118.5t-18.5 127.5t-12.5 136.5q-11 105 -7.5 202zM319.5 708q-2.5 -49 4.5 -102q6 -72 15.5 -122.5t33 -103.5t59.5 -84.5t97 -52t145 -20.5t145 20.5t97.5 52t60.5 85t34.5 103t18.5 122.5q7 53 5.5 102t-9.5 91.5t-32.5 77.5t-63 60t-102 38.5 t-148.5 13.5q-86 0 -150 -13.5t-103 -38.5t-64 -60t-33 -77.5t-10.5 -91.5zM510 1063q10 3 36.5 3t47.5 -2l22 -1q20 93 39 119.5t34.5 -8.5t29.5 -127q100 1 149 -7q-24 59 -47.5 124t-34.5 100l-12 36q-15 -1 -37 -2.5t-78 -3.5t-67 2q-32 -110 -82 -233zM613.5 602.5 q0.5 30.5 8 56.5t22 44.5t40.5 29t64 10.5t64 -11t40.5 -28t22 -45.5t9.5 -55t1 -66.5q-2 -50 -7 -82t-18 -64t-40.5 -47.5t-69.5 -15.5t-69 15.5t-41 47t-19 64.5t-7 82q-1 35 -0.5 65.5z" />
<glyph unicode="&#xf5;" d="M82.5 875q-0.5 77 9.5 162.5t33.5 146.5t68 119t109.5 93.5t160.5 57t218.5 21.5q97 0 176.5 -13t139 -35.5t105.5 -58.5t77 -76t51.5 -94.5t31 -108t13.5 -122.5t0.5 -130.5t-8.5 -140.5q-9 -103 -19.5 -179.5t-31 -162t-48.5 -146.5t-72.5 -119.5t-102.5 -94t-139 -57 t-181 -21.5q-78 0 -144.5 13t-118 35.5t-94 58.5t-73 76t-55 95t-40.5 108t-28 122.5t-18.5 131.5t-12.5 140q-7 102 -7.5 179zM306.5 690.5q-2.5 -49.5 4.5 -102.5q6 -72 15.5 -122t33 -103t60 -85t97.5 -52.5t145 -20.5t145 20.5t97.5 52.5t60.5 85.5t34.5 102.5t18.5 122 q7 53 5.5 102.5t-9.5 92t-32.5 77.5t-63.5 60.5t-102.5 39t-149.5 13.5q-85 0 -149 -13.5t-102.5 -39t-64 -60.5t-33.5 -77.5t-10.5 -92zM528 1164q0 -53 7 -126l73 9v81q0 41 21 47q17 6 24 -22q2 -8 2 -18q3 -54 27.5 -70t81.5 -16q21 0 38.5 4t30 9.5t22.5 17t16.5 20 t11 25.5t6.5 27t3 30.5t1 29v30.5v28q-18 4 -51 6.5t-56 3.5h-24q2 -86 4 -117q0 -21 -10.5 -31.5t-21 -2.5t-11.5 34q-2 51 -26 84.5t-85 32.5q-43 -2 -63.5 -32.5t-20.5 -83.5zM600 518q-1 39 0 66.5t8.5 56.5t22 46t40.5 28.5t64 11.5t64 -11.5t40.5 -28.5t22 -46 t8.5 -56.5t0 -66.5t-3.5 -66.5t-11 -55.5t-22.5 -45.5t-38 -28.5t-58 -11t-58 11t-38 28t-23 46t-12.5 56t-5.5 66z" />
<glyph unicode="&#xf6;" d="M82.5 904q-0.5 75 9.5 158.5t33.5 143t68 116t109.5 91t160.5 55.5t218.5 21q97 0 176.5 -12.5t139 -34.5t105.5 -57t77 -74t51.5 -92.5t31 -105.5t13.5 -119.5t0.5 -127.5t-8.5 -137q-9 -100 -19.5 -175t-31 -158.5t-48.5 -143t-72.5 -116t-102.5 -91t-139 -55.5 t-181 -21q-78 0 -144.5 12.5t-118 34.5t-94 57t-73 74t-55 92.5t-40.5 105.5t-28 119t-18.5 127.5t-12.5 137.5q-7 100 -7.5 175zM325.5 712q-2.5 -49 4.5 -102q6 -73 15.5 -123t33 -103.5t59.5 -85.5t97 -52.5t145 -20.5t145 20.5t97.5 52.5t60.5 85.5t34.5 103.5t18.5 123 q4 64 5 121t-18 105t-56 83t-108 54.5t-173 19.5q-86 0 -150 -13.5t-103 -38.5t-64 -60t-33 -77.5t-10.5 -91.5zM471 1182q2 -54 22.5 -82.5t81.5 -28.5q62 0 83.5 29t21.5 82t-20.5 80.5t-84.5 27.5t-84 -27.5t-20 -80.5zM620.5 605.5q0.5 31.5 8.5 57.5t21.5 45t39.5 29.5 t64 10.5t64.5 -11t41 -28.5t22 -46t9 -56.5t0.5 -67q-1 -40 -4 -66.5t-11.5 -55.5t-22.5 -46t-38.5 -28t-58.5 -11t-58 11t-38 28t-22.5 46t-12 56t-4.5 66q-1 35 -0.5 66.5zM733 1157q0 -53 21.5 -81.5t83.5 -28.5t82 28t22 82q0 26 -3.5 45.5t-13 39.5t-31.5 31t-56 11 q-109 0 -105 -127z" />
<glyph unicode="&#xf8;" horiz-adv-x="1292" d="M74.5 781.5q-1.5 62.5 2 132.5t14.5 123.5t32 109t52 96t77 77t105.5 59t138 35.5t174.5 13q95 0 173.5 -13t137.5 -35.5t104 -59t76 -77t51 -96t30 -109t13 -123.5t0.5 -132.5t-8.5 -142.5q-7 -89 -16 -158t-24 -146t-36.5 -135t-52.5 -115.5t-73.5 -97.5t-97 -71.5 t-126.5 -47t-159 -15.5t-159.5 15.5t-127 47t-97 71.5t-73 97.5t-52 115.5t-35.5 134.5t-22 146t-14 158.5q-6 80 -7.5 142.5zM333.5 725q-2.5 -49 4.5 -102q12 -139 49 -225.5t127 -127.5q28 -13 -2 -35q-8 -6 -30 -20q-73 -45 -94 -80q-2 -2 -3 -4q-15 -29 -16.5 -56.5 t24.5 -47t76 -19.5q74 0 111.5 37t42.5 86q2 36 -12.5 67.5t-12.5 37.5q4 8 16 9t36 -2t38 -3q70 0 124.5 13t91.5 39.5t62 58.5t40.5 78.5t23.5 90.5t14 103q33 334 -196 368q-27 4 -7 24q6 6 27 23q67 54 88 92q15 31 17.5 61.5t-22.5 52.5t-74 22q-73 0 -111 -35t-43 -84 q-3 -31 9.5 -57.5t24.5 -44.5t9 -29q-1 -5 -6 -7.5t-14 -3t-16.5 -0.5t-19 0.5t-16.5 0.5q-86 0 -150 -13.5t-103 -38.5t-64 -60t-33 -77.5t-10.5 -91.5zM487 680q-1 39 0.5 66t8.5 56t21.5 46t40.5 28t63 11q38 0 64.5 -11t41 -28t22 -45.5t9 -56t0.5 -66.5 q-2 -50 -6.5 -82t-18 -64t-40.5 -47.5t-68 -15.5q-42 0 -70 15.5t-41.5 47t-19 64.5t-7.5 82z" />
<glyph unicode="&#xf9;" d="M82.5 922q-0.5 77 9.5 162.5t33.5 146.5t68 119t109.5 93.5t160.5 57t218.5 21.5q97 0 176.5 -13t139 -35.5t105.5 -58.5t77 -76t51.5 -94.5t31 -108t13.5 -122.5t0.5 -130.5t-8.5 -140.5q-9 -103 -19.5 -179.5t-31 -162t-48.5 -146t-72.5 -118.5t-102.5 -93.5t-139 -57 t-181 -21.5t-181 21.5t-138.5 57t-101 93.5t-71 118.5t-46.5 146t-29 162.5t-17 179t-7.5 179zM336 971q2 -10 5 -33t7 -111.5t-4 -205.5q-5 -96 7 -161.5t47 -112.5t100.5 -63.5t165.5 -4.5q46 5 102.5 19t89.5 24t78 14.5t67 -8.5q-1 16 -3 44.5t-4.5 106t-0.5 142.5 q1 77 4.5 163.5t6.5 134.5l4 48q-32 -4 -79 -4t-77 2l-31 2q3 -31 7.5 -79t11 -147.5t4.5 -142.5q0 -8 -0.5 -29.5t-0.5 -29t-1 -25.5t-3 -24.5t-5 -20.5t-7.5 -19.5t-11.5 -15t-16 -13.5t-21 -8t-26 -5q-20 -2 -35 2t-24.5 8.5t-16.5 18.5t-10.5 22.5t-5 31.5t-1.5 34v41 v10.5v9.5q0 333 -41 379l-6 4q-70 -8 -131.5 -7.5t-102.5 4.5zM580 1202q4 -18 23 -31.5t43 -22.5t47.5 -19.5t41 -30t19.5 -47.5q9 -1 21 0t20 3l8 1q10 90 10 147q0 47 -23.5 74t-93.5 27q-73 0 -99.5 -29.5t-16.5 -71.5z" />
<glyph unicode="&#xfa;" d="M82.5 918.5q3.5 99.5 17 186t55 157.5t106.5 122t171.5 79t249.5 28q96 0 176 -13t139.5 -35.5t105.5 -58.5t77 -76t51.5 -95t31 -108t13.5 -122.5t0.5 -131t-8.5 -140.5q-9 -103 -19.5 -179.5t-31 -162t-48.5 -146.5t-72.5 -119t-102.5 -93.5t-139 -57t-181 -21.5 q-78 0 -144.5 13t-118 35.5t-94 58.5t-73 76t-55 94.5t-40.5 108t-28 122.5t-18.5 131t-12.5 140q-11 108 -7.5 207.5zM342 969q2 -10 5 -33.5t7 -112t-4 -205.5q-5 -96 7 -161.5t47 -112t100.5 -63t165.5 -5.5q46 5 102.5 19.5t90 25t78.5 15.5t67 -8q-1 16 -3 44t-4.5 105 t-1.5 141q1 78 4.5 165t6.5 135l4 47q-32 -4 -78.5 -4t-77.5 2l-31 2q3 -31 7.5 -78.5t11.5 -147t6 -141.5q0 -9 -1 -33t-1.5 -32.5t-2 -28t-4 -26.5t-7 -21t-11.5 -20t-16 -13.5t-22 -11t-29 -4.5q-20 -2 -34.5 1t-24.5 9.5t-16.5 16.5t-10 23t-5 29.5t-1.5 35v38.5v23 q0 332 -42 379l-6 4q-70 -8 -131.5 -7.5t-102.5 4.5zM614 1196l11 -147q3 -1 8.5 -1.5t20.5 -1.5t22 1q2 33 27.5 55t55 31t57.5 25t34 38q10 42 -17.5 71t-99.5 29t-95.5 -26.5t-23.5 -73.5z" />
<glyph unicode="&#xfb;" d="M82.5 963.5q3.5 99.5 17 186t55 157.5t106.5 122t171.5 79t249.5 28q96 0 176 -13t139.5 -35.5t105.5 -58.5t77 -76t51.5 -95t31 -108t13.5 -122.5t0.5 -131t-8.5 -140.5q-9 -103 -19.5 -179.5t-31 -162t-48.5 -146.5t-72.5 -119t-102.5 -93.5t-139 -57t-181 -21.5 q-78 0 -144.5 13t-118 35.5t-94 58.5t-73 76t-55 94.5t-40.5 108t-28 122.5t-18.5 131t-12.5 140q-11 108 -7.5 207.5zM348 973q2 -10 5 -33t7 -111.5t-4 -205.5q-5 -96 7 -161.5t47 -112t101.5 -63t166.5 -5.5q45 5 101 19.5t89.5 24.5t78.5 15t67 -8q-1 16 -2.5 44.5 t-4 105.5t-1.5 141q1 78 4.5 164.5t6.5 134.5l3 47q-32 -4 -78.5 -4t-77.5 2l-30 2q3 -31 7 -78.5t11 -147t6 -141.5q0 -9 -1 -33t-1.5 -32.5t-2 -28t-4 -26.5t-7 -21t-11.5 -20t-16 -13.5t-22 -11t-29 -4.5q-20 -2 -34.5 1t-24.5 9.5t-16.5 16.5t-10 23t-5 29.5t-1.5 35 v38.5v23q0 333 -41 381l-6 4q-60 -9 -129 -9t-108 4zM539 1077q15 2 39 1.5t46 -2.5l23 -1q19 94 37.5 121t34 -8.5t29.5 -126.5q102 2 149 -6q-24 58 -47 122.5t-34 100.5l-11 35q-15 -1 -37 -2t-78.5 -2t-68.5 2q-35 -128 -82 -234z" />
<glyph unicode="&#xfc;" d="M83.5 981q-0.5 116 33 213.5t95.5 168.5t180.5 110.5t289.5 39.5q97 0 176.5 -13t139 -35.5t105.5 -58.5t77 -75.5t51.5 -94.5t31 -108t13.5 -122t0.5 -130.5t-8.5 -140.5q-9 -103 -19.5 -179.5t-31 -162t-48.5 -146.5t-72.5 -119.5t-102.5 -94t-139 -57t-181 -21.5 q-78 0 -144.5 13t-118 35.5t-94 58.5t-73 76t-55 95t-40.5 108t-28 122.5t-18.5 131.5t-12.5 140q-6 130 -6.5 246zM336 983q2 -10 5 -33t7 -111.5t-4 -205.5q-5 -96 7 -161t47 -111.5t101 -63.5t165 -6q46 5 102.5 19.5t90 24.5t78 15t66.5 -8q-1 16 -3 44.5t-4.5 105.5 t-0.5 141q1 78 4.5 164.5t6.5 134.5l4 47q-39 -3 -80.5 -3t-73.5 2l-33 3q3 -31 7.5 -79t11 -147.5t4.5 -142.5q0 -8 -0.5 -29.5t-0.5 -29t-1 -25.5t-3 -25t-5 -21t-7.5 -19.5t-11.5 -14.5t-16 -13t-21 -8t-26 -5q-20 -2 -35 2t-24.5 8.5t-16.5 18.5t-10.5 22.5t-5 31.5 t-1.5 33.5v39.5v20q0 333 -41 381l-6 4q-60 -8 -129 -8t-108 4zM457 1198q0 -53 21 -82t83 -29t82.5 28.5t22.5 82.5q0 54 -20.5 82.5t-84.5 28.5t-85 -28.5t-19 -82.5zM719 1174q0 -54 20.5 -82.5t83.5 -28.5q62 0 82.5 28.5t22.5 82.5q0 58 -21 93.5t-84 35.5t-84.5 -36 t-19.5 -93z" />
<glyph unicode="&#xfd;" d="M83.5 912q-0.5 116 33 213.5t95.5 168.5t180.5 110.5t289.5 39.5q97 0 176.5 -13t139 -35.5t105.5 -58.5t77 -75.5t51.5 -94.5t31 -108t13.5 -122t0.5 -130.5t-8.5 -140.5q-7 -79 -14.5 -140.5t-20.5 -131t-29.5 -122.5t-41.5 -108t-56 -95t-74 -76.5t-95 -59 t-118.5 -35.5t-144.5 -13q-100 0 -181 21.5t-138 57.5t-101 94t-71.5 119t-46.5 147t-29 163t-17 179q-6 130 -6.5 246zM342 393q-2 -68 22.5 -114.5t71.5 -69.5t99 -32t120 -9q70 0 112 1.5t84 17.5t62.5 29.5t41.5 60.5t28.5 87t15 132t9.5 172.5t4 230.5 q-60 -19 -154 -19.5t-153 15.5q-2 -153 -5 -233.5t-12.5 -121.5t-19.5 -49t-33 -8q-10 0 -17 2t-13.5 6.5t-10.5 11.5t-7.5 18t-5 25t-2.5 34t-1 43t0.5 53.5t1.5 64t2 76.5q0 14 0.5 21.5t1 20t0.5 22.5q-47 -15 -103 -19t-106 8q6 -52 2.5 -102t-2 -97t5.5 -88t24.5 -74 t56 -55t99.5 -32t154 -4q60 4 80 -8.5t18 -53.5q-2 -36 -30 -53.5t-95 -17.5q-3 0 -9 0.5t-20.5 5.5t-25.5 13.5t-19 27.5t-6 45q-126 -12 -266 16zM592 1106l10 -145q3 -1 8.5 -2t20.5 -3.5t22 0.5q2 33 27.5 55t55 31t57.5 25.5t34 38.5q10 42 -17 71t-99 29t-95.5 -26.5 t-23.5 -73.5z" />
<glyph unicode="&#xfe;" d="M82.5 843.5q3.5 81.5 17 152.5t55 129.5t106.5 100t171.5 64.5t249.5 23q96 0 176 -10.5t139.5 -29t105.5 -48t77 -62.5t51.5 -78t31 -88.5t13.5 -100t0.5 -107.5t-8.5 -115q-9 -84 -19.5 -147t-31 -133t-48.5 -120t-72.5 -97.5t-102.5 -77t-139 -47t-181 -17.5 t-181 17.5t-138 47t-101 77t-71.5 97.5t-46.5 120t-29 133t-17 147q-11 88 -7.5 169.5zM383 1044q33 -149 50 -353t3 -396l273 -10q-11 104 -9 124q4 44 45 55q17 4 43 5q149 6 210 71.5t61 194.5q1 47 -2 77t-15.5 65.5t-36 55t-68 32t-108.5 10.5q-16 -1 -48.5 -4.5 t-53.5 -5t-48.5 1t-42.5 11.5t-24.5 29.5t-5.5 51.5q-33 -2 -89 -5.5t-90.5 -6t-43.5 -3.5zM518 610q0 21 3 32.5t14 24.5t37.5 19t70.5 6t71 -5.5t38 -19t13.5 -25t2.5 -32.5q-1 -22 -4 -33.5t-14.5 -25t-37.5 -19.5t-69 -6q-42 0 -68 6t-37.5 19t-15 25t-4.5 34z" />
<glyph unicode="&#xff;" d="M80.5 855q3.5 97 17 181.5t55.5 154t107 119t171.5 76.5t250.5 27q124 0 220 -21t161 -55.5t109 -91t67.5 -116t32.5 -143t7.5 -158.5t-9.5 -175q-9 -99 -19.5 -173.5t-31 -157.5t-48.5 -142t-73 -115t-103 -90.5t-139 -55.5t-182 -21t-182 21t-138.5 55.5t-101.5 90.5 t-71.5 115t-46.5 142t-29 157.5t-17 173.5q-11 105 -7.5 202zM346 350q0 -55 17 -96t44.5 -65t69.5 -38t84.5 -19t97.5 -5q70 0 112 1.5t84 17t63 29.5t42.5 60t29 86.5t15 131.5t9.5 172.5t4 230.5q-55 -18 -156 -18q-96 0 -153 14q-2 -153 -5 -233.5t-12.5 -121.5 t-19.5 -49t-33 -8q-34 0 -45.5 30t-11.5 120q0 84 6 248q-59 -19 -131 -19q-47 0 -78 8q2 -25 2 -73q0 -23 -1 -66t-1 -63q0 -39 3.5 -67.5t13 -59.5t28.5 -51.5t49 -37.5t75.5 -25.5t106.5 -8.5q13 0 44 1t44 1q43 0 59.5 -12t16.5 -43q0 -40 -28.5 -60t-98.5 -20 q-3 0 -8.5 0.5t-19 5t-23.5 12t-18.5 24t-8.5 38.5v12q-40 -4 -67 -4q-95 0 -201 20zM432 1059q2 -54 22.5 -82.5t82.5 -28.5t83 29t21 82q0 55 -20 82.5t-84 27.5t-84.5 -28t-20.5 -82zM694 1034q0 -53 21.5 -81.5t83.5 -28.5t82 28t22 82q0 27 -3.5 46.5t-13 40 t-31.5 31.5t-56 11q-109 0 -105 -129z" />
<glyph unicode="&#x152;" horiz-adv-x="1843" d="M82 725q-2 51 3.5 107.5t21 100t46 88.5t75.5 78t112 62.5t153 48t200 29t253 10.5q206 0 359.5 -23t246 -64.5t151.5 -100t77 -129.5t22 -152.5t-14 -169.5q-12 -84 -27 -147t-44 -133t-69.5 -120t-104.5 -97.5t-147.5 -77t-200.5 -47t-261 -17.5t-260.5 17.5t-199.5 47 t-146 77t-102.5 97.5t-67.5 120t-41.5 133t-24.5 147q-8 64 -10 115zM299 743.5q0 -55.5 4 -118.5q5 -70 14.5 -121t32 -104.5t56.5 -85.5t92.5 -50.5t136.5 -13.5q64 4 111.5 16.5t71 27t39 28.5t27 23t23.5 9q14 0 32 -14t39.5 -30.5t81 -31.5t146.5 -16q81 -2 134.5 2 t102 18.5t75.5 43t42.5 74.5t16.5 114q-54 -8 -119.5 -14.5t-142 -8.5t-117.5 7q5 -43 -6.5 -63.5t-58.5 -20.5q-51 0 -73 16.5t-22 56.5q0 26 13 38t56 18.5t140 9.5q52 2 81 3t62 4.5t49 6.5t34 10.5t25.5 15.5t15 21.5t10 29t4.5 38.5q15 172 -69 260.5t-259 75.5 q-82 -7 -143 -21.5t-87.5 -28.5t-47 -25.5t-29.5 -12.5q-12 -1 -38 15.5t-80.5 34t-133.5 17.5q-97 0 -165 -19t-103.5 -52.5t-54.5 -80t-19 -102zM443.5 744.5q0.5 30.5 8 56t20.5 43.5t38 28.5t61 10.5q44 0 72 -15t40 -45.5t15.5 -62t1.5 -80.5q-1 -49 -5.5 -80.5 t-17 -62t-38.5 -45.5t-66 -15q-39 0 -65 15t-39 45.5t-18 62.5t-7 80q-1 34 -0.5 64.5zM936 696q-1 19 1.5 30t14 23t39 17.5t72.5 5.5q46 0 74 -5.5t39.5 -17.5t14 -23t1.5 -30t-4.5 -29.5t-15 -22t-38.5 -16.5t-71 -5t-71 5t-38.5 16.5t-14.5 22t-3 29.5z" />
<glyph unicode="&#x153;" horiz-adv-x="1843" d="M82 725q-2 51 3.5 107.5t21 100t46 88.5t75.5 78t112 62.5t153 48t200 29t253 10.5q206 0 359.5 -23t246 -64.5t151.5 -100t77 -129.5t22 -152.5t-14 -169.5q-12 -84 -27 -147t-44 -133t-69.5 -120t-104.5 -97.5t-147.5 -77t-200.5 -47t-261 -17.5t-260.5 17.5t-199.5 47 t-146 77t-102.5 97.5t-67.5 120t-41.5 133t-24.5 147q-8 64 -10 115zM299 743.5q0 -55.5 4 -118.5q5 -70 14.5 -121t32 -104.5t56.5 -85.5t92.5 -50.5t136.5 -13.5q64 4 111.5 16.5t71 27t39 28.5t27 23t23.5 9q14 0 32 -14t39.5 -30.5t81 -31.5t146.5 -16q81 -2 134.5 2 t102 18.5t75.5 43t42.5 74.5t16.5 114q-54 -8 -119.5 -14.5t-142 -8.5t-117.5 7q5 -43 -6.5 -63.5t-58.5 -20.5q-51 0 -73 16.5t-22 56.5q0 26 13 38t56 18.5t140 9.5q52 2 81 3t62 4.5t49 6.5t34 10.5t25.5 15.5t15 21.5t10 29t4.5 38.5q15 172 -69 260.5t-259 75.5 q-82 -7 -143 -21.5t-87.5 -28.5t-47 -25.5t-29.5 -12.5q-12 -1 -38 15.5t-80.5 34t-133.5 17.5q-97 0 -165 -19t-103.5 -52.5t-54.5 -80t-19 -102zM443.5 744.5q0.5 30.5 8 56t20.5 43.5t38 28.5t61 10.5q44 0 72 -15t40 -45.5t15.5 -62t1.5 -80.5q-1 -49 -5.5 -80.5 t-17 -62t-38.5 -45.5t-66 -15q-39 0 -65 15t-39 45.5t-18 62.5t-7 80q-1 34 -0.5 64.5zM936 696q-1 19 1.5 30t14 23t39 17.5t72.5 5.5q46 0 74 -5.5t39.5 -17.5t14 -23t1.5 -30t-4.5 -29.5t-15 -22t-38.5 -16.5t-71 -5t-71 5t-38.5 16.5t-14.5 22t-3 29.5z" />
<glyph unicode="&#x178;" d="M64.5 814q3.5 92 17.5 172t57 146t109.5 112.5t176.5 72.5t257 26q127 0 226 -20t165.5 -52.5t112 -86.5t69.5 -110.5t33.5 -135t8 -149.5t-10.5 -166q-9 -96 -19.5 -167.5t-31.5 -151t-50 -136t-74.5 -110.5t-105.5 -87t-143.5 -53t-187.5 -20t-187.5 20t-142.5 53 t-104.5 87t-73.5 110.5t-47.5 136t-29.5 151t-17 167.5q-11 99 -7.5 191zM354 342q-1 -55 16 -96t45 -65t71 -38t85.5 -19t96.5 -5q70 0 111.5 1.5t84 17t63 29.5t42 60t29 86.5t15 132t9.5 172t4 230.5q-68 -19 -155 -19t-154 15q-2 -153 -5 -233.5t-12.5 -121.5t-19.5 -49 t-33 -8q-10 0 -17 2t-13.5 6.5t-10.5 11t-7.5 18t-5 25t-2.5 33.5t-1 43t0.5 53.5t1.5 64t2 76.5q1 41 2 64q-45 -14 -103 -17.5t-106 7.5q6 -51 2.5 -101t-2 -97t5.5 -87.5t24.5 -73.5t56 -55.5t99.5 -32t154 -3.5q60 3 80.5 -9.5t19.5 -52.5q-2 -37 -30.5 -55.5 t-96.5 -18.5q-3 0 -9 0.5t-20 6t-24.5 14t-18 27.5t-5.5 45q-128 -12 -269 16zM442 1053q2 -54 22.5 -82.5t82.5 -28.5t83 29t21 82q2 54 -18.5 82t-85.5 28q-64 0 -84.5 -28t-20.5 -82zM705 1028q2 -54 22 -82t82 -28t82 28t22 82q0 27 -3.5 46.5t-13 40t-31 31.5t-54.5 11 q-110 0 -106 -129z" />
<glyph unicode="&#x2c6;" horiz-adv-x="528" d="M90 961q45 109 82 233q28 -3 68.5 -2.5t77.5 2.5l36 2q40 -127 95 -258q-14 2 -34.5 3.5t-40 2t-37 0.5h-27.5h-11q-14 91 -29.5 126.5t-33.5 8.5t-37 -121q-9 1 -22.5 2t-47 2t-39.5 -1z" />
<glyph unicode="&#x2dc;" horiz-adv-x="487" d="M83 1095q1 53 21.5 82.5t63.5 30.5q33 1 55.5 -8.5t34 -28t16 -37t5.5 -42.5q1 -26 12 -34t21.5 2.5t9.5 31.5l-3 118q89 -2 130 -10v-28v-30.5t-1 -29.5t-3 -30t-6.5 -26.5t-11 -25.5t-16.5 -20.5t-23 -17t-30.5 -9.5t-38.5 -4q-56 0 -80.5 16t-27.5 70q-1 38 -21 41 q-15 1 -23 -23q-3 -10 -3 -24v-84q-37 -4 -74 -6q-8 73 -7 126z" />
<glyph unicode="&#x2000;" horiz-adv-x="841" />
<glyph unicode="&#x2001;" horiz-adv-x="1683" />
<glyph unicode="&#x2002;" horiz-adv-x="841" />
<glyph unicode="&#x2003;" horiz-adv-x="1683" />
<glyph unicode="&#x2004;" horiz-adv-x="561" />
<glyph unicode="&#x2005;" horiz-adv-x="420" />
<glyph unicode="&#x2006;" horiz-adv-x="280" />
<glyph unicode="&#x2007;" horiz-adv-x="280" />
<glyph unicode="&#x2008;" horiz-adv-x="210" />
<glyph unicode="&#x2009;" horiz-adv-x="336" />
<glyph unicode="&#x200a;" horiz-adv-x="93" />
<glyph unicode="&#x2010;" horiz-adv-x="884" d="M82 753.5q3 81.5 11.5 152.5t35.5 129.5t68 100t109 64.5t159 23q109 0 185 -32.5t115 -91t59.5 -138.5t19.5 -175.5t-6 -201.5q-5 -84 -12 -147t-20 -133t-31 -120t-46 -97.5t-65 -77t-89 -47t-116 -17.5t-115 17.5t-88 47t-65 77t-45.5 97.5t-30 120t-18.5 133t-11 147 q-7 88 -4 169.5zM260 582q1 -36 8.5 -61t27.5 -47.5t61 -34t104 -11.5t104 11.5t61 34t27.5 47.5t8.5 61q0 37 -6.5 61.5t-26 47.5t-61.5 34.5t-107 11.5q-66 0 -108 -11.5t-61.5 -34.5t-26 -47.5t-5.5 -61.5z" />
<glyph unicode="&#x2011;" horiz-adv-x="884" d="M82 753.5q3 81.5 11.5 152.5t35.5 129.5t68 100t109 64.5t159 23q109 0 185 -32.5t115 -91t59.5 -138.5t19.5 -175.5t-6 -201.5q-5 -84 -12 -147t-20 -133t-31 -120t-46 -97.5t-65 -77t-89 -47t-116 -17.5t-115 17.5t-88 47t-65 77t-45.5 97.5t-30 120t-18.5 133t-11 147 q-7 88 -4 169.5zM260 582q1 -36 8.5 -61t27.5 -47.5t61 -34t104 -11.5t104 11.5t61 34t27.5 47.5t8.5 61q0 37 -6.5 61.5t-26 47.5t-61.5 34.5t-107 11.5q-66 0 -108 -11.5t-61.5 -34.5t-26 -47.5t-5.5 -61.5z" />
<glyph unicode="&#x2012;" horiz-adv-x="884" d="M82 753.5q3 81.5 11.5 152.5t35.5 129.5t68 100t109 64.5t159 23q109 0 185 -32.5t115 -91t59.5 -138.5t19.5 -175.5t-6 -201.5q-5 -84 -12 -147t-20 -133t-31 -120t-46 -97.5t-65 -77t-89 -47t-116 -17.5t-115 17.5t-88 47t-65 77t-45.5 97.5t-30 120t-18.5 133t-11 147 q-7 88 -4 169.5zM260 582q1 -36 8.5 -61t27.5 -47.5t61 -34t104 -11.5t104 11.5t61 34t27.5 47.5t8.5 61q0 37 -6.5 61.5t-26 47.5t-61.5 34.5t-107 11.5q-66 0 -108 -11.5t-61.5 -34.5t-26 -47.5t-5.5 -61.5z" />
<glyph unicode="&#x2013;" horiz-adv-x="1003" d="M82.5 757.5q2.5 81.5 12.5 152.5t40.5 129.5t78.5 100t126.5 64.5t183.5 23t183.5 -23t126.5 -64.5t78.5 -100t39.5 -129.5t11 -152.5t-7 -169.5q-6 -84 -14 -147.5t-23 -133.5t-36 -120t-53.5 -97.5t-75.5 -76.5t-102.5 -46.5t-133.5 -17.5q-65 0 -118.5 12.5t-94 38 t-72 57.5t-54 79t-38 93.5t-26 109.5t-16.5 119.5t-11 129.5q-8 88 -5.5 169.5zM276 582q1 -31 4.5 -50t17 -41t38 -34t70 -20.5t110.5 -8.5q81 0 134 11.5t78.5 34t35 47.5t10.5 61t-7.5 61t-33.5 48t-79.5 34.5t-137.5 11.5q-67 0 -113.5 -8.5t-71.5 -20.5t-38 -34.5 t-15.5 -41.5t-1.5 -50z" />
<glyph unicode="&#x2014;" horiz-adv-x="1202" d="M81.5 733q-0.5 62 9 131t31 118.5t62 96t99 75.5t145 46t197.5 17t197.5 -17t145 -46t98 -75.5t60.5 -96t29 -118.5t7 -131t-9 -145t-17.5 -144.5t-28 -130.5t-43.5 -118.5t-65.5 -96.5t-93 -75.5t-125.5 -46t-164 -17.5t-164 17.5t-124.5 46t-91.5 75.5t-64.5 96 t-42 118.5t-26 131t-15.5 144.5q-6 83 -6.5 145zM264 582q1 -28 8.5 -49t30.5 -42t61.5 -34t105 -21t157.5 -8q114 0 188 11t109 34t47.5 47.5t13.5 61.5q1 29 -5 49.5t-26.5 42t-58.5 34t-105.5 21t-162.5 8.5q-96 0 -164 -8t-106.5 -21t-60 -34.5t-27.5 -42t-5 -49.5z" />
<glyph unicode="&#x2018;" horiz-adv-x="952" d="M82.5 776.5q2.5 90.5 11.5 169.5t38 144t74.5 111t119.5 71.5t174 25.5t173.5 -25.5t118.5 -71.5t73 -111t36.5 -144t10.5 -169.5t-7 -188.5q-5 -81 -11.5 -144t-17 -132.5t-25.5 -122t-37 -105t-52 -88.5t-68 -64.5t-88.5 -42.5t-111.5 -14q-70 0 -126 19.5t-96 52.5 t-70.5 86t-49.5 109t-32.5 133.5t-20 148.5t-11.5 164q-8 98 -5.5 188.5zM319 846q0 -47 3.5 -79t15.5 -64.5t33.5 -51.5t58.5 -31t90 -12q65 0 107 11.5t62 35t26.5 48.5t5.5 61t-6.5 60t-21.5 47.5t-49 35t-85 11.5q-33 0 -53 19.5t-22.5 61t28.5 105.5q-16 -3 -42.5 -3.5 t-45.5 0.5l-18 1q-10 -14 -24.5 -38.5t-38.5 -92t-24 -125.5z" />
<glyph unicode="&#x2019;" horiz-adv-x="952" d="M82.5 836.5q2.5 89.5 11.5 167t38 141.5t74.5 109.5t119.5 70.5t174 25t173.5 -25t118.5 -70.5t73 -109.5t36.5 -141.5t10.5 -167t-7 -185.5q-6 -92 -13.5 -160.5t-21.5 -145t-33.5 -131t-50 -106t-71 -83.5t-96.5 -51t-125 -19q-70 0 -126 19t-96 51t-70.5 83.5 t-49.5 106t-32.5 130.5t-20 145.5t-11.5 160.5q-8 96 -5.5 185.5zM297 995q1 -37 6.5 -61.5t21.5 -47.5t49 -34.5t85 -11.5q33 0 53 -19.5t22.5 -61t-28.5 -106.5q16 3 42.5 3.5t45.5 -0.5l18 -1q10 14 24 38.5t38 92t24 125.5q0 59 -6.5 97t-26 73t-61 51.5t-106.5 16.5 t-107 -11.5t-62 -34.5t-26.5 -47.5t-5.5 -60.5z" />
<glyph unicode="&#x201a;" horiz-adv-x="1079" d="M82 753.5q-1 56.5 2 119.5t12 111.5t25.5 98.5t42 86.5t62.5 69.5t85 53.5t111.5 32.5t140.5 12t140.5 -12t111 -32.5t84.5 -53.5t61.5 -69.5t41 -86.5t24.5 -98.5t10.5 -111.5t0.5 -119.5t-7 -128.5t-11 -128.5t-16.5 -119.5t-23.5 -111.5t-33 -99t-45 -87t-59 -69.5 t-75.5 -53.5t-95 -32.5t-116.5 -12t-116 12t-94 32.5t-75 53.5t-58.5 69.5t-44 86.5t-32 99t-22 112t-15 119.5t-10.5 128.5t-6 128.5zM336 391q1 -36 6.5 -60t21 -47t48.5 -34.5t84 -11.5q33 0 53.5 -20t23 -61.5t-27.5 -105.5q16 3 42 3.5t44 -0.5l18 -1q10 14 24 38.5 t38 92t24 125.5q0 60 -6 97t-25.5 72.5t-61 52t-107.5 16.5q-65 0 -107 -11.5t-61 -35t-25.5 -48t-5.5 -61.5z" />
<glyph unicode="&#x201c;" horiz-adv-x="1337" d="M82.5 804.5q3.5 88.5 17.5 165t56 139.5t108 108t174.5 69.5t253.5 24.5q98 0 178.5 -11.5t141 -31.5t107.5 -51.5t78.5 -67t52 -84t31.5 -96t13.5 -108.5t0.5 -116t-9 -124q-9 -91 -19.5 -159.5t-31.5 -144.5t-49.5 -130.5t-73.5 -106t-104 -83t-141 -50.5t-183 -19 q-102 0 -184 19t-140.5 50.5t-103 83t-72.5 106t-47.5 130.5t-29.5 144.5t-17 159.5q-11 95 -7.5 183.5zM287 864q0 -48 3 -79.5t15 -64.5t33 -52t58.5 -31t90.5 -12q65 0 107 11.5t61 34.5t25.5 47.5t5.5 61.5t-6.5 61t-21 47.5t-48.5 34.5t-84 11q-33 0 -53.5 19.5 t-23 61.5t27.5 107q-16 -3 -42 -4t-44 0h-18q-3 -5 -9 -14t-21 -38t-26 -57.5t-20.5 -68.5t-9.5 -76zM735 899q0 -59 6.5 -97t26 -72.5t61.5 -51t107 -16.5t107 11.5t62 34.5t26.5 47t5.5 60q-1 37 -6.5 61.5t-21.5 48t-49 35t-85 11.5q-32 0 -52.5 22.5t-21 70.5t28.5 110 q-16 -3 -43 -3.5t-45 -0.5l-19 1q-10 -16 -24.5 -43t-39 -99t-24.5 -130z" />
<glyph unicode="&#x201d;" d="M82.5 779.5q3.5 81.5 17 152.5t55 129.5t106.5 100t171.5 64.5t249.5 23q96 0 176 -10.5t139.5 -29t105.5 -48t77 -62.5t51.5 -78t31 -88.5t13.5 -100t0.5 -107.5t-8.5 -115q-9 -84 -19.5 -147t-31 -133t-48.5 -120t-72.5 -97.5t-102.5 -77t-139 -47t-181 -17.5 t-181 17.5t-138 47t-101 77t-71.5 97.5t-46.5 120t-29 133t-17 147q-11 88 -7.5 169.5zM260 895q1 -36 7 -60.5t22 -47.5t49 -34.5t84 -11.5q33 0 53.5 -23t21 -70.5t-27.5 -108.5q16 3 42 3.5t44 -0.5l18 -1q10 16 25 43t39.5 99t24.5 130q0 47 -3.5 79t-15.5 64.5 t-33.5 51.5t-58.5 31t-90 12q-65 0 -107 -11.5t-62 -35t-26.5 -48.5t-5.5 -61zM711 932q1 -37 6.5 -61.5t20.5 -48t48 -35t84 -11.5q34 0 54.5 -19t23.5 -60.5t-28 -106.5q16 3 42 3.5t44 -0.5l18 -1q10 14 24.5 38.5t39 92t24.5 125.5q0 59 -6.5 97t-26 72.5t-61.5 51 t-107 16.5q-66 0 -108 -11t-61.5 -34t-25.5 -47t-5 -61z" />
<glyph unicode="&#x201e;" horiz-adv-x="1533" d="M82 751.5q-2 55.5 2.5 117.5t17.5 110t38 97t62 85t92 68.5t125.5 52.5t164 31.5t207.5 11.5t207.5 -11.5t164 -32t124.5 -52.5t90.5 -68t61 -85t36.5 -97t15.5 -110t1 -118t-10.5 -126q-10 -93 -22.5 -162.5t-36.5 -146.5t-57.5 -132t-86 -107t-121 -84t-164 -51.5 t-213.5 -19.5t-213.5 19.5t-163.5 51.5t-119.5 84t-84 107t-55 132t-34 146.5t-20.5 162.5q-6 71 -8 126.5zM354 434q1 -37 6.5 -61.5t22 -47.5t49.5 -34.5t84 -11.5q33 0 53.5 -22.5t21 -70.5t-27.5 -110q16 3 42 3.5t45 -0.5l18 -1q10 16 24.5 43t39 99t24.5 130 q0 47 -3.5 79t-15.5 64.5t-33.5 51.5t-58.5 31t-90 12q-65 0 -107 -11.5t-62 -34.5t-26.5 -47.5t-5.5 -60.5zM805 469q1 -37 6.5 -61t21 -47.5t48.5 -34.5t84 -11q33 0 53.5 -19.5t23 -61.5t-27.5 -107q16 3 42 4t44 1l18 -1q10 14 24.5 38.5t39 91.5t24.5 124q0 48 -3.5 80 t-15 65t-33 52t-58.5 31t-90 12q-66 0 -108 -11.5t-61.5 -35t-26 -48t-5.5 -61.5z" />
<glyph unicode="&#x2022;" d="M82.5 734.5q3.5 81.5 17 152.5t55 129.5t106.5 100t171.5 64.5t249.5 23q96 0 176 -10.5t139.5 -29t105.5 -48t77 -62.5t51.5 -78t31 -88.5t13.5 -100t0.5 -107.5t-8.5 -115q-9 -84 -19.5 -147.5t-31 -133.5t-48.5 -120t-72.5 -97.5t-102.5 -76.5t-139 -46.5t-181 -17.5 t-181 17.5t-138.5 46.5t-101 76.5t-71 97.5t-46.5 120t-29 133.5t-17 147.5q-11 88 -7.5 169.5zM345 733q0 -57 3 -121q4 -72 11 -122.5t23.5 -103.5t43 -84.5t71 -52t105.5 -20.5t105.5 20.5t71.5 52t44.5 84.5t25.5 103t13 123q3 64 3.5 121t-14 105t-41 83t-78 54.5 t-126.5 19.5t-126.5 -19.5t-78.5 -54.5t-41.5 -83t-14.5 -105z" />
<glyph unicode="&#x2026;" horiz-adv-x="1984" d="M82.5 652q-2.5 51 3.5 107.5t23 100t50 88.5t82 78t121 62.5t165.5 48t217 29t273.5 10.5t273.5 -10.5t216 -29t164 -48t120 -62.5t80.5 -78t48 -88.5t20.5 -100t0.5 -107.5t-14 -115q-13 -84 -29.5 -147t-48 -133t-75 -120t-112.5 -97.5t-159.5 -77t-216.5 -47 t-282 -17.5q-122 0 -225.5 10.5t-184 29t-146.5 48t-114 62.5t-86 78t-62.5 88.5t-43 100t-29 107.5t-19.5 115t-11.5 115zM371 264q1 -37 8 -61.5t27 -47.5t61 -34.5t104 -11.5t104 11.5t61 34.5t27.5 48t8.5 61t-5.5 60.5t-26.5 47.5t-62 34.5t-107 11.5q-66 0 -108 -11.5 t-61.5 -35t-25.5 -47.5t-5 -60zM829 283q1 -36 8.5 -60.5t27.5 -47.5t61 -34.5t104 -11.5t104 11.5t61 34.5t27.5 47.5t8.5 60.5t-5.5 61t-26.5 48t-62 34.5t-107 11.5q-66 0 -108 -11.5t-61.5 -34.5t-26 -47.5t-5.5 -61.5zM1282 260q1 -29 5 -49.5t16.5 -42t34 -34.5 t58 -21.5t87.5 -8.5q62 0 103 11.5t60.5 35t26.5 48t8 61.5t-5 61t-25.5 47.5t-61.5 34.5t-108 11q-124 0 -163.5 -39.5t-35.5 -114.5z" />
<glyph unicode="&#x202f;" horiz-adv-x="336" />
<glyph unicode="&#x2039;" horiz-adv-x="753" d="M83 781.5q0 91.5 17.5 168t50.5 132.5t95.5 87t152.5 31t152.5 -31t95 -87t50 -132.5t17 -168t-4.5 -193.5q-5 -81 -10.5 -141t-16.5 -127t-25.5 -115t-38 -93.5t-54.5 -73t-73.5 -44.5t-95.5 -17t-96 17t-73.5 44.5t-53.5 73t-37.5 93.5t-24.5 115t-15 127t-9 141 q-3 102 -3 193.5zM238 623q0 -42 4 -88q4 -36 7.5 -57.5t11.5 -49.5t19 -44.5t29.5 -35t43.5 -27.5t61 -15.5t82 -6.5q8 59 -2 96q-51 0 -76 27.5t-33 89.5q-7 50 17 82t85 31q19 114 21 194q-75 0 -128.5 -15t-82 -41t-44 -62t-15.5 -78z" />
<glyph unicode="&#x203a;" horiz-adv-x="753" d="M83 781.5q0 91.5 17.5 168t50.5 132.5t95.5 87t152.5 31t152.5 -31t95 -87t50 -132.5t17 -168t-4.5 -193.5q-5 -81 -10.5 -141t-16.5 -127t-25.5 -115t-38 -93.5t-54.5 -73t-73.5 -44.5t-95.5 -17t-96 17t-73.5 44.5t-53.5 73t-37.5 93.5t-24.5 115t-15 127t-9 141 q-3 102 -3 193.5zM238 827q0 -36 4.5 -86t9.5 -82l4 -32q62 1 86.5 -30.5t17.5 -80.5q-9 -59 -34 -84.5t-76 -25.5q-4 -16 -4.5 -39.5t0.5 -38.5l2 -15q46 0 82 6t61 15.5t43.5 27.5t29.5 34.5t19 44t11.5 48.5t7.5 56q4 45 4 86.5t-15.5 77.5t-43.5 62t-81.5 41t-127.5 15z " />
<glyph unicode="&#x205f;" horiz-adv-x="420" />
<glyph unicode="&#x20ac;" horiz-adv-x="1359" d="M82.5 761.5q3.5 81.5 17 152.5t55 129.5t106.5 100t171.5 64.5t249.5 23q96 0 176 -10.5t139.5 -29t105.5 -48t77 -62.5t51.5 -78t31 -88.5t13.5 -100t0.5 -107.5t-8.5 -115q-9 -84 -19.5 -147.5t-31 -133.5t-48.5 -120t-72.5 -97.5t-102.5 -76.5t-139 -46.5t-181 -17.5 t-181 17.5t-138.5 46.5t-101 76.5t-71 97.5t-46.5 120t-29 133.5t-17 147.5q-11 88 -7.5 169.5zM209 600q2 -24 3.5 -48t2 -41.5t0.5 -32v-22.5v-7q29 7 48.5 10t33 -1.5t21 -8.5t12.5 -20.5t7 -26t5 -35.5q6 -43 15.5 -71t30.5 -53t56 -39t89.5 -23t132.5 -11 q100 -5 175 -1t125 25t75 73.5t26 144.5q-290 -41 -412 -19q0 -41 -16 -59t-74 -17q-44 2 -72 26.5t-22 78.5q4 33 67.5 36t168.5 -18q-5 36 -5 71.5t2 52.5l3 18q-16 -1 -46 -3q-117 -7 -151 4q-45 15 -47 68q-2 41 18 67t56 27q60 3 82.5 -17.5t21.5 -80.5q197 0 408 -24 q39 187 -51.5 285t-340.5 98q-347 0 -354 -312q0 -3 -0.5 -17.5t-1 -18.5t-2.5 -15.5t-5.5 -15.5t-10.5 -11.5t-16.5 -10t-24 -4.5t-33.5 -1z" />
<glyph unicode="&#x2122;" d="M82.5 771.5q3.5 81.5 17 152.5t55 129.5t106.5 100t171.5 64.5t249.5 23q96 0 176 -10.5t139.5 -29t105.5 -48t77 -62.5t51.5 -78t31 -88.5t13.5 -100t0.5 -107.5t-8.5 -115q-9 -84 -19.5 -147t-31 -133t-48.5 -120t-72.5 -97.5t-102.5 -77t-139 -47t-181 -17.5 t-181 17.5t-138 47t-101 77t-71.5 97.5t-46.5 120t-29 133t-17 147q-11 88 -7.5 169.5zM288.5 956q1.5 -39 3.5 -68l3 -28q70 5 107.5 -49.5t41.5 -202.5q11 -2 26 -0.5t28 4.5l12 2q4 139 17.5 200.5t60.5 72.5q11 3 14.5 -10.5t3.5 -32.5l-8 -230q19 3 40 3t32 -1l12 -2 q-8 150 -8 250q0 6 -0.5 21t0 20t2 15t5 13.5t10 7.5t16.5 5q7 0 12 -0.5t9 -3t6.5 -4.5t4.5 -7t2.5 -8t1 -10.5t0.5 -11.5v-14v-15q0 -67 -2 -128t-4 -89l-2 -28q27 6 60.5 6t52.5 -3l20 -3q-16 41 -16 182q0 29 0.5 43t3.5 32.5t10.5 26t20.5 7.5q28 0 32.5 -28.5 t-1.5 -66.5q-7 -190 24 -213q41 9 152 -2q-3 6 -8 19t-11 68.5t-2 129.5q5 57 1 105t-16 81.5t-40.5 48.5t-73.5 7q-174 -31 -254.5 -41t-173 -9t-227.5 19q-2 -41 -0.5 -80z" />
<glyph unicode="&#x25fc;" horiz-adv-x="1300" d="M0 0v1300h1300v-1300h-1300z" />
<glyph unicode="&#xfb01;" d="M82.5 781.5q3.5 81.5 17 152.5t55 129.5t106.5 100t171.5 64.5t249.5 23q96 0 176 -10.5t139.5 -29t105.5 -48t77 -62.5t51.5 -78t31 -88.5t13.5 -100t0.5 -107.5t-8.5 -115q-9 -84 -19.5 -147.5t-31 -133.5t-48.5 -120t-72.5 -97.5t-102.5 -76.5t-139 -46.5t-181 -17.5 t-181 17.5t-138.5 46.5t-101 76.5t-71 97.5t-46.5 120t-29 133.5t-17 147.5q-11 88 -7.5 169.5zM266 821.5q-9 -63.5 6 -147.5q13 -77 20.5 -126t12 -100t3 -89t-8.5 -70q131 2 205.5 0.5t101.5 -3.5l27 -3q-6 34 -10 100q0 45 20.5 66t91.5 22q26 0 30.5 -19.5t1.5 -100.5 q-2 -57 -3 -95q34 12 108.5 12.5t132.5 -4.5l58 -6q-3 23 -6 61t-1.5 140t17.5 184q-120 -12 -194.5 -11.5t-108.5 6.5l-33 7q3 -34 -30.5 -40.5t-171.5 -6.5h-43q-82 0 -109.5 17t-30.5 69q-3 53 25.5 71.5t114.5 18.5q28 1 57 0.5t56 -2t50.5 -6t40 -12t25 -20t6.5 -29.5 q155 17 352 -13q13 50 14.5 91t-6.5 72t-28 55.5t-44 41.5t-61 29t-71.5 18.5t-83.5 10.5t-89.5 5t-95.5 1q-117 0 -192 -22t-111 -65.5t-45 -107z" />
</font>
</defs>
</svg>
